<?xml version="1.0" encoding="UTF-8"?>
<svg width="1200pt" height="1200pt" version="1.1" viewBox="0 0 1200 1200" xmlns="http://www.w3.org/2000/svg">
 <g>
  <path d="m997.4 655c11 0 20-9 20-20s-9-20-20-20h-175.4v-63.398c0-11-9-20-20-20s-20 9-20 20v63.398h-175.4c-11 0-20 9-20 20s9 20 20 20h80.602c11.199 26.398 40 87.199 87.602 144.2-35.199 35.398-78.602 65.602-130.4 76.801-10.801 2.3984-17.602 13-15.199 23.801 2 9.3984 10.398 15.801 19.602 15.801 1.3984 0 2.8008-0.19922 4.1992-0.39844 60.199-13.199 109.8-46.801 149.2-86.199 39.398 39.398 89 73 149.2 86.199 1.3984 0.39844 2.8008 0.39844 4.1992 0.39844 9.1992 0 17.398-6.3984 19.602-15.801 2.3984-10.801-4.3984-21.398-15.199-23.801-52-11.398-95.398-41.398-130.4-76.801 47.602-57 76.398-118 87.602-144.2zm-195.4 113.8c-34.398-42.199-58-86.398-70.801-113.8h141.8c-13.199 27.398-36.801 71.602-71 113.8z"/>
  <path d="m357.4 298.2c-3.1992-7.3984-10.398-12.199-18.398-12.199s-15.398 4.8008-18.398 12.199l-72 171.8-31.801 76c-4.1992 10.199 0.60156 21.801 10.801 26.199 10.199 4.1992 22-0.60156 26.199-10.801l26.602-63.801h117.2l26.602 63.801c3.1992 7.6016 10.602 12.199 18.398 12.199 2.6016 0 5.1992-0.39844 7.8008-1.6016 10.199-4.1992 15-16 10.801-26.199zm-60.199 159.6 42-100.2 42 100.2z"/>
  <path d="m1100 929.4v-411.8c0-50.801-41.398-92.199-92.199-92.199l-411.8-0.003906c-50.801 0-92.199 41.398-92.199 92.199v149.6c0 114-47.199 224.8-129.4 303.8l-16.801 16c-5.8008 5.6016-7.8008 14.398-4.6016 21.801 3 7.6016 10.398 12.602 18.602 12.602h636.2c50.801 0.19922 92.199-41.203 92.199-92.004zm-556.2-262.2v-149.6c0-28.801 23.398-52.199 52.199-52.199h411.8c28.801 0 52.199 23.398 52.199 52.199v411.8c0 28.801-23.398 52.199-52.199 52.199l-587.6 0.003906c78.801-85 123.6-198 123.6-314.4z"/>
  <path d="m192.2 774.6h240.8c11 0 20-9 20-20s-9-20-20-20h-240.8c-28.801 0-52.199-23.402-52.199-52.203v-411.8c0-28.801 23.398-52.199 52.199-52.199h587.6c-38 40.801-68 87.602-89.199 139.4-4.1992 10.199 0.80078 21.801 11 26 10.199 4.1992 21.801-0.80078 26-11 22.398-54.602 55.398-103.2 98-144l16.801-16c5.8008-5.6016 7.8008-14.398 4.6016-21.801-3-7.6016-10.398-12.602-18.602-12.602h-636.2c-50.801 0-92.199 41.402-92.199 92.203v411.8c0 50.797 41.398 92.199 92.199 92.199z"/>
 </g>
</svg>
