<?xml version="1.0" encoding="UTF-8"?>
<svg width="1200pt" height="1200pt" version="1.1" viewBox="0 0 1200 1200" xmlns="http://www.w3.org/2000/svg">
 <g fill="#fff">
  <path d="m179.68 288.27c-16.074 0-29.164 13.074-29.164 29.164 0 16.086 13.074 29.164 29.164 29.164 16.086 0 29.164-13.074 29.164-29.164-0.003906-16.086-13.09-29.164-29.164-29.164zm0 39.562c-5.7383 0-10.414-4.6758-10.414-10.414s4.6758-10.414 10.414-10.414 10.414 4.6758 10.414 10.414c-0.003906 5.7422-4.6758 10.414-10.414 10.414z"/>
  <path d="m284.23 288.27c-16.074 0-29.164 13.074-29.164 29.164 0 16.086 13.074 29.164 29.164 29.164 16.086 0 29.164-13.074 29.164-29.164-0.003906-16.086-13.09-29.164-29.164-29.164zm0 39.562c-5.7383 0-10.414-4.6758-10.414-10.414s4.6758-10.414 10.414-10.414c5.7383 0 10.414 4.6758 10.414 10.414-0.003906 5.7422-4.6797 10.414-10.414 10.414z"/>
  <path d="m388.77 288.27c-16.074 0-29.164 13.074-29.164 29.164 0 16.086 13.074 29.164 29.164 29.164 16.086 0 29.164-13.074 29.164-29.164 0-16.086-13.086-29.164-29.164-29.164zm0 39.562c-5.7383 0-10.414-4.6758-10.414-10.414s4.6758-10.414 10.414-10.414c5.7383 0 10.414 4.6758 10.414 10.414 0 5.7422-4.6758 10.414-10.414 10.414z"/>
  <path d="m867.75 308.05h172.38v18.75h-172.38z"/>
  <path d="m1074.7 211.98h-949.46c-36.336 0-65.887 29.562-65.887 65.887v644.29c0 36.324 29.562 65.887 65.887 65.887h949.46c36.336 0 65.887-29.562 65.887-65.887v-164.75l0.003906-136.78v-342.76c0-36.324-29.551-65.887-65.887-65.887zm47.137 305.56v404.61c0 25.988-21.148 47.137-47.137 47.137l-949.46 0.003906c-26 0-47.137-21.148-47.137-47.137v-513.4h1043.8v108.79zm0-127.54h-1043.8v-112.14c0-25.988 21.148-47.137 47.137-47.137h949.46c26 0 47.137 21.148 47.137 47.137l0.003906 112.14z"/>
  <path d="m513.44 813.65-130.18-130.2 130.18-130.18-13.25-13.25-143.44 143.43 143.44 143.45z"/>
  <path d="m699.82 826.9 143.44-143.45-143.44-143.43-13.25 13.25 130.18 130.18-130.18 130.2z"/>
  <path d="m633.21 543.89 17.914 5.5312-84.445 273.61-17.914-5.5312z"/>
 </g>
</svg>
