<?xml version="1.0" encoding="UTF-8"?>
<svg width="1200pt" height="1200pt" version="1.1" viewBox="0 0 1200 1200" xmlns="http://www.w3.org/2000/svg">
 <g>
  <path d="m996 120h-792c-35.008 0-68.582 13.906-93.34 38.66-24.754 24.758-38.66 58.332-38.66 93.34v696c0 35.008 13.906 68.582 38.66 93.34 24.758 24.754 58.332 38.66 93.34 38.66h792c35.008 0 68.582-13.906 93.34-38.66 24.754-24.758 38.66-58.332 38.66-93.34v-696c0-35.008-13.906-68.582-38.66-93.34-24.758-24.754-58.332-38.66-93.34-38.66zm-900 828v-492h288v600h-180c-28.645 0-56.113-11.379-76.367-31.633-20.254-20.254-31.633-47.723-31.633-76.367zm900 108h-588v-600h696v492c0 28.645-11.379 56.113-31.633 76.367-20.254 20.254-47.723 31.633-76.367 31.633zm108-624h-1008v-180c0-28.645 11.379-56.113 31.633-76.367 20.254-20.254 47.723-31.633 76.367-31.633h792c28.645 0 56.113 11.379 76.367 31.633 20.254 20.254 31.633 47.723 31.633 76.367z"/>
  <path d="m300 288c0 33.137-26.863 60-60 60s-60-26.863-60-60 26.863-60 60-60 60 26.863 60 60"/>
  <path d="m456 288c0 33.137-26.863 60-60 60s-60-26.863-60-60 26.863-60 60-60 60 26.863 60 60"/>
  <path d="m960 276h-264c-6.6289 0-12 5.3711-12 12s5.3711 12 12 12h264c6.6289 0 12-5.3711 12-12s-5.3711-12-12-12z"/>
 </g>
</svg>
