<?xml version="1.0" encoding="UTF-8"?>
<svg width="1200pt" height="1200pt" version="1.1" viewBox="0 0 1200 1200" xmlns="http://www.w3.org/2000/svg">
 <g>
  <path d="m816.12 652.92c-4.6055 0-9.2109-1.7578-12.727-5.2734-7.0312-7.0312-7.0312-18.422 0-25.453l157.2-157.21c7.0312-7.0312 18.422-7.0312 25.453 0s7.0312 18.422 0 25.453l-157.2 157.21c-3.5156 3.5156-8.1211 5.2734-12.727 5.2734z"/>
  <path d="m226.56 740.52c-4.6055 0-9.2109-1.7578-12.727-5.2734-7.0312-7.0312-7.0312-18.422 0-25.453l200.64-200.64c7.0312-7.0312 18.422-7.0312 25.453 0s7.0312 18.422 0 25.453l-200.64 200.64c-3.5156 3.5156-8.1211 5.2734-12.727 5.2734z"/>
  <path d="m678.12 652.92c-4.6055 0-9.2109-1.7578-12.727-5.2734l-113.04-113.04c-7.0312-7.0312-7.0312-18.422 0-25.453s18.422-7.0312 25.453 0l113.04 113.04c7.0312 7.0312 7.0312 18.422 0 25.453-3.5156 3.5156-8.1211 5.2734-12.727 5.2734z"/>
  <path d="m157.6 907c-63.746 0-115.6-51.855-115.6-115.61 0-63.738 51.855-115.59 115.6-115.59 63.738 0 115.59 51.855 115.59 115.59 0 63.75-51.859 115.61-115.59 115.61zm0-195.2c-43.895 0-79.602 35.707-79.602 79.594 0 43.898 35.707 79.605 79.602 79.605 43.887 0 79.594-35.707 79.594-79.605 0-43.887-35.711-79.594-79.594-79.594z"/>
  <path d="m496.08 568.51c-63.742 0-115.6-51.855-115.6-115.59s51.855-115.59 115.6-115.59c63.738 0 115.59 51.855 115.59 115.59s-51.855 115.59-115.59 115.59zm0-195.19c-43.891 0-79.602 35.707-79.602 79.594s35.707 79.594 79.602 79.594c43.887 0 79.594-35.707 79.594-79.594s-35.707-79.594-79.594-79.594z"/>
  <path d="m747.08 819.53c-63.738 0-115.59-51.855-115.59-115.61 0-63.738 51.855-115.59 115.59-115.59 63.742 0 115.6 51.855 115.6 115.59-0.003906 63.75-51.855 115.61-115.6 115.61zm0-195.2c-43.887 0-79.594 35.707-79.594 79.594 0 43.898 35.707 79.605 79.594 79.605 43.891 0 79.602-35.707 79.602-79.605-0.003906-43.887-35.707-79.594-79.602-79.594z"/>
  <path d="m1042.4 524.2c-63.738 0-115.59-51.855-115.59-115.59 0-63.75 51.855-115.61 115.59-115.61 63.742 0 115.6 51.855 115.6 115.61 0 63.738-51.855 115.59-115.6 115.59zm0-195.2c-43.887 0-79.594 35.707-79.594 79.605 0 43.887 35.707 79.594 79.594 79.594 43.891 0 79.602-35.707 79.602-79.594 0-43.898-35.707-79.605-79.602-79.605z"/>
 </g>
</svg>
