<?xml version="1.0" encoding="UTF-8"?>
<svg width="1200pt" height="1200pt" version="1.1" viewBox="0 0 1200 1200" xmlns="http://www.w3.org/2000/svg">
 <g fill="#fff">
  <path d="m824.55 459.38h39.324c-9.6562-33.793-27.758-64.57-52.602-89.43-24.844-24.859-55.609-42.984-89.395-52.66v39.484c23.641 8.4336 45.117 22.016 62.871 39.758 17.758 17.746 31.352 39.211 39.801 62.848z"/>
  <path d="m534.38 853.08c44.859-0.0625 88.48-14.73 124.27-41.785 35.785-27.055 61.785-65.023 74.074-108.17h-39.484c-12.699 35.961-37.215 66.555-69.547 86.785-32.328 20.227-70.562 28.898-108.46 24.59-37.895-4.3047-73.211-21.332-100.18-48.301-26.969-26.965-43.996-62.281-48.301-100.18-4.3086-37.895 4.3633-76.129 24.59-108.46 20.23-32.332 50.824-56.848 86.785-69.547v-39.484c-47.883 13.57-89.238 44.004-116.44 85.68-27.199 41.676-38.406 91.785-31.551 141.08 6.8516 49.293 31.305 94.445 68.844 127.12 37.535 32.676 85.629 50.672 135.39 50.664z"/>
  <path d="m2.5 819.83 34.297 89.566c3.5781 9.3555 10.738 16.902 19.895 20.973 9.1562 4.0664 19.559 4.3203 28.902 0.70703l89.145-34.469c33.438 48.355 76.168 89.57 125.7 121.24l-38.012 94.445c-3.6992 9.2578-3.5977 19.602 0.29297 28.777 3.8906 9.1797 11.246 16.453 20.473 20.23l88.273 35.918c9.2852 3.7773 19.691 3.6992 28.922-0.21094 9.2266-3.9141 16.52-11.34 20.262-20.637l38.973-96.816c53.902 9.2852 109.07 8.4297 162.65-2.5195l42.051 95.434c4.0391 9.1758 11.562 16.363 20.914 19.977 9.3477 3.6133 19.75 3.3516 28.91-0.72266l87.16-38.801-0.003906 0.003906c9.0938-4.082 16.207-11.586 19.797-20.883 3.5898-9.2969 3.3594-19.637-0.63281-28.77l-40.887-92.863v0.003906c42.719-29.223 79.996-65.691 110.14-107.76l88.77 36.117c9.2852 3.7734 19.691 3.6992 28.922-0.21484 9.2266-3.9102 16.52-11.336 20.262-20.633l35.762-88.824c3.7148-9.2578 3.6172-19.613-0.27344-28.801s-11.258-16.461-20.492-20.234l-82.398-33.488v-0.003906c7.6094-32.812 11.438-66.391 11.418-100.07 0.050782-5.75-2.5625-11.199-7.0742-14.758-4.5156-3.5625-10.426-4.832-16.004-3.4414-0.58203-0.054687-1.1445-0.17578-1.7422-0.17578h-393.75v-401.97l-0.019531-0.17969 0.019531-0.17578c0-4.9727-1.9766-9.7422-5.4922-13.258-3.5156-3.5156-8.2852-5.4922-13.258-5.4922-34.789-0.03125-69.457 4.1016-103.26 12.305l-26.688-60.57c-4.0391-9.1758-11.566-16.363-20.918-19.977-9.3516-3.6133-19.758-3.3516-28.914 0.72266l-87.133 38.801c-9.0977 4.0703-16.223 11.578-19.812 20.879-3.5898 9.3008-3.3594 19.645 0.64453 28.777l28.07 63.656h-0.003906c-47.18 34.797-86.992 78.605-117.12 128.9l-68.984-28.062c-9.2852-3.7773-19.691-3.6992-28.922 0.21094-9.2266 3.9102-16.52 11.336-20.262 20.637l-35.777 88.852c-3.707 9.2539-3.6055 19.598 0.27734 28.777 3.8867 9.1797 11.242 16.449 20.469 20.23l75.703 30.844c-7.6484 52.277-5.9453 105.5 5.0352 157.18l-82.68 31.961c-9.293 3.6172-16.777 10.766-20.824 19.879-4.0469 9.1172-4.3242 19.461-0.77344 28.781zm133.01-51.527c4.2734-1.6523 7.793-4.8125 9.8945-8.8867 2.1055-4.0703 2.6406-8.7734 1.5117-13.215-8.2383-32.59-12.391-66.082-12.367-99.699 0.015625-24.434 2.207-48.82 6.5547-72.867 0.76563-4.2305 0.050782-8.5977-2.0195-12.363-2.0664-3.7695-5.3711-6.7109-9.3516-8.3359l-89.648-36.75 36.035-88.973 84.172 34.242c4.2656 1.7305 9.0195 1.8359 13.355 0.29297 4.3359-1.543 7.9531-4.625 10.164-8.6602 30.602-55.793 73.922-103.59 126.45-139.52 3.6172-2.4688 6.2578-6.125 7.4648-10.336 1.2031-4.2109 0.89453-8.7109-0.87109-12.719l-34.129-77.93 87.395-38.691 33.141 75.238c1.8242 4.1445 5.0859 7.4883 9.1836 9.4141s8.7539 2.3008 13.109 1.0586c29.367-8.2695 59.594-13.109 90.078-14.418v401.69c0 4.9727 1.9766 9.7422 5.4922 13.258 3.5156 3.5156 8.2852 5.4922 13.258 5.4922h399.19c-1.293 29.484-5.8359 58.738-13.539 87.23-1.2148 4.4258-0.76172 9.1406 1.2695 13.25 2.0312 4.1133 5.5039 7.3359 9.7539 9.0625l97.613 39.918-36.027 88.953-102.73-41.793v-0.003906c-4.0117-1.6367-8.4648-1.832-12.602-0.55469-4.1406 1.2812-7.707 3.9531-10.094 7.5703-31.598 47.531-72.887 87.848-121.16 118.3-3.8125 2.3906-6.6328 6.0742-7.9492 10.375-1.3203 4.3047-1.0469 8.9336 0.76953 13.051l47.176 107.68-87.406 38.691-48.266-109.56c-1.7812-4.0273-4.918-7.3008-8.8711-9.2461-3.9492-1.9453-8.457-2.4414-12.734-1.4023-58.023 14.035-118.44 14.969-176.87 2.7383-4.3164-0.92187-8.8203-0.29297-12.715 1.7812-3.8984 2.0742-6.9375 5.457-8.582 9.5547l-44.996 111.26-88.387-36.191 43.938-109.16v0.003906c1.6797-4.1719 1.8047-8.8086 0.35156-13.062-1.457-4.2578-4.3906-7.8477-8.2695-10.121-54.758-32.215-101.16-76.879-135.43-130.37-2.332-3.6445-5.8516-6.3711-9.9648-7.7148-4.1094-1.3477-8.5625-1.2266-12.594 0.33203l-103.43 39.781-34.176-89.84z"/>
  <path d="m665.62 534.38h412.5c1.457-0.015625 2.9102-0.19922 4.3281-0.55078 0.58203 0.054687 1.1445 0.17578 1.7422 0.17578 4.9727 0 9.7422-1.9766 13.258-5.4922 3.5156-3.5156 5.4922-8.2852 5.4922-13.258 0.003907-18.98-1.2109-37.941-3.6367-56.762l76.594-29.652v-0.003907c9.293-3.6172 16.777-10.762 20.824-19.875 4.0469-9.1133 4.3242-19.457 0.77344-28.773l-34.297-89.578c-3.582-9.3555-10.742-16.902-19.902-20.969-9.1562-4.0664-19.559-4.3203-28.902-0.69922l-69.801 27v-0.003906c-32.895-57.375-78.312-106.59-132.87-143.97l25.844-64.25 0.003907-0.003907c3.7031-9.2539 3.5977-19.598-0.29297-28.777-3.8906-9.1797-11.246-16.449-20.473-20.23l-88.285-35.914c-9.2812-3.7773-19.688-3.6992-28.914 0.21484-9.2266 3.9102-16.516 11.332-20.258 20.629l-24.691 61.312c-29.285-6.0977-59.121-9.1602-89.035-9.1445-4.9727 0-9.7422 1.9766-13.258 5.4922-3.5156 3.5156-5.4922 8.2852-5.4922 13.258l0.019531 0.17969-0.019531 0.17578v420.72c0 4.9727 1.9766 9.7422 5.4922 13.258 3.5156 3.5156 8.2852 5.4922 13.258 5.4922zm95.91-409.39c4.3906 1.082 9.0273 0.55078 13.055-1.5039 4.0312-2.0547 7.1836-5.4961 8.8828-9.6875l30.918-76.27 88.395 36.199-31.57 78.469c-1.6367 4.0703-1.793 8.582-0.44531 12.754 1.3438 4.1758 4.1094 7.7422 7.8164 10.09 59.562 37.766 108.14 90.535 140.86 153.01 2.1328 4.082 5.6992 7.2305 10.012 8.8516 4.3086 1.6211 9.0664 1.5938 13.359-0.070312l85.363-32.805 34.176 89.84-90.551 35.066c-4.0195 1.5586-7.375 4.4531-9.5078 8.1953-2.1367 3.7422-2.918 8.1055-2.2109 12.359 2.5742 15.688 4.2148 31.512 4.9102 47.395h-380.62v-383.01c26.023 1.1445 51.871 4.8672 77.16 11.117z"/>
 </g>
</svg>
