<?xml version="1.0" encoding="UTF-8"?>
<svg width="1200pt" height="1200pt" version="1.1" viewBox="0 0 1200 1200" xmlns="http://www.w3.org/2000/svg">
 <path d="m125 650c0.035156 33.141 13.215 64.914 36.648 88.352 23.438 23.434 55.211 36.613 88.352 36.648h400c33.141-0.035156 64.914-13.215 88.352-36.648 23.434-23.438 36.613-55.211 36.648-88.352v-400c-0.035156-33.141-13.215-64.914-36.648-88.352-23.438-23.434-55.211-36.613-88.352-36.648h-400c-33.141 0.035156-64.914 13.215-88.352 36.648-23.434 23.438-36.613 55.211-36.648 88.352zm50-400c0.023438-19.883 7.9297-38.949 21.992-53.008 14.059-14.062 33.125-21.969 53.008-21.992h400c19.883 0.023438 38.949 7.9297 53.008 21.992 14.062 14.059 21.969 33.125 21.992 53.008v400c-0.023438 19.883-7.9297 38.949-21.992 53.008-14.059 14.062-33.125 21.969-53.008 21.992h-400c-19.883-0.023438-38.949-7.9297-53.008-21.992-14.062-14.059-21.969-33.125-21.992-53.008zm113.82 372.36c5.9297 2.9609 12.797 3.4492 19.086 1.3516s11.488-6.6055 14.457-12.535l43.09-86.18h169.09l43.09 86.18c3.9961 7.9922 11.949 13.242 20.863 13.777 8.918 0.53516 17.441-3.7266 22.363-11.18 4.9258-7.457 5.4961-16.969 1.5-24.957l-150-300c-4.6953-7.8828-13.191-12.711-22.363-12.711s-17.668 4.8281-22.363 12.711l-150 300c-2.9609 5.9297-3.4453 12.793-1.3477 19.086 2.0938 6.2891 6.6016 11.488 12.531 14.457zm161.18-266.46 59.547 119.09h-119.09zm25 494.09v100c0.023438 19.883 7.9297 38.949 21.992 53.008 14.059 14.062 33.125 21.969 53.008 21.992h400c19.883-0.023438 38.949-7.9297 53.008-21.992 14.062-14.059 21.969-33.125 21.992-53.008v-400c-0.023438-19.883-7.9297-38.949-21.992-53.008-14.059-14.062-33.125-21.969-53.008-21.992h-100v-50h100c33.141 0.035156 64.914 13.215 88.352 36.648 23.434 23.438 36.613 55.211 36.648 88.352v400c-0.035156 33.141-13.215 64.914-36.648 88.352-23.438 23.434-55.211 36.613-88.352 36.648h-400c-33.141-0.035156-64.914-13.215-88.352-36.648-23.434-23.438-36.613-55.211-36.648-88.352v-100zm414.5 72.68c-50.535-24.855-94.266-61.629-127.42-107.15 14-9.8242 26.688-21.398 37.754-34.441 28.34 40.777 66.391 73.859 110.71 96.254 6.9336 3.2305 12.004 9.457 13.766 16.902 1.7656 7.4414 0.019531 15.285-4.7305 21.277-4.75 5.9961-11.984 9.4883-19.633 9.4766-3.6094 0.007812-7.1797-0.78516-10.449-2.3203zm-312.16-12.133c-2.7891-6.0078-3.082-12.879-0.8125-19.105 2.2695-6.2227 6.918-11.293 12.918-14.098 15.527-7.8398 30.359-16.984 44.332-27.344h16.219c24.777-0.12109 49.312-4.8867 72.336-14.047-31.145 36.051-69.164 65.535-111.84 86.727-3.2695 1.5352-6.8398 2.3281-10.449 2.3203-4.7695 0.003906-9.4375-1.3555-13.461-3.918-4.0234-2.5586-7.2305-6.2148-9.2461-10.535z" fill="#fff"/>
</svg>
