<?xml version="1.0" encoding="UTF-8"?>
<svg width="1200pt" height="1200pt" version="1.1" viewBox="0 0 1200 1200" xmlns="http://www.w3.org/2000/svg">
 <g>
  <path d="m573.6 754.8c8.3984-14.398 3.6016-33.602-12-42-14.398-8.3984-33.602-3.6016-42 12-9.6016 16.801-38.398 16.801-48 0-8.3984-14.398-27.602-20.398-42-12-14.398 8.3984-20.398 27.602-12 42 15.602 27.602 45.602 45.602 76.801 45.602 33.598-1.2031 63.598-18.004 79.199-45.602z"/>
  <path d="m770.4 712.8c-14.398-8.3984-33.602-3.6016-42 12-9.6016 16.801-38.398 16.801-48 0-8.3984-14.398-27.602-20.398-42-12-14.398 8.3984-20.398 27.602-12 42 15.602 27.602 45.602 45.602 76.801 45.602 32.398 0 61.199-16.801 78-45.602 8.4023-14.402 3.6016-33.602-10.801-42z"/>
  <path d="m600 463.2c-194.4 0-354 158.4-354 354 0 195.6 159.6 352.8 354 352.8s354-158.4 354-354-159.6-352.8-354-352.8zm0 637.2c-156 0-283.2-127.2-283.2-283.2s127.2-284.4 283.2-284.4 283.2 127.2 283.2 283.2-127.2 284.4-283.2 284.4z"/>
  <path d="m645.6 890.4h-91.199c-18 0-33.602 14.398-33.602 32.398s14.398 32.398 33.602 32.398h91.199c18 0 33.602-14.398 33.602-32.398-0.003906-16.797-15.602-32.398-33.602-32.398z"/>
  <path d="m582 373.2c4.8008 6 10.801 8.3984 18 8.3984s13.199-3.6016 18-8.3984l91.199-111.6c6-7.1992 7.1992-16.801 2.3984-25.199-3.6016-8.3984-12-13.199-20.398-13.199h-56.398v-158.4c0-19.199-15.602-34.801-34.801-34.801s-34.801 15.602-34.801 34.801v159.6h-56.398c-8.3984 0-16.801 4.8008-20.398 13.199-3.6016 8.3984-2.3984 18 2.3984 25.199z"/>
  <path d="m1155.6 260.4c-13.199-13.199-36-13.199-49.199 0l-112.8 112.8-39.602-39.602c-6-6-15.602-8.3984-24-6-8.3984 3.6016-14.398 10.801-15.602 19.199l-14.398 144c-1.1992 7.1992 1.1992 14.398 7.1992 19.199 4.8008 3.6016 10.801 6 16.801 6h2.3984l142.8-14.398c8.3984-1.1992 16.801-7.1992 19.199-15.602 2.3984-8.3984 1.1992-18-6-24l-38.398-39.602 112.8-112.8c13.199-13.199 13.199-35.996-1.1992-49.199z"/>
  <path d="m276 516c6 0 12-2.3984 16.801-7.1992s7.1992-12 7.1992-19.199l-14.398-141.6c-1.1992-8.3984-7.1992-16.801-15.602-19.199-8.3984-3.6016-18-1.1992-24 6l-39.602 39.602-112.8-112.8c-13.199-13.199-36-13.199-49.199 0-13.199 13.199-13.199 36 0 49.199l112.8 112.8-39.602 39.602c-6 6-8.3984 15.602-6 24 3.6016 8.3984 10.801 14.398 19.199 15.602l142.8 13.195h2.3984z"/>
 </g>
</svg>
