<?xml version="1.0" encoding="UTF-8"?>
<svg width="1200pt" height="1200pt" version="1.1" viewBox="0 0 1200 1200" xmlns="http://www.w3.org/2000/svg">
 <path d="m600.05 56.246c-134.55 0-256.16 22.688-345.74 60.609-44.789 18.961-81.672 41.715-108.21 68.371-26.543 26.656-42.918 58.238-42.918 92.211v645.27c0 12.055 2.125 23.785 5.9688 35.121 0.20703 0.625 0.37109 1.25 0.58594 1.8672 0.007813 0.027344 0.027344 0.046875 0.035157 0.070313 19.121 54.648 78.164 97.516 157.98 128.87 6.7656 2.6562 13.75 5.2031 20.836 7.6914 0.26172 0.09375 0.50781 0.19922 0.76953 0.28906 11.887 4.1523 24.215 8.0234 36.949 11.684 0.82812 0.24219 1.6602 0.49609 2.4922 0.73438 5.6953 1.6133 11.469 3.1758 17.32 4.6875 0.76562 0.19922 1.5391 0.39062 2.3086 0.58984 6.0469 1.543 12.176 3.0391 18.383 4.4688 0.52344 0.12109 1.0469 0.24609 1.5742 0.36719 13.617 3.1094 27.602 5.9453 41.93 8.4961 0.35156 0.0625 0.71094 0.12109 1.0625 0.18359 5.8047 1.0273 11.664 1.9961 17.578 2.9297 1.9727 0.3125 3.9453 0.61719 5.9336 0.91406 5.1445 0.77734 10.344 1.5273 15.562 2.2344 2.2852 0.3125 4.5508 0.61719 6.8477 0.91406 5.5938 0.71875 11.246 1.3789 16.918 2.0156 1.918 0.21094 3.8242 0.41797 5.75 0.625 4.3594 0.46094 8.7422 0.90625 13.148 1.3164 4.0898 0.38281 8.1758 0.75781 12.305 1.0977 2.5234 0.20703 5.0781 0.39844 7.6172 0.58984 4.8828 0.36719 9.7539 0.75391 14.684 1.0625 5.6211 0.34766 11.312 0.60937 16.992 0.87891 2.0547 0.097656 4.0898 0.24219 6.1523 0.33203 16.184 0.67188 32.566 1.0273 49.184 1.0273 24.586 0 48.727-0.76562 72.328-2.2344 11.586-0.72266 23.008-1.6875 34.312-2.7461 4.5938-0.43359 9.1875-0.83594 13.734-1.3164 1.5703-0.17188 3.1211-0.375 4.6875-0.55469 6.1211-0.67969 12.211-1.3828 18.238-2.1602 1.6914-0.21875 3.3672-0.43359 5.0547-0.66016 5.7773-0.77344 11.527-1.5898 17.211-2.4531 1.6289-0.24609 3.25-0.51172 4.8711-0.76953 6.4883-1.0195 12.906-2.0898 19.262-3.2227 0.023438-0.003906 0.050782 0.003907 0.070313 0 52.66-9.3789 100.8-22.594 142.57-39 88.113-34.613 150.91-83.266 162.63-146.3h-0.070313c1.207-6.4453 1.8672-12.98 1.8672-19.629v-645.28c0-6.2305-0.54687-12.402-1.6133-18.457-0.12891-1.0664-0.34766-2.1211-0.65625-3.1484-5.3086-25.746-19.824-49.691-40.652-70.605-26.543-26.656-63.426-49.414-108.21-68.371-89.574-37.922-211.07-60.609-345.63-60.609zm0 37.5c130.29 0 247.7 22.477 330.95 57.715 41.621 17.621 74.641 38.406 96.352 60.207 16.391 16.461 26.254 32.949 30.102 49.547-9.8164 40.395-58.809 83.367-138.76 114.77-82.324 32.336-194.7 52.59-318.64 52.59s-236.28-20.25-318.6-52.59c-80.168-31.492-129.2-74.609-138.83-115.1v-0.035156c3.9102-16.477 13.758-32.844 30.031-49.184 21.711-21.801 54.73-42.586 96.352-60.207 83.242-35.238 200.76-57.715 331.05-57.715zm-459.38 238.04c29.062 31.617 73.352 57.961 127.07 79.066 88.117 34.613 204.31 55.078 332.3 55.078 127.99 0 244.22-20.469 332.34-55.078 53.625-21.062 97.863-47.34 126.93-78.883v148.54c-0.46094 1.0156-0.82812 2.0703-1.0977 3.1484-7.7031 41.426-57.199 85.875-139.53 118.21-82.324 32.336-194.7 52.586-318.64 52.586s-236.28-20.25-318.6-52.586c-82.328-32.34-131.83-76.785-139.53-118.21-0.29297-1.2344-0.71094-2.4375-1.2461-3.5859zm106.75 139.42c-5.8906 0.027343-11.531 2.3711-15.695 6.5312-4.1641 4.1562-6.5117 9.7852-6.5312 15.66-0.019531 5.9023 2.3125 11.57 6.4805 15.758 4.168 4.1875 9.832 6.5547 15.746 6.582 5.9492 0.023437 11.66-2.3242 15.867-6.5156 4.207-4.1953 6.5625-9.8906 6.5469-15.824-0.023438-5.9062-2.3945-11.562-6.5977-15.727-4.2031-4.1602-9.8945-6.4883-15.816-6.4648zm-106.75 86.461c29.062 31.617 73.352 57.961 127.07 79.066 88.117 34.613 204.31 55.227 332.3 55.227 127.99 0 244.22-20.613 332.34-55.227 53.625-21.062 97.863-47.34 126.93-78.883v145.53c-1.1914 1.8867-2.0312 3.9727-2.4922 6.1562-7.7031 41.426-57.055 85.875-139.38 118.21-82.324 32.336-194.7 52.586-318.64 52.586-120.68 0-230.39-19.219-312.09-50.098-81.695-30.879-133.15-73.863-144.51-114.18h0.003906c-0.40625-1.1445-0.92188-2.25-1.5391-3.2969zm106.75 136.74v0.003906c-5.8906 0.023438-11.531 2.3711-15.695 6.5273s-6.5117 9.7891-6.5312 15.664c-0.019531 5.9023 2.3125 11.566 6.4805 15.758 4.168 4.1875 9.832 6.5547 15.746 6.582 5.9492 0.019531 11.66-2.3242 15.867-6.5195 4.207-4.1914 6.5625-9.8867 6.5469-15.82-0.023438-5.9102-2.3945-11.566-6.5977-15.727-4.2031-4.1641-9.8945-6.4883-15.816-6.4648zm811.89 88.074v140.22c0 6.3164-0.85937 12.594-2.5625 18.859-7.8711 27.828-34.172 56.719-76.207 82.105-0.55469 0.32422-1.0938 0.66016-1.6484 0.98828-2.125 1.2656-4.2812 2.5234-6.4805 3.7734-12.617 7.082-26.441 13.875-41.418 20.215-31.215 13.215-67.23 24.652-106.93 33.766-0.59375 0.13281-1.1953 0.26953-1.793 0.40234-6.043 1.3711-12.141 2.6914-18.348 3.9531-0.32031 0.066406-0.63672 0.12109-0.95313 0.18359-6.5117 1.3203-13.094 2.5781-19.777 3.7734-0.25391 0.046875-0.51172 0.097656-0.76953 0.14844-6.7578 1.2031-13.621 2.332-20.543 3.4062-0.4375 0.066406-0.87891 0.11328-1.3164 0.18359-5.6484 0.86719-11.352 1.6758-17.102 2.4531-1.7227 0.23438-3.4336 0.47656-5.1641 0.69531-6.1914 0.80469-12.445 1.5352-18.75 2.2344-0.75781 0.085937-1.5117 0.17578-2.2695 0.25391-6.5078 0.70703-13.082 1.3516-19.703 1.9414-1.125 0.097656-2.2383 0.23438-3.3711 0.33203-5.582 0.48047-11.23 0.88672-16.883 1.2812-2.3242 0.16406-4.625 0.32422-6.957 0.47656-5.6719 0.36328-11.402 0.67969-17.141 0.95312-1.6523 0.078125-3.2852 0.18359-4.9453 0.25391-15.844 0.67969-31.945 1.0273-48.23 1.0273-16.113 0-32-0.35547-47.68-1.0273-0.17188-0.007812-0.33984 0.007813-0.51172 0-7.4688-0.31641-14.875-0.73828-22.23-1.207-2.1016-0.13281-4.1719-0.29688-6.2617-0.4375-28.688-1.9922-56.488-5.0586-83.094-9.1211-1.8789-0.28516-3.7383-0.58203-5.6016-0.87891-5.375-0.85156-10.727-1.7422-16.004-2.6719-1.3125-0.23438-2.6133-0.46094-3.918-0.69531-5.6719-1.0273-11.262-2.1055-16.809-3.2227-1.4062-0.28516-2.8125-0.55469-4.2109-0.84375-4.9609-1.0234-9.8672-2.0938-14.723-3.1875-1.8984-0.42578-3.793-0.84375-5.6758-1.2812-38.672-9.0156-73.816-20.23-104.34-33.148-4.6484-1.9688-9.1562-3.957-13.586-6.0078-1.0938-0.51172-2.2148-1.0234-3.2969-1.5391-3.2852-1.5508-6.4727-3.168-9.6328-4.7617-58.906-29.926-94.164-66.516-100.56-100.92h-0.074219c-0.76953-4.2305-1.1719-8.457-1.1719-12.707v-137.62c30.297 32.383 76.516 59.055 132.75 80.309 87.223 32.969 200.75 52.441 325.38 52.441 127.99 0 244.22-20.613 332.34-55.223 54.391-21.363 99.137-48.023 128.18-80.129zm-811.89 146.74c-5.8906 0.027344-11.531 2.3711-15.695 6.5312-4.1641 4.1562-6.5117 9.7852-6.5312 15.66-0.019531 5.9023 2.3125 11.57 6.4805 15.758 4.168 4.1914 9.832 6.5586 15.746 6.582 5.9492 0.023438 11.66-2.3242 15.867-6.5156 4.207-4.1953 6.5625-9.8906 6.5469-15.824-0.023438-5.9062-2.3945-11.562-6.5977-15.727-4.2031-4.1602-9.8945-6.4883-15.816-6.4648z" fill="#fff" fill-rule="evenodd"/>
</svg>
