<?xml version="1.0" encoding="UTF-8"?>
<svg width="1200pt" height="1200pt" version="1.1" viewBox="0 0 1200 1200" xmlns="http://www.w3.org/2000/svg">
 <g>
  <path d="m1100.3 1064.4-62.16-36v24h-890.52v-890.52h24l-36-62.16-36 62.16h24v902.52c0 3.1836 1.2617 6.2383 3.5117 8.4883s5.3047 3.5117 8.4883 3.5117h902.4v24z"/>
  <path d="m217.32 1036.7c15.203 0.023437 29.707-6.3789 39.938-17.625 10.23-11.246 15.234-26.289 13.773-41.422-1.457-15.137-9.2422-28.945-21.43-38.031l129.6-252.96c4.3086 1.1484 8.7422 1.7539 13.199 1.8008 10.891-0.019531 21.516-3.332 30.488-9.5 8.9766-6.168 15.875-14.902 19.793-25.062l300 44.398v0.003906c1.2773 17.035 10.559 32.457 25.016 41.559 14.457 9.1055 32.375 10.816 48.289 4.6094 15.918-6.2109 27.949-19.598 32.422-36.086 4.4766-16.488 0.86719-34.121-9.7266-47.523l181.32-190.44c6.9609 3.2109 14.531 4.8906 22.199 4.9219 14.324 0 28.059-5.6914 38.184-15.816 10.129-10.129 15.816-23.863 15.816-38.184 0-14.32-5.6875-28.059-15.816-38.184-10.125-10.129-23.859-15.816-38.184-15.816-14.32 0-28.055 5.6875-38.184 15.816-10.125 10.125-15.816 23.863-15.816 38.184 0.15625 12.777 4.8828 25.082 13.32 34.68l-181.08 189.48c-7.4102-3.8984-15.633-5.9922-24-6.1211-10.98 0.042969-21.688 3.4297-30.691 9.7109s-15.879 15.16-19.711 25.449l-300-44.281c-1.332-18.043-11.629-34.215-27.418-43.051-15.789-8.8359-34.957-9.1562-51.035-0.85547-16.074 8.3008-26.914 24.117-28.852 42.105s5.2852 35.75 19.227 47.281l-129.96 254.04c-14.961-3.0391-30.512 0.39844-42.797 9.4609-12.285 9.0586-20.164 22.898-21.68 38.09-1.5195 15.191 3.4648 30.316 13.715 41.629 10.254 11.312 24.816 17.758 40.082 17.738zm825.48-645.36c7.957 0 15.586 3.1602 21.211 8.7852 5.6289 5.6289 8.7891 13.258 8.7891 21.215 0 7.957-3.1602 15.586-8.7891 21.215-5.625 5.625-13.254 8.7852-21.211 8.7852s-15.59-3.1602-21.215-8.7852c-5.625-5.6289-8.7852-13.258-8.7852-21.215 0-7.957 3.1602-15.586 8.7852-21.215 5.625-5.625 13.258-8.7852 21.215-8.7852zm-246.84 272.04c7.957 0 15.586 3.1602 21.211 8.7891 5.6289 5.625 8.7891 13.254 8.7891 21.211s-3.1602 15.586-8.7891 21.215c-5.625 5.625-13.254 8.7852-21.211 8.7852-7.957 0-15.59-3.1602-21.215-8.7852-5.625-5.6289-8.7852-13.258-8.7852-21.215s3.1602-15.586 8.7852-21.211c5.625-5.6289 13.258-8.7891 21.215-8.7891zm-403.56-58.918c7.957 0 15.59 3.1602 21.215 8.7852s8.7852 13.258 8.7852 21.215c0 7.957-3.1602 15.586-8.7852 21.211s-13.258 8.7891-21.215 8.7891c-7.9531 0-15.586-3.1641-21.211-8.7891s-8.7891-13.254-8.7891-21.211c0-7.957 3.1641-15.59 8.7891-21.215s13.258-8.7852 21.211-8.7852zm-175.08 348c7.957 0 15.586 3.1602 21.215 8.7852 5.625 5.625 8.7852 13.258 8.7852 21.215 0 7.957-3.1602 15.586-8.7852 21.211-5.6289 5.625-13.258 8.7891-21.215 8.7891-7.957 0-15.586-3.1641-21.215-8.7891-5.625-5.625-8.7852-13.254-8.7852-21.211 0.0625-7.918 3.25-15.484 8.8711-21.059 5.6172-5.5742 13.215-8.7031 21.129-8.7031z"/>
 </g>
</svg>
