<?xml version="1.0" encoding="UTF-8"?>
<svg width="1200pt" height="1200pt" version="1.1" viewBox="0 0 1200 1200" xmlns="http://www.w3.org/2000/svg">
 <g>
  <path d="m630.82 749.31c-43.137 0-78.234 34.875-78.234 77.754s35.098 77.754 78.234 77.754c43.137 0 78.223-34.875 78.223-77.754s-35.086-77.754-78.223-77.754zm0 131.51c-29.906 0-54.234-24.117-54.234-53.754s24.328-53.754 54.234-53.754c29.895 0 54.223 24.117 54.223 53.754s-24.328 53.754-54.223 53.754z"/>
  <path d="m875.98 786.6c-43.137 0-78.234 34.887-78.234 77.766 0 42.879 35.098 77.754 78.234 77.754 43.137 0 78.223-34.875 78.223-77.754 0-42.879-35.086-77.766-78.223-77.766zm0 131.52c-29.906 0-54.234-24.117-54.234-53.754 0-29.648 24.328-53.766 54.234-53.766 29.895 0 54.223 24.117 54.223 53.766 0 29.637-24.328 53.754-54.223 53.754z"/>
  <path d="m848.23 453.13v-145.22c23.273-8.7422 39.305-31.137 39.305-56.531 0-28.688-20.242-52.66-47.238-58.824v-41.84c0-16.934-13.84-30.715-30.855-30.715h-123.89c-17.016 0-30.855 13.781-30.855 30.715v41.84c-26.992 6.1641-47.238 30.141-47.238 58.824 0 25.395 16.043 47.789 39.316 56.531v145.22c-136.92 43.195-231.79 171.32-231.79 314.7 0 141.06 90.27 266.59 224.61 312.35 1.2422 0.43359 2.5547 0.64453 3.8672 0.64453h208.05c1.3125 0 2.625-0.21094 3.8672-0.64453 134.34-45.762 224.61-171.29 224.61-312.35 0-143.38-94.852-271.5-231.77-314.7zm-162.68-309.13h123.89c3.7852 0 6.8555 3.0117 6.8555 6.7148v40.195h-137.6v-40.195c0-3.7031 3.0703-6.7148 6.8555-6.7148zm-23.484 329.59c5.1562-1.4766 8.707-6.1875 8.707-11.543v-163.16c0-5.7422-4.0664-10.676-9.6914-11.777-17.168-3.3633-29.625-18.398-29.625-35.73 0-20.109 16.512-36.469 36.809-36.469h158.46c20.297 0 36.809 16.359 36.809 36.469 0 17.332-12.457 32.367-29.613 35.73-5.6367 1.1016-9.6914 6.0352-9.6914 11.777v163.16c0 5.3555 3.5508 10.066 8.707 11.543 97.109 27.727 172.44 101.16 205.18 192.4h-581.23c32.734-91.234 108.07-164.67 205.19-192.4zm187.45 583.23h-204.05c-123.59-42.984-206.48-158.87-206.48-289 0-26.703 3.6719-52.797 10.375-77.836h596.27c6.7031 25.039 10.375 51.133 10.375 77.836 0 130.12-82.898 246.01-206.48 289z"/>
  <path d="m321.98 120h-123.89c-17.016 0-30.855 13.781-30.855 30.715v42.328c-24.559 6.0664-43.648 25.715-46.758 50.66-3.5039 28.066 13.09 54.504 38.824 64.207v671.91c0 55.195 45.188 100.1 100.73 100.1 55.535 0 100.72-44.906 100.72-100.1v-671.91c25.734-9.7031 42.34-36.141 38.836-64.207-3.1094-24.949-22.199-44.598-46.758-50.66v-42.328c0-16.934-13.84-30.715-30.855-30.715zm-123.89 24h123.89c3.7852 0 6.8555 3.0117 6.8555 6.7148v40.195h-137.6v-40.195c0-3.7031 3.0703-6.7148 6.8555-6.7148zm61.945 911.92c-42.316 0-76.734-34.137-76.734-76.102v-579.09h153.46v579.09c0 41.965-34.418 76.102-76.723 76.102zm115.75-809.24c2.4023 19.301-10.207 36.68-29.332 40.43-5.625 1.1016-9.6914 6.0352-9.6914 11.777v77.836h-153.46v-77.836c0-5.7422-4.0664-10.676-9.6914-11.777-19.125-3.75-31.723-21.129-29.32-40.43 2.2266-17.812 19.207-31.77 38.672-31.77h154.15c19.465 0 36.445 13.957 38.672 31.77z"/>
 </g>
</svg>
