<?xml version="1.0" encoding="UTF-8"?>
<svg width="1200pt" height="1200pt" version="1.1" viewBox="0 0 1200 1200" xmlns="http://www.w3.org/2000/svg">
 <g>
  <path d="m923.14 743.53c67.754-72.266 104.93-166.07 104.93-265.33 0-214.08-173.98-388.25-387.82-388.25-213.84 0-387.83 174.17-387.83 388.25 0 12.07 0.61328 24.527 1.8008 37.078-20.652 41.797-52.199 103.91-67.668 134.33-5.3867 10.609-8.7461 17.258-9.0117 17.82-3.7305 8.3164-5.6172 17.242-5.6172 26.508 0 35.797 29.09 64.934 64.824 64.934h28.992l-0.26563 115.84c0 45.91 37.32 83.27 83.219 83.27l121.75-0.058594 41.438 139.25c1.3555 4.5977 4.5 8.4492 8.7344 10.727 2.6406 1.4141 5.5664 2.1484 8.5195 2.1484 1.7539 0 3.5156-0.25391 5.2422-0.76953l440.32-133.92c9.5039-2.8906 14.867-12.949 11.988-22.453zm-381.89 326.03-40.117-134.77c-2.2578-7.6328-9.2891-12.863-17.258-12.863h-0.011719l-135.18 0.070313c-26.027 0-47.207-21.215-47.207-47.23l0.3125-133.84c0.011719-4.7773-1.8711-9.3711-5.2578-12.758-3.3828-3.3828-7.9688-5.2812-12.758-5.2812h-47.039c-15.887 0-28.824-12.984-28.824-28.934 0-4.1641 0.82812-8.1367 2.2695-11.375 0.49219-1.0078 3.625-7.1523 8.4492-16.656 16.066-31.633 49.512-97.441 70.141-139.36 1.5-3.0586 2.1133-6.4805 1.7539-9.875-1.4023-13.055-2.125-26.004-2.125-38.473 0-194.24 157.82-352.25 351.82-352.25 193.99 0.003906 351.85 158 351.85 352.23 0 93.324-36.238 181.33-102 247.8-4.668 4.6914-6.3477 11.555-4.4414 17.879l61.391 202.25z"/>
  <path d="m870.31 476.5-48.312-12.852-27.168-41.988c-6.6367-10.273-23.605-10.262-30.238 0l-27.145 41.988-48.324 12.852c-5.9023 1.5703-10.609 6.0234-12.492 11.832-1.8828 5.7969-0.70703 12.18 3.168 16.906l31.535 38.785-2.7227 49.922c-0.33594 6.1094 2.4492 11.953 7.3906 15.551 4.9453 3.5898 11.363 4.4141 17.062 2.2305l46.645-18.012 46.656 18.012c2.1016 0.80469 4.2969 1.2109 6.4805 1.2109 3.7578 0 7.4648-1.1758 10.598-3.4336 4.9336-3.6016 7.7148-9.4453 7.3789-15.551l-2.7227-49.922 31.547-38.785c3.8516-4.7383 5.0391-11.113 3.168-16.906-1.8945-5.8164-6.5898-10.27-12.504-11.84zm-54.527 50.219c-2.8086 3.4688-4.2461 7.8594-4.0078 12.336l1.5977 29.062-27.168-10.488c-2.0898-0.80469-4.2852-1.2109-6.4922-1.2109-2.1953 0-4.3906 0.39453-6.4805 1.2109l-27.156 10.488 1.5703-29.062c0.25391-4.4766-1.1758-8.8672-4.0078-12.336l-18.348-22.586 28.129-7.4883c4.332-1.1523 8.0625-3.8633 10.5-7.6211l15.793-24.445 15.816 24.445c2.4258 3.7578 6.168 6.4688 10.488 7.6211l28.141 7.4883z"/>
  <path d="m596.93 476.5-48.324-12.852-27.156-41.988c-6.6367-10.262-23.605-10.262-30.238 0l-27.156 41.988-48.324 12.852c-5.9023 1.5703-10.609 6.0234-12.492 11.832-1.8828 5.7969-0.70703 12.18 3.168 16.906l31.547 38.785-2.7227 49.922c-0.32422 6.1094 2.4492 11.953 7.3789 15.551 3.1328 2.2578 6.8398 3.4336 10.598 3.4336 2.1836 0 4.3789-0.39453 6.4805-1.2109l46.645-18.012 46.656 18.012c5.6992 2.1836 12.121 1.3438 17.062-2.2305 4.9453-3.6016 7.7266-9.4453 7.3789-15.551l-2.7227-49.922 31.547-38.785c3.8633-4.7383 5.0508-11.113 3.168-16.906-1.8867-5.8008-6.5898-10.254-12.492-11.824zm-54.531 50.219c-2.8203 3.4688-4.2461 7.8594-4.0078 12.336l1.5859 29.062-27.168-10.488c-2.0898-0.80469-4.2852-1.2109-6.4805-1.2109s-4.3906 0.39453-6.4805 1.2109l-27.168 10.488 1.5977-29.062c0.23828-4.4766-1.1992-8.8672-4.0078-12.336l-18.371-22.586 28.141-7.4883c4.3203-1.1523 8.0625-3.8633 10.488-7.6211l15.805-24.445 15.805 24.445c2.4258 3.7578 6.168 6.4688 10.488 7.6211l28.141 7.4883z"/>
  <path d="m707.16 424.71c4.9453-3.6016 7.7383-9.4453 7.3906-15.551l-2.7344-49.934 31.547-38.785c3.8633-4.7383 5.0508-11.113 3.168-16.922-1.8828-5.7969-6.6016-10.262-12.492-11.82l-48.324-12.84-27.156-42c-6.6484-10.273-23.617-10.273-30.238 0l-27.156 42-48.324 12.828c-5.8906 1.5703-10.609 6.0352-12.492 11.832-1.8828 5.8086-0.70703 12.191 3.168 16.922l31.547 38.785-2.7227 49.945c-0.32422 6.0977 2.4492 11.941 7.3906 15.539 3.1211 2.2578 6.8281 3.4336 10.586 3.4336 2.1836 0 4.3789-0.39453 6.4805-1.2109l46.645-18.023 46.656 18.023c5.6758 2.207 12.117 1.3672 17.062-2.2227zm-30.07-41.387-27.168-10.5c-4.1641-1.6094-8.7852-1.6328-12.961 0l-27.168 10.5 1.5859-29.09c0.25391-4.4648-1.1875-8.8555-4.0078-12.324l-18.359-22.586 28.141-7.4648c4.3203-1.1641 8.0625-3.875 10.488-7.6328l15.805-24.457 15.805 24.457c2.4375 3.7578 6.168 6.4688 10.5 7.6211l28.129 7.4766-18.359 22.586c-2.8203 3.4688-4.2461 7.8594-4.0078 12.336z"/>
 </g>
</svg>
