<?xml version="1.0" encoding="UTF-8"?>
<svg width="1200pt" height="1200pt" version="1.1" viewBox="0 0 1200 1200" xmlns="http://www.w3.org/2000/svg">
 <g fill="#fff">
  <path d="m914.33 834.24h-125.33v-79.438c61.477-42.562 107.86-105.39 129.46-178.77h28.402c20.27 0 36.77-16.5 36.77-36.77v-75.625c0-18.504-13.789-33.707-31.609-36.254v-194.86c25.176-5.5195 44.113-27.938 44.113-54.742 0-30.938-25.176-56.113-56.113-56.113s-56.113 25.176-56.113 56.113c0 26.809 18.938 49.223 44.113 54.742v194.35h-0.94922c-26.688-155.72-162.55-274.62-325.76-274.62-163.2 0-299.06 118.89-325.75 274.61h-20.82c-20.27 0-36.758 16.5-36.758 36.77v75.625c0 20.27 16.488 36.77 36.758 36.77h29.438c21.805 74.102 68.867 137.47 131.24 180.05v78.156l-126.74-0.007813c-92.184 0-167.17 74.988-167.17 167.17v68.82c0 6.6367 5.3633 12 12 12h936c6.6367 0 12-5.3633 12-12v-68.82c0-92.172-74.988-167.16-167.17-167.16zm-54.457 24v199.99h-516.74v-199.99zm-565.05-372.02c1.8125-122.8 138.57-222.29 306.5-222.29 167.93 0 304.69 99.504 306.52 222.29-0.070313 6.2031-0.34766 12.348-0.78125 18.457-11.242 116.48-144.02 208.75-305.73 208.75-161.71 0-294.49-92.27-305.72-208.75-0.44531-6.1094-0.72266-12.25-0.78125-18.457zm664.81-22.57v75.625c0 7.043-5.7344 12.77-12.77 12.77h-22.285c3.1797-14.879 5.3047-30.121 6.4062-45.66 0.55078-5.8555 0.92578-11.734 0.92578-17.699 0-0.83984-0.070312-1.668-0.085938-2.4961 0.011719-1.1172 0.085938-2.207 0.085938-3.3242 0-10.801-0.5625-21.457-1.5703-31.992h16.512c7.043-0.003907 12.781 5.7344 12.781 12.777zm-51.723-285.88c0-17.711 14.398-32.113 32.113-32.113 17.711 0 32.113 14.398 32.113 32.113 0 17.711-14.398 32.113-32.113 32.113-17.711-0.003906-32.113-14.402-32.113-32.113zm-306.6-1.5117c123.41 0 229.95 73.332 278.52 178.67-58.801-69.086-161.64-115-278.52-115s-219.72 45.926-278.52 115.01c48.586-105.34 155.12-178.68 278.52-178.68zm-346.56 375.78c-7.0312 0-12.758-5.7344-12.758-12.77v-75.625c0-7.043 5.7344-12.77 12.758-12.77h17.555c-1.0195 10.535-1.5703 21.191-1.5703 31.992 0 1.1172 0.070312 2.207 0.085937 3.3242-0.011718 0.83984-0.085937 1.668-0.085937 2.4961 0 5.9531 0.38281 11.844 0.92578 17.699 1.0938 15.539 3.2266 30.781 6.4062 45.66l-23.316 0.003906zm82.203 85.824c60.371 60.422 156.39 99.562 264.36 99.562s204-39.145 264.37-99.562c-53.34 90.613-151.84 151.6-264.37 151.6-112.52 0-211.03-60.984-264.36-151.6zm102.48 133.08c47.879 27.012 103.09 42.516 161.88 42.516 59.531 0 115.39-15.898 163.69-43.547v64.32l-325.57-0.003907zm-293.93 230.46c0-78.938 64.234-143.17 143.17-143.17h30.457v199.99h-173.63zm912 56.832h-173.63v-199.99h30.457c78.938 0 143.17 64.234 143.17 143.17z"/>
  <path d="m363.5 457.27c0.23828-0.625 24.742-62.867 98.398-88.066 6.2773-2.1484 9.625-8.9648 7.4766-15.238-2.1602-6.2773-9.0117-9.6016-15.238-7.4766-84.758 28.992-111.98 99.336-113.11 102.31-2.3164 6.2031 0.80469 13.094 6.9961 15.422 1.3906 0.52734 2.8203 0.78125 4.2344 0.78125 4.8516 0.015626 9.4219-2.9375 11.246-7.7344z"/>
  <path d="m438.09 1008.7c27.852 0 50.52-22.668 50.52-50.52 0-27.852-22.668-50.52-50.52-50.52-27.852 0-50.52 22.668-50.52 50.52-0.003906 27.852 22.664 50.52 50.52 50.52zm0-77.027c14.629 0 26.52 11.891 26.52 26.52s-11.891 26.52-26.52 26.52c-14.629 0-26.52-11.891-26.52-26.52-0.003906-14.625 11.891-26.52 26.52-26.52z"/>
  <path d="m561.48 1008.7c27.852 0 50.52-22.668 50.52-50.52 0-27.852-22.668-50.52-50.52-50.52-27.852 0-50.52 22.668-50.52 50.52 0 27.852 22.668 50.52 50.52 50.52zm0-77.027c14.629 0 26.52 11.891 26.52 26.52s-11.891 26.52-26.52 26.52c-14.629 0-26.52-11.891-26.52-26.52 0-14.625 11.891-26.52 26.52-26.52z"/>
 </g>
</svg>
