<?xml version="1.0" encoding="UTF-8"?>
<svg width="1200pt" height="1200pt" version="1.1" viewBox="0 0 1200 1200" xmlns="http://www.w3.org/2000/svg">
 <g fill="#fff">
  <path d="m627.66 660c-2.5781 0-4.9219-0.9375-6.5625-2.8125l-29.766-29.766c-3.75-3.75-3.75-9.6094 0-13.359l79.219-79.922 281.48-283.36 2.3438-12.188 9.375-51.797c0.46875-2.3438 1.875-4.4531 3.75-5.8594l115.31-83.672c3.75-2.8125 8.9062-2.3438 12.188 0.9375l51.797 51.797c3.2812 3.2812 3.75 8.4375 0.9375 12.188l-41.484 57.656-41.484 58.125c-1.4062 1.875-3.5156 3.2812-5.8594 3.75l-51.562 10.078-12.422 2.3438-281.25 283.59-79.219 79.922c-1.875 1.4062-4.2188 2.3438-6.7969 2.3438zm-16.641-39.141 16.641 16.406 72.656-73.125 283.36-285.7c1.4062-1.4062 3.0469-2.3438 4.9219-2.5781l15.234-2.8125 48.047-9.375 76.172-106.41-40.547-40.547-105.94 77.109-11.484 63.281c-0.23438 1.875-1.1719 3.5156-2.5781 4.9219l-283.83 285.47z"/>
  <path d="m627.42 660.47c-2.3438 0-4.6875-0.9375-6.5625-2.5781l-17.109-16.875-78.516-77.109c-4.4531 9.375-9.1406 19.219-14.766 29.531-1.1719 2.3438-3.2812 3.9844-5.625 4.6875s-4.9219 0.46875-7.2656-0.70312l-3.9844-2.3438c-0.70312-0.46875-1.4062-0.9375-2.1094-1.6406l-33.984-34.219c-2.1094-2.1094-3.0469-5.1562-2.5781-8.2031s2.5781-5.625 5.3906-6.7969c1.4062-0.70312 3.0469-1.6406 4.6875-2.3438l0.23438-0.23438c0.70312-0.46875 1.4062-0.9375 2.3438-1.1719 1.875-0.9375 3.75-2.1094 5.3906-3.0469l0.23438-0.23438c3.2812-1.875 6.7969-3.9844 10.078-6.3281 0.23438 0 0.23438-0.23438 0.46875-0.23438 6.7969-4.2188 13.125-8.9062 19.922-14.531 0.23438-0.23438 0.23438-0.23438 0.46875-0.23438 2.3438-1.6406 4.6875-3.75 7.0312-5.8594l0.23438-0.23438c4.2188-3.75 7.9688-7.2656 11.25-10.547 3.5156-3.5156 6.3281-6.3281 8.6719-9.1406 11.484-12.891 21.328-26.484 29.766-40.781l1.1719-1.875c1.4062-2.5781 2.8125-4.6875 3.9844-7.2656 0.23438-0.23438 0.46875-0.70312 0.46875-0.9375 0 0 0.23438-0.23438 0.23438-0.46875s0.23438-0.46875 0.46875-0.70312c0.23438-0.46875 0.70312-1.1719 0.9375-1.6406 1.4062-2.8125 3.9844-4.6875 6.7969-5.1562 3.0469-0.46875 6.0938 0.46875 8.2031 2.5781l100.78 100.78c3.75 3.75 3.75 9.6094 0 13.125l-72.656 73.359 23.203 23.203c3.5156 3.5156 3.75 9.375 0.23438 13.125l-0.23438 0.23438c-2.3438 1.6406-4.6875 2.5781-7.2656 2.8125zm-105.23-122.11c2.3438 0 4.6875 0.9375 6.5625 2.5781l68.438 67.266 66.562-67.266-85.312-85.312c-0.23438 0.23438-0.23438 0.46875-0.46875 0.70312l-1.1719 2.1094c-8.9062 15.469-19.688 30-31.875 43.828-2.5781 2.8125-5.625 6.0938-9.375 9.8438-3.5156 3.5156-7.5 7.2656-11.953 11.25-2.8125 2.5781-5.625 4.9219-8.4375 7.0312-7.0312 5.8594-14.062 11.016-21.328 15.703-3.75 2.8125-7.7344 4.9219-11.25 7.0312-0.9375 0.70312-2.1094 1.1719-3.0469 1.875l19.453 19.688c5.3906-10.781 10.312-20.859 14.531-30.703 1.1719-2.8125 3.75-4.9219 6.7969-5.3906 0.70312-0.23438 1.1719-0.23438 1.875-0.23438z"/>
  <path d="m1060.5 1124.1c-25.078 0-48.75-9.8438-66.562-27.891l-342.42-341.72c-2.1094-2.1094-3.0469-5.1562-2.8125-7.9688 0.46875-2.8125 2.1094-5.625 4.6875-7.0312 10.078-5.625 20.859-11.25 32.344-16.641l-64.922-63.75c-3.75-3.5156-3.75-9.375-0.23438-13.125l0.46875-0.46875 79.219-79.922c1.6406-1.875 4.2188-2.8125 6.5625-2.8125 2.5781 0 4.9219 0.9375 6.5625 2.8125l405.94 404.77c36.094 36.094 37.266 93.516 2.8125 128.2-16.172 16.641-37.969 25.547-61.641 25.547zm-386.95-374.06 333.75 332.81c14.531 14.531 33.281 22.5 53.438 22.5 18.516 0 35.859-7.0312 48.516-19.688 27.188-27.422 26.016-73.125-2.8125-101.72l-399.61-398.44-66.328 66.797 67.734 66.562c2.1094 2.1094 3.2812 5.1562 2.5781 8.2031-0.46875 3.0469-2.5781 5.625-5.3906 7.0312-11.25 5.3906-21.797 10.547-31.875 15.938zm383.44 316.41c-8.6719 0-16.875-3.5156-23.203-9.6094-12.891-12.891-12.891-33.281 0-46.406 12.891-12.656 33.516-12.656 46.172 0 12.656 12.891 12.656 33.516 0 46.406-6.0938 6.0938-14.297 9.6094-22.969 9.6094zm-0.23438-46.875c-3.5156 0-7.0312 1.4062-9.8438 3.9844-5.3906 5.625-5.3906 14.297 0 19.688 2.5781 2.5781 6.0938 4.2188 9.8438 4.2188s7.0312-1.4062 9.6094-3.9844c5.3906-5.3906 5.3906-14.297 0-19.922-2.3438-2.5781-5.8594-3.9844-9.6094-3.9844z"/>
  <path d="m230.62 1170c-37.734 0-77.109-13.359-107.58-36.797-0.70312-0.46875-1.1719-0.9375-1.6406-1.6406-30.938-38.672-45.234-92.578-36.562-136.88 6.0938-31.641 23.203-56.25 49.219-70.781 172.5-96.562 290.39-207.42 359.77-338.91 7.7344-14.531 14.062-27.891 19.688-40.781 1.1719-2.8125 3.75-4.9219 6.7969-5.3906s6.0938 0.23438 8.4375 2.5781l88.125 86.484 17.109 16.641 74.531 73.125c2.1094 2.1094 3.2812 5.1562 2.5781 8.2031s-2.5781 5.625-5.3906 7.0312c-15.938 7.5-30.234 14.531-43.359 22.031-132.89 73.594-241.41 191.95-332.11 361.41-18.281 33.984-54.609 53.672-99.609 53.672zm-95.391-51.094c26.953 20.156 62.344 32.344 95.391 32.344 22.266 0 62.578-5.625 83.203-44.062 92.344-172.73 203.44-293.44 339.61-368.91 10.078-5.625 20.859-11.25 32.344-16.641l-64.922-63.75-17.109-16.641-78.516-77.109c-4.4531 9.375-9.1406 19.219-14.766 29.531-71.25 134.77-191.25 248.2-367.27 346.41-26.719 15-36.562 39.844-40.078 58.125-7.5 38.906 5.1562 86.016 32.109 120.7z"/>
  <path d="m345.23 590.16c-77.109 0-150.47-30.703-206.25-86.484-39.141-38.906-66.562-87.422-79.219-140.39-12.422-51.562-10.078-104.53 6.0938-153.52 0.9375-3.0469 3.5156-5.3906 6.7969-6.0938 3.0469-0.70312 6.5625 0.23438 8.6719 2.3438l153.05 151.41 125.62-20.156 19.922-127.5-151.41-150.94c-2.3438-2.3438-3.2812-5.625-2.5781-8.6719s3.0469-5.625 6.0938-6.7969c28.125-9.375 57.656-14.297 87.891-14.297 77.109 0 150.23 30.703 206.25 86.484 44.531 44.297 73.125 99.844 83.203 160.55 9.6094 58.828 0.46875 119.53-26.25 170.86-0.23438 0.46875-0.46875 1.1719-0.9375 1.875-1.6406 3.0469-3.2812 6.3281-5.3906 9.8438-8.9062 15.234-19.453 30-31.875 43.594-2.5781 2.8125-5.625 6.0938-9.375 9.8438-3.5156 3.5156-7.5 7.2656-12.188 11.25-2.5781 2.3438-5.3906 4.6875-8.2031 7.0312-6.3281 5.3906-13.828 10.547-21.562 15.703-3.2812 2.3438-7.0312 4.6875-11.016 7.0312-2.8125 1.6406-5.625 3.2812-8.9062 4.9219l-2.8125 1.4062c-0.9375 0.46875-1.6406 0.9375-2.5781 1.4062 0 0-0.23438 0-0.23438 0.23438-37.266 18.984-79.688 29.062-122.81 29.062zm-265.78-360c-24.141 90.469 3.5156 191.02 72.891 260.16 52.266 52.266 120.94 81.094 193.12 81.094 40.078 0 79.453-9.375 114.38-26.953 0.9375-0.46875 1.875-0.9375 3.0469-1.4062 0.70312-0.46875 1.6406-0.70312 2.3438-1.1719 0 0 0.23438 0 0.23438-0.23438 2.8125-1.4062 5.1562-2.8125 7.5-4.2188l0.23438-0.23438c3.75-2.1094 7.0312-4.2188 10.312-6.3281 7.5-4.6875 14.062-9.6094 20.156-14.766 2.8125-2.1094 5.3906-4.2188 7.7344-6.3281 4.2188-3.75 7.9688-7.2656 11.25-10.547 3.5156-3.5156 6.3281-6.3281 8.6719-9.1406 11.484-12.891 21.328-26.484 29.766-40.781 2.1094-3.5156 3.75-6.3281 5.1562-9.1406 0.23438-0.23438 0.46875-0.70312 0.46875-0.9375 0 0 0.23438-0.23438 0.23438-0.46875 52.266-101.25 30.703-225.7-53.438-309.84-52.266-52.266-120.94-81.094-193.12-81.094-22.969 0-45.469 3.0469-67.031 8.9062l143.91 143.2c2.1094 2.1094 3.0469 5.1562 2.5781 8.2031l-21.797 138.75c-0.70312 3.9844-3.75 7.2656-7.7344 7.7344l-137.11 22.031c-3.0469 0.46875-5.8594-0.46875-7.9688-2.5781z"/>
  <path d="m464.06 562.03c-3.5156 0-6.7969-1.875-8.4375-5.1562-2.3438-4.4531-0.46875-10.078 3.9844-12.422 0.9375-0.46875 2.1094-1.1719 3.0469-1.6406 0.70312-0.46875 1.6406-0.70312 2.3438-1.1719 4.4531-2.3438 10.312-0.70312 12.656 3.75 0.70312 1.4062 1.1719 3.0469 1.1719 4.4531 0 3.2812-1.875 6.5625-4.9219 8.2031l-0.23438 0.23438c-1.875 0.9375-3.75 2.1094-5.8594 3.0469-1.1719 0.46875-2.5781 0.70312-3.75 0.70312z"/>
  <path d="m568.83 463.36c-1.6406 0-3.2812-0.46875-4.6875-1.4062-4.4531-2.5781-5.8594-8.4375-3.2812-12.891 2.1094-3.5156 3.75-6.3281 4.9219-9.1406 2.3438-4.6875 7.9688-6.5625 12.656-4.2188s6.5625 7.9688 4.2188 12.656c-1.6406 3.2812-3.5156 6.5625-5.625 10.312-1.875 3.0469-4.9219 4.6875-8.2031 4.6875z"/>
  <path d="m528.98 515.16c-2.3438 0-4.6875-0.9375-6.5625-2.8125-3.75-3.75-3.75-9.6094 0-13.359 3.5156-3.5156 6.3281-6.3281 8.6719-9.1406 3.2812-3.9844 9.375-4.2188 13.125-0.9375 3.9844 3.2812 4.2188 9.375 0.9375 13.125-2.5781 3.0469-5.625 6.3281-9.375 10.078-1.875 2.1094-4.2188 3.0469-6.7969 3.0469z"/>
  <path d="m344.77 589.92c-15.469 0-30.938-1.1719-46.406-3.75-60.234-10.078-115.31-38.672-159.38-82.734-39.141-38.906-66.562-87.422-79.219-140.39-12.422-51.562-10.078-104.53 6.0938-153.52 0.9375-3.0469 3.5156-5.3906 6.7969-6.0938 3.0469-0.70312 6.5625 0.23438 8.6719 2.3438l153.05 151.41 125.62-20.156 19.922-127.5-151.41-150.7c-2.3438-2.3438-3.2812-5.625-2.5781-8.6719s3.0469-5.625 6.0938-6.7969c48.984-16.406 101.95-18.75 153.52-6.5625 52.734 12.422 101.48 39.844 140.62 78.75 44.531 44.297 73.125 99.844 83.203 160.55 9.6094 58.828 0.46875 119.53-26.25 170.86-2.3438 4.6875-7.9688 6.3281-12.656 3.9844s-6.3281-7.9688-3.9844-12.656c52.266-101.02 30.703-225.47-53.672-309.61-69.141-69.141-169.69-96.562-260.16-72.188l143.91 143.2c2.1094 2.1094 3.0469 5.1562 2.5781 8.2031l-21.797 138.75c-0.70312 3.9844-3.75 7.2656-7.7344 7.7344l-137.11 22.031c-3.0469 0.46875-5.8594-0.46875-7.9688-2.5781l-145.31-143.91c-24.141 90.469 3.5156 191.02 72.891 260.16 83.438 83.203 206.95 105 307.5 54.141 0 0 0.23438 0 0.23438-0.23438 1.4062-0.70312 3.0469-1.6406 4.6875-2.3438l0.23438-0.23438s0.23438 0 0.23438-0.23438c2.8125-1.4062 5.1562-2.8125 7.5-4.2188l0.23438-0.23438c3.75-2.1094 7.0312-4.2188 10.312-6.3281 7.5-4.6875 14.062-9.6094 20.156-14.766 2.8125-2.1094 5.3906-4.2188 7.7344-6.3281 3.9844-3.5156 9.8438-3.0469 13.125 0.70312 3.5156 3.75 3.0469 9.8438-0.70312 13.125-2.5781 2.3438-5.3906 4.6875-8.2031 7.0312-6.3281 5.3906-13.828 10.547-21.562 15.703-3.2812 2.3438-7.0312 4.6875-11.016 7.0312-2.8125 1.6406-5.625 3.2812-8.9062 4.9219h-0.23438l-5.625 2.8125c-37.266 19.453-79.922 29.297-123.05 29.297z"/>
  <path d="m498.05 596.25c-2.3438 0-4.9219-0.9375-6.5625-2.8125l-33.984-34.219c-2.1094-2.1094-3.0469-5.1562-2.5781-7.9688s2.1094-5.3906 4.9219-6.7969c0.9375-0.46875 2.1094-1.1719 3.0469-1.6406 0.70312-0.46875 1.6406-0.70312 2.3438-1.1719s1.4062-0.9375 2.3438-1.1719c1.875-0.9375 3.75-2.1094 5.3906-3.0469l0.23438-0.23438c3.2812-1.875 6.7969-3.9844 10.078-6.3281 0.23438 0 0.23438-0.23438 0.46875-0.23438 6.7969-4.2188 13.125-8.9062 19.922-14.531 0.23438-0.23438 0.23438-0.23438 0.46875-0.23438 2.3438-1.6406 4.6875-3.75 7.0312-5.8594l0.23438-0.23438c4.2188-3.75 7.9688-7.2656 11.25-10.547 3.5156-3.5156 6.3281-6.3281 8.6719-9.1406 11.484-12.891 21.328-26.484 29.766-40.781l1.1719-1.875c1.4062-2.5781 2.8125-4.6875 3.9844-7.2656 0.23438-0.23438 0.46875-0.70312 0.46875-0.9375 0 0 0.23438-0.23438 0.23438-0.46875s0.23438-0.46875 0.46875-0.70312c0.23438-0.46875 0.70312-1.1719 0.9375-1.6406 1.4062-2.8125 3.9844-4.6875 6.7969-5.1562 3.0469-0.46875 6.0938 0.46875 8.2031 2.5781l100.78 100.55c3.5156 3.5156 3.75 9.375 0.23438 13.125s-9.375 3.9844-13.125 0.46875l-92.344-92.344c-0.23438 0.23438-0.23438 0.46875-0.46875 0.70312l-1.1719 2.1094c-8.9062 15.469-19.688 30-31.875 43.828-2.5781 2.8125-5.625 6.0938-9.375 9.8438-3.5156 3.5156-7.5 7.2656-11.953 11.25-2.8125 2.5781-5.625 4.9219-8.4375 7.0312-7.0312 5.8594-14.062 11.016-21.328 15.703-3.75 2.8125-7.7344 4.9219-11.25 7.0312-0.9375 0.70312-2.1094 1.1719-3.0469 1.875l25.078 25.312c3.75 3.75 3.75 9.6094 0 13.359-2.1094 1.6406-4.6875 2.5781-7.0312 2.5781z"/>
  <path d="m1060.5 1122.7c-25.078 0-48.75-9.8438-66.562-27.891l-342.42-341.72c-3.75-3.75-3.75-9.6094 0-13.359s9.6094-3.75 13.359 0l342.42 341.72c14.297 14.531 33.281 22.5 53.438 22.5 18.516 0 35.859-7.0312 48.516-19.688 27.188-27.422 26.016-73.125-2.8125-101.72l-406.17-405c-3.75-3.75-3.75-9.6094 0-13.359s9.6094-3.75 13.359 0l405.94 404.77c36.094 36.094 37.266 93.516 2.8125 128.2-16.406 16.641-38.203 25.547-61.875 25.547z"/>
  <path d="m1057 1065c-8.6719 0-16.875-3.5156-23.203-9.6094-12.891-12.891-12.891-33.281 0-46.406 6.3281-6.0938 14.531-9.6094 23.203-9.6094s16.875 3.2812 22.969 9.375c12.656 12.891 12.656 33.75 0 46.406-6.0938 6.3281-14.297 9.8438-22.969 9.8438zm-0.23438-46.875c-3.75 0-7.2656 1.4062-9.8438 3.9844-5.3906 5.625-5.3906 14.297 0 19.688 2.5781 2.5781 6.0938 4.2188 9.8438 4.2188s7.2656-1.4062 9.8438-3.9844c5.3906-5.3906 5.3906-14.297 0-19.922-2.5781-2.3438-6.0938-3.9844-9.8438-3.9844z"/>
  <path d="m230.62 1170c-37.734 0-77.109-13.359-107.58-36.797-0.70312-0.46875-1.1719-0.9375-1.6406-1.6406-30.938-38.672-45.234-92.578-36.562-136.88 6.0938-31.641 23.203-56.25 49.219-70.781 172.5-96.562 290.39-207.42 359.77-338.91 7.7344-14.531 14.062-27.891 19.688-40.781 1.1719-2.8125 3.75-4.9219 6.7969-5.3906s6.0938 0.23438 8.4375 2.5781l88.125 86.484 17.109 16.641 74.531 73.125c2.1094 2.1094 3.2812 5.1562 2.5781 8.2031s-2.5781 5.625-5.3906 7.0312c-15.938 7.5-30.234 14.531-43.359 22.031-132.89 73.594-241.41 191.95-332.11 361.41-18.281 33.984-54.609 53.672-99.609 53.672zm-95.391-51.094c26.953 20.156 62.344 32.344 95.391 32.344 22.266 0 62.578-5.625 83.203-44.062 92.344-172.73 203.44-293.44 339.61-368.91 10.078-5.625 20.859-11.25 32.344-16.641l-64.922-63.75-17.109-16.641-78.516-77.109c-4.4531 9.375-9.1406 19.219-14.766 29.531-71.25 134.77-191.25 247.97-367.27 346.41-26.719 15-36.562 39.844-40.078 58.125-7.5 38.906 5.1562 86.016 32.109 120.7z"/>
  <path d="m627.66 660c-2.5781 0-4.9219-0.9375-6.5625-2.8125l-29.766-29.766c-3.75-3.75-3.75-9.6094 0-13.359l79.219-79.922 281.48-283.36 2.3438-12.188 9.375-51.797c0.46875-2.3438 1.875-4.4531 3.75-5.8594l115.31-83.672c3.75-2.8125 8.9062-2.3438 12.188 0.9375l51.797 51.797c3.2812 3.2812 3.75 8.4375 0.9375 12.188l-41.484 57.656-41.484 58.125c-1.4062 1.875-3.5156 3.2812-5.8594 3.75l-51.562 10.078-12.422 2.3438-281.25 283.59-79.219 79.922c-1.875 1.4062-4.2188 2.3438-6.7969 2.3438zm-16.641-39.141 16.641 16.406 72.656-73.125 283.36-285.7c1.4062-1.4062 3.0469-2.3438 4.9219-2.5781l15.234-2.8125 48.047-9.375 76.172-106.41-40.547-40.547-105.94 77.109-11.484 63.281c-0.23438 1.875-1.1719 3.5156-2.5781 4.9219l-283.83 285.47z"/>
 </g>
</svg>
