<?xml version="1.0" encoding="UTF-8"?>
<svg width="1200pt" height="1200pt" version="1.1" viewBox="0 0 1200 1200" xmlns="http://www.w3.org/2000/svg">
 <g fill="#fff">
  <path d="m300 1080h600c6.6289 0 12-5.3711 12-12v-936c0-6.6289-5.3711-12-12-12h-600c-6.6289 0-12 5.3711-12 12v936c0 6.6289 5.3711 12 12 12zm399.82-24h-199.63v-295.24h199.63zm-387.82-912h576v912h-164.18v-307.24c0-6.6289-5.3711-12-12-12h-223.63c-6.6289 0-12 5.3711-12 12v307.24h-164.18z"/>
  <path d="m413.84 412.62h128.75c6.6289 0 12-5.3711 12-12v-162.64c0-6.6289-5.3711-12-12-12h-128.75c-6.6289 0-12 5.3711-12 12v162.64c0 6.6211 5.3711 11.996 12 11.996zm12-162.64h104.75v138.64h-104.75z"/>
  <path d="m542.59 668c6.6289 0 12-5.3711 12-12v-162.64c0-6.6289-5.3711-12-12-12h-128.75c-6.6289 0-12 5.3711-12 12v162.64c0 6.6289 5.3711 12 12 12zm-116.75-162.64h104.75v138.64h-104.75z"/>
  <path d="m657.41 412.62h128.75c6.6289 0 12-5.3711 12-12v-162.64c0-6.6289-5.3711-12-12-12h-128.75c-6.6289 0-12 5.3711-12 12v162.64c0 6.6211 5.375 11.996 12 11.996zm12-162.64h104.75v138.64h-104.75z"/>
  <path d="m657.41 668h128.75c6.6289 0 12-5.3711 12-12v-162.64c0-6.6289-5.3711-12-12-12h-128.75c-6.6289 0-12 5.3711-12 12v162.64c0 6.6289 5.375 12 12 12zm12-162.64h104.75v138.64h-104.75z"/>
 </g>
</svg>
