<?xml version="1.0" encoding="UTF-8"?>
<svg width="1200pt" height="1200pt" version="1.1" viewBox="0 0 1200 1200" xmlns="http://www.w3.org/2000/svg">
 <g fill="#fff">
  <path d="m1158.1 311.39-439.4-172.5-439.36 172.38 218.02 76.824v254.12h442.69v-254.04l76.523-26.949v136.55h-25.363v144.46h69.449l0.003906-144.48h-25.336v-143.14zm-236.8 312.09h-405.19v-228.78l202.6 71.398 202.6-71.301-0.003906 228.68zm120.6-106.96v106.96h-31.949v-106.96zm-16.863-178.15-279.07-44.023c-3.5625-11.738-14.363-20.387-27.262-20.387-15.773 0-28.613 12.836-28.613 28.613 0 15.773 12.836 28.602 28.613 28.602 12.012 0 22.273-7.4609 26.512-17.961l242.6 38.273-269.11 94.75-221.35-78.039v0.023438l-164.27-57.898 385.62-151.29 385.66 151.4zm-296.48-35.801c0 5.4375-4.4258 9.8516-9.8633 9.8516s-9.8633-4.4258-9.8633-9.8516c0-5.4492 4.4258-9.8633 9.8633-9.8633 5.4414 0 9.8633 4.4258 9.8633 9.8633z"/>
  <path d="m800.95 785.59c-4.1992-0.33594-423.36-35.762-635.62-243.99l-4.125-4.0391-5.4609 1.8516c-1.1758 0.38672-116.89 41.488-93.137 188.3l1.2734 7.8633 7.9766 0.011719c1.0508 0 69.438 1.4609 233.85 73.961l-33.711 19.574 9.4141 16.211 45.387-26.352c1.9141 0.86328 3.9492 1.8242 5.8867 2.7266l-15.426 62.949 18.211 4.4609 14.535-59.355c90.414 42.523 205.35 104.25 348.54 193.9v0.011719c24.551 22.727 57.289 36.75 93.301 36.75 75.898 0 137.65-61.75 137.65-137.66 0.011719-72.832-56.887-132.46-128.54-137.17zm-473.19 13.027c-147.94-66.863-223.95-79.102-247.74-81.289-14.363-109.45 56.262-149.05 76.574-158.07 61.676 59.074 139.41 104.27 219.34 138.76-17.895 15.777-47.996 49.852-48.172 100.6zm19.152 8.7734c-4.1641-56.988 36.227-91.949 48.613-101.21 131.49 53.727 265.6 79.289 341.45 90.426-48.648 21.238-82.773 69.762-82.773 126.16 0 21.551 5.125 41.887 13.988 60.062-131.08-80.305-237.03-136.32-321.28-175.44zm444.94 234.29c-65.562 0-118.9-53.352-118.9-118.91s53.336-118.9 118.9-118.9c2.4141 0 4.7734 0.22656 7.1484 0.36328 0.11328 0 0.4375 0.039063 0.47656 0.039063v-0.011719c62 3.9492 111.27 55.512 111.27 118.5 0 65.57-53.336 118.92-118.9 118.92z"/>
  <path d="m791.85 836.84c-47.387 0-85.926 38.551-85.926 85.926s38.539 85.926 85.926 85.926c47.387 0 85.926-38.551 85.926-85.926-0.003906-47.375-38.539-85.926-85.926-85.926zm0 153.1c-37.039 0-67.176-30.137-67.176-67.176 0-37.039 30.137-67.176 67.176-67.176 37.039 0 67.176 30.137 67.176 67.176-0.003906 37.039-30.129 67.176-67.176 67.176z"/>
 </g>
</svg>
