<?xml version="1.0" encoding="UTF-8"?>
<svg width="1200pt" height="1200pt" version="1.1" viewBox="0 0 1200 1200" xmlns="http://www.w3.org/2000/svg">
 <path d="m373.2 945.36c0.12109 0.12109 0.35938 0 0.48047 0.12109 1.3203 0.71875 2.7617 1.1992 4.3203 1.1992 0.48047 0 0.83984-0.23828 1.3203-0.23828 0.71875-0.12109 1.4414-0.12109 2.1602-0.48047 0.60156-0.23828 0.96094-0.60156 1.4414-0.83984 0.35938-0.23828 0.83984-0.35938 1.0781-0.60156l38.281-21.961v50.879c0 3.3594 1.8008 6.6016 4.8008 8.2812l168.12 97.078c0.12109 0.12109 0.35938 0 0.48047 0.12109 1.3203 0.71875 2.7617 1.1992 4.3203 1.1992s3.1211-0.48047 4.4414-1.1992c0.12109 0 0.23828 0 0.35938-0.12109l168.24-97.078c3-1.6797 4.8008-4.8008 4.8008-8.2812v-50.879l39.602 22.801c0.12109 0 0.23828 0 0.35938 0.12109 1.3203 0.71875 2.7617 1.1992 4.4414 1.1992 1.6797 0 3.1211-0.48047 4.4414-1.1992 0.12109 0 0.23828 0 0.35938-0.12109l168.12-97.078c3-1.6797 4.8008-4.8008 4.8008-8.2812l-0.007812-194.04c0-0.12109-0.12109-0.23828-0.12109-0.48047-0.12109-1.4414-0.35938-2.8789-1.1992-4.3203-0.83984-1.3203-1.9219-2.3984-3.1211-3.1211-0.12109-0.12109-0.23828-0.23828-0.35938-0.35937l-59.641-34.559 59.641-34.441c3-1.6797 4.8008-4.8008 4.8008-8.2812v-194.16c0-0.23828-0.12109-0.35938-0.12109-0.48047-0.12109-1.0781-0.35938-2.1602-0.83984-3.1211-0.35938-0.83984-0.83984-1.4414-1.4414-2.1602-0.60156-0.71875-1.0781-1.3203-1.8008-1.8008-0.23828-0.12109-0.35937-0.48047-0.60156-0.60156l-168.36-97.074c-2.8789-1.6797-6.6016-1.6797-9.4805 0l-39.602 22.801v-57.48c0-0.12109-0.12109-0.23828-0.12109-0.35937-0.12109-1.4414-0.35938-2.8789-1.0781-4.1992-0.12109-0.23828-0.35938-0.48047-0.60156-0.71875-0.71875-0.96094-1.5586-1.8008-2.5195-2.5195-0.23828-0.12109-0.23828-0.35938-0.48047-0.48047l-168.12-96.723c-2.8789-1.6797-6.6016-1.6797-9.4805 0l-168.12 96.961c-0.23828 0.12109-0.35938 0.48047-0.60156 0.60156-0.60156 0.35938-0.96094 0.96094-1.4414 1.4414-0.83984 0.96094-1.4414 1.9219-1.9219 3.2383-0.23828 0.71875-0.60156 1.4414-0.60156 2.2812 0 0.23828-0.23828 0.48047-0.23828 0.71875v57.48l-39.602-22.801c-2.8789-1.6797-6.6016-1.6797-9.4805 0l-168.12 96.961c-0.23828 0.12109-0.35938 0.48047-0.71875 0.71875s-0.48047 0.60156-0.83984 0.83984c-1.4414 1.3203-2.2812 2.8789-2.7617 4.6797-0.12109 0.35938-0.23828 0.83984-0.35938 1.1992 0 0.35938-0.23828 0.60156-0.23828 0.83984v194.28c0 3.3594 1.8008 6.6016 4.8008 8.2812l59.641 34.441-58.441 33.961c-0.35938 0.12109-0.48047 0.48047-0.83984 0.60156-0.83984 0.48047-1.5586 1.0781-2.2812 1.8008-0.48047 0.48047-0.96094 0.96094-1.4414 1.5586-0.71875 1.1992-1.0781 2.5195-1.1992 3.8398 0 0.35938-0.23828 0.60156-0.23828 0.96094l0.007812 193.79c0 3.3594 1.8008 6.6016 4.8008 8.2812zm54.359-174.36c-1.0781 0.60156-2.0391 1.3203-2.8789 2.2812-0.35938 0.35938-0.71875 0.60156-0.96094 1.0781l-0.12109 0.12109c-0.71875 1.3203-1.0781 2.6406-1.1992 4.0781 0 0.23828-0.23828 0.48047-0.23828 0.71875v121.32l-34.68 19.922v-171.84l60.121-34.801 39.121 22.559-58.68 33.961c-0.12109 0.24219-0.24219 0.48047-0.48438 0.60156zm350.04-271.92c-0.12109-1.3203-0.35937-2.6406-1.0781-3.8398-0.12109-0.23828-0.35938-0.48047-0.48047-0.71875-0.71875-1.0781-1.6797-2.0391-2.7617-2.7617-0.12109-0.12109-0.23828-0.35937-0.35938-0.35937l-109.56-63.238-0.003906-45.359 149.16 86.16v172.2l-34.801-20.039v-121.56c0-0.11719-0.11719-0.23828-0.11719-0.48047zm-28.441 0.48047-94.441 54.48c-0.35938 0.12109-0.71875 0.35938-0.96094 0.60156l-53.762 30.961-149.16-86.16 149.16-85.922zm9.4805 16.562v172.2l-69.961 40.441c-0.12109 0.12109-0.23828 0.12109-0.35938 0.23828l-78.719 45.48v-172.32zm-222-87.961-109.44 63.238c-0.23828 0.12109-0.23828 0.35937-0.48047 0.48047-0.96094 0.60156-1.6797 1.4414-2.3984 2.3984-0.35937 0.48047-0.71875 1.0781-0.96094 1.5586-0.48047 1.0781-0.83984 2.1602-0.83984 3.2383 0 0.23828-0.12109 0.35938-0.12109 0.60156v6.3594 0.23828 114.84l-34.68 19.922v-172.07l149.04-86.039 0.003907 45.238zm-95.281 87.961 149.16 86.16v0.83984 0.23828 171l-149.04-86.039v-172.2zm149.16 537.84-149.16-86.039v-172.2l149.16 86.16zm9.6016-188.64-149.04-86.039 54.84-31.801 89.398 51.602c0.12109 0 0.23828 0 0.23828 0.12109 1.3203 0.71875 2.7617 1.1992 4.4414 1.1992 1.3203 0 2.6406-0.23828 3.7188-0.83984 0.23828-0.12109 0.35938-0.23828 0.60156-0.35938 0.12109-0.12109 0.23828 0 0.35938-0.12109l89.398-51.602 54.961 31.801zm158.52 102.6-149.04 86.039v-172.08l149.04-86.039zm53.879-47.281-34.801-20.039v-121.32c0-0.12109-0.12109-0.35938-0.12109-0.48047-0.12109-1.4414-0.35938-3-1.1992-4.3203-0.83984-1.4414-1.9219-2.3984-3.2383-3.2383-0.12109-0.12109-0.12109-0.23828-0.23828-0.23828l-59.762-34.559 39.121-22.559 60.121 34.68-0.003906 172.07zm168.12-86.16-149.04 86.16v-172.08l149.04-86.16zm-9.4805-188.52-149.16 86.16-50.641-29.16 1.5586-0.83984c0.23828-0.12109 0.35938-0.48047 0.60156-0.60156 0.83984-0.60156 1.5586-1.3203 2.1602-2.1602 0.23828-0.35938 0.60156-0.71875 0.83984-1.1992 0.60156-1.0781 0.83984-2.3984 0.96094-3.6016 0-0.23828 0.12109-0.35938 0.12109-0.60156v-50.762l39.602 22.801c0.12109 0.12109 0.35938 0 0.48047 0.12109 1.0781 0.60156 2.3984 0.96094 3.7188 0.96094 0.23828 0 0.35938 0.12109 0.60156 0.12109 0.23828 0 0.35938-0.12109 0.60156-0.12109 1.3203-0.12109 2.5195-0.48047 3.7188-0.96094 0.12109-0.12109 0.35938 0 0.48047-0.12109l89.398-51.719zm9.4805-90.961-68.16 39.359c-0.35938 0.12109-0.83984 0.35938-1.1992 0.60156l-79.801 46.199v-172.2l149.04-86.16v172.2zm-158.64-274.68 149.16 86.039-149.16 86.039-149.16-86.16zm-63.359 14.52-109.44 63.121c-0.23828 0.12109-0.35938 0.35937-0.48047 0.60156-0.96094 0.60156-1.8008 1.5586-2.5195 2.5195-0.23828 0.35938-0.48047 0.71875-0.60156 1.0781-0.60156 1.1992-0.96094 2.5195-0.96094 3.7188 0 0.23828-0.12109 0.35938-0.12109 0.60156v50.762l-34.801-20.16v-67.801l149.16-86.16 0.003906 51.719zm-158.64-154.32 149.16 86.039-149.16 86.16-149.16-86.16zm-158.64 102.48 149.16 86.16v67.922l-34.801 20.16v-51-0.23828c0-1.5586-0.35938-3-1.1992-4.4414l-0.12109-0.12109c0-0.12109-0.12109-0.12109-0.23828-0.23828-0.71875-1.1992-1.6797-2.1602-2.8789-2.8789-0.23828-0.12109-0.23828-0.35938-0.48047-0.48047l-109.44-63.121zm-63.359 37.32 149.28 86.039-149.16 86.039-149.28-86.16zm-158.64 274.68v-172.32l149.28 86.16v172.2l-79.922-46.199c-0.35938-0.23828-0.71875-0.35938-1.0781-0.60156zm64.441 59.039 89.398 51.719c0.23828 0.12109 0.48047 0.12109 0.71875 0.23828 1.1992 0.60156 2.5195 0.96094 3.9609 0.96094 0.12109 0 0.23828 0.12109 0.35938 0.12109 1.1992 0 2.3984-0.35938 3.4805-0.71875 0.12109-0.12109 0.23828-0.23828 0.48047-0.23828 0.71875-0.35938 1.3203-0.60156 1.9219-1.0781l38.281-21.961v50.762c0 1.5586 0.48047 3.1211 1.1992 4.4414 0.12109 0.23828 0.35938 0.48047 0.60156 0.83984 0.71875 1.0781 1.5586 1.9219 2.5195 2.5195 0.23828 0.12109 0.23828 0.35938 0.48047 0.48047l1.5586 0.83984-50.52 29.16-149.16-86.16zm-64.441 48.359 149.28 86.16v172.2l-149.28-86.16z" fill="#fff"/>
</svg>
