<?xml version="1.0" encoding="UTF-8"?>
<svg width="1200pt" height="1200pt" version="1.1" viewBox="0 0 1200 1200" xmlns="http://www.w3.org/2000/svg">
 <path d="m600 335.5c-59.391 0-113.11 8.9609-152.56 24.09-19.727 7.5625-35.773 16.758-47.469 27.395-11.695 10.641-19.129 23.195-19.129 37.078v351.64c0 13.879 7.4336 26.672 19.129 37.312 11.695 10.637 27.742 19.594 47.469 27.156 39.453 15.129 93.168 24.324 152.56 24.324s113.11-9.1953 152.56-24.324c19.727-7.5625 35.77-16.52 47.469-27.156 11.695-10.641 19.129-23.434 19.129-37.312v-351.64c0-13.883-7.4336-26.438-19.129-37.078-11.699-10.637-27.742-19.832-47.469-27.395-39.453-15.129-93.172-24.09-152.56-24.09zm0 15.117c57.836 0 110.09 8.9375 147.13 23.141 18.523 7.1055 33.082 15.539 42.746 24.328 9.3867 8.5352 13.918 16.922 14.168 25.266-0.20312 0.45703-0.35938 0.93359-0.47266 1.418-1.4375 8.1484-7.0234 16.703-17.473 25.035-10.449 8.3281-25.344 16.312-43.691 22.906-36.691 13.191-87 21.492-142.41 21.492-55.402 0-105.71-8.3008-142.4-21.492-18.348-6.5938-33.242-14.578-43.691-22.906-10.449-8.332-16.035-16.887-17.477-25.035-0.10938-0.48438-0.26563-0.96094-0.47266-1.418 0.25391-8.3438 4.7852-16.73 14.172-25.266 9.6602-8.7891 24.223-17.223 42.746-24.328 37.039-14.203 89.293-23.141 147.12-23.141zm-204.04 103.44c2.5469 2.6523 5.4297 5.1094 8.5039 7.5586 12.289 9.793 28.719 18.273 48.176 25.266 38.914 13.992 90.473 22.438 147.36 22.438 56.895 0 108.45-8.4453 147.37-22.438 19.457-6.9922 35.887-15.473 48.176-25.266 3.0703-2.4492 5.957-4.9062 8.5-7.5586v89.27c-0.15625 0.61719-0.23438 1.25-0.23438 1.8867-1.2344 8.2031-6.8984 16.633-17.238 25.035-10.34 8.3984-25.078 16.473-43.457 23.145-36.754 13.34-87.344 21.727-143.11 21.727-55.766 0-106.36-8.3867-143.11-21.727-18.375-6.6719-33.113-14.746-43.453-23.145-10.34-8.4023-16.004-16.832-17.238-25.035-0.035156-0.47656-0.11328-0.95313-0.23828-1.4141zm68.016 70.375c-8.3477 0-15.113 6.7656-15.113 15.113 0 8.3477 6.7656 15.117 15.113 15.117s15.113-6.7695 15.113-15.117c0-8.3477-6.7656-15.113-15.113-15.113zm-68.016 50.539c2.3984 2.5117 4.9336 4.7617 7.7969 7.0859 12.207 9.918 28.672 18.426 48.176 25.504 39 14.156 90.805 22.672 148.07 22.672 57.27 0 109.07-8.5156 148.07-22.672 19.5-7.0781 35.969-15.586 48.176-25.504 2.8633-2.3242 5.3984-4.5742 7.793-7.0859v81.711c-0.15625 0.61719-0.23438 1.2539-0.23438 1.8906-1.2344 8.2031-6.8984 16.633-17.238 25.031-10.34 8.4023-25.078 16.473-43.457 23.145-36.754 13.34-87.344 21.727-143.11 21.727-55.766 0-106.36-8.3867-143.11-21.727-18.375-6.6719-33.113-14.742-43.453-23.145-10.34-8.3984-16.004-16.828-17.238-25.031-0.035156-0.48047-0.11328-0.95312-0.23828-1.418zm68.016 70.375c-8.3477 0-15.113 6.7695-15.113 15.113 0 8.3477 6.7656 15.117 15.113 15.117s15.113-6.7695 15.113-15.117c0-8.3438-6.7656-15.113-15.113-15.113zm-68.016 42.98c2.3984 2.5117 4.9336 4.7617 7.7969 7.0859 12.207 9.918 28.672 18.426 48.176 25.504 39 14.16 90.805 22.672 148.07 22.672 57.27 0 109.07-8.5117 148.07-22.672 19.5-7.0781 35.969-15.586 48.176-25.504 2.8633-2.3242 5.3984-4.5742 7.793-7.0859v87.383c0 8.5898-4.5039 17.188-14.168 25.977-9.6641 8.7891-24.223 17.223-42.746 24.324-37.039 14.203-89.293 23.379-147.13 23.379-57.832 0-110.09-9.1758-147.12-23.379-18.523-7.1016-33.086-15.535-42.746-24.324-9.6641-8.7891-14.172-17.387-14.172-25.977zm68.016 70.379c-8.3477 0-15.113 6.7656-15.113 15.113s6.7656 15.113 15.113 15.113 15.113-6.7656 15.113-15.113-6.7656-15.113-15.113-15.113z"/>
</svg>
