<?xml version="1.0" encoding="UTF-8"?>
<svg width="1200pt" height="1200pt" version="1.1" viewBox="0 0 1200 1200" xmlns="http://www.w3.org/2000/svg">
 <g fill="#fff">
  <path d="m768.75 93.75h-337.5c-24.863 0-48.711 9.8789-66.293 27.457-17.578 17.582-27.457 41.43-27.457 66.293v825c0 24.863 9.8789 48.711 27.457 66.293 17.582 17.578 41.43 27.457 66.293 27.457h337.5c24.863 0 48.711-9.8789 66.293-27.457 17.578-17.582 27.457-41.43 27.457-66.293v-825c0-24.863-9.8789-48.711-27.457-66.293-17.582-17.578-41.43-27.457-66.293-27.457zm-393.75 150c68.812 6.5625 145.88 10.125 225 10.125s156.19-3.5625 225-10.125v656.25c-69-6.5625-146.06-10.125-225-10.125s-156 3.5625-225 10.125zm56.25-112.5h337.5c14.918 0 29.227 5.9258 39.773 16.477 10.551 10.547 16.477 24.855 16.477 39.773v17.812c-68.625 6.75-145.69 10.312-225 10.312s-156.38-3.75-225-10.312v-17.812c0-14.918 5.9258-29.227 16.477-39.773 10.547-10.551 24.855-16.477 39.773-16.477zm337.5 937.5h-337.5c-14.918 0-29.227-5.9258-39.773-16.477-10.551-10.547-16.477-24.855-16.477-39.773v-74.062c68.625-6.75 145.88-10.312 225-10.312s156.38 3.75 225 10.312v74.062c0 14.918-5.9258 29.227-16.477 39.773-10.547 10.551-24.855 16.477-39.773 16.477z"/>
  <path d="m600 937.5c-14.918 0-29.227 5.9258-39.773 16.477-10.551 10.547-16.477 24.855-16.477 39.773s5.9258 29.227 16.477 39.773c10.547 10.551 24.855 16.477 39.773 16.477s29.227-5.9258 39.773-16.477c10.551-10.547 16.477-24.855 16.477-39.773s-5.9258-29.227-16.477-39.773c-10.547-10.551-24.855-16.477-39.773-16.477zm0 75c-4.9727 0-9.7422-1.9766-13.258-5.4922-3.5156-3.5156-5.4922-8.2852-5.4922-13.258s1.9766-9.7422 5.4922-13.258c3.5156-3.5156 8.2852-5.4922 13.258-5.4922s9.7422 1.9766 13.258 5.4922c3.5156 3.5156 5.4922 8.2852 5.4922 13.258s-1.9766 9.7422-5.4922 13.258c-3.5156 3.5156-8.2852 5.4922-13.258 5.4922z"/>
 </g>
</svg>
