<?xml version="1.0" encoding="UTF-8"?>
<svg width="1200pt" height="1200pt" version="1.1" viewBox="0 0 1200 1200" xmlns="http://www.w3.org/2000/svg">
 <g fill="#fff">
  <path d="m600 60-467.65 270v539.98l467.65 270.02 467.65-270v-540zm448.92 273.05-448.92 259.19-448.92-259.19 448.92-259.2zm-904.57 9.9609 449.65 259.62v520.05l-449.65-259.63zm454.31 782.36h2.6875l-1.3438 0.78125zm7.3438-2.6875v-520.05l449.65-259.62v520.07z"/>
  <path d="m393.01 231.94c-53.832 0-96 22.402-96 51v55.754c0 28.598 42.168 51 96 51s96-22.402 96-51v-55.754c0-28.598-42.168-51-96-51zm0 12c45.527 0 84 17.855 84 39s-38.473 39-84 39c-45.527 0-84-17.855-84-39s38.473-39 84-39zm0 133.75c-45.527 0-84-17.855-84-39v-30.742c16.234 15.625 47.398 25.992 84 25.992 36.602 0 67.766-10.367 84-25.992v30.742c0 21.133-38.461 39-84 39z"/>
  <path d="m600 342.91c-53.832 0-96 22.402-96 51v55.727c0 28.598 42.168 51 96 51s96-22.402 96-51v-55.727c0-28.594-42.168-51-96-51zm0 12c45.539 0 84 17.855 84 39 0 21.145-38.461 39-84 39-45.527 0-84-17.855-84-39 0-21.141 38.473-39 84-39zm0 133.73c-45.527 0-84-17.855-84-39v-30.719c16.234 15.625 47.398 25.992 84 25.992s67.766-10.367 84-25.992v30.719c0 21.133-38.461 39-84 39z"/>
  <path d="m593.87 118.59c-53.832 0-96 22.402-96 51v55.754c0 28.598 42.168 51 96 51 53.832 0 96-22.402 96-51v-55.754c-0.011719-28.598-42.168-51-96-51zm0 12c45.527 0 84 17.855 84 39 0 21.145-38.461 39-84 39-45.539 0-84-17.855-84-39 0-21.145 38.461-39 84-39zm0 133.74c-45.527 0-84-17.855-84-39v-30.742c16.234 15.625 47.398 25.992 84 25.992 36.602 0 67.777-10.367 84-25.992v30.742c-0.011719 21.145-38.473 39-84 39z"/>
  <path d="m793.48 225.46c-53.82 0-96 22.402-96 51v55.727c0 28.598 42.18 51 96 51 53.832 0 96-22.402 96-51v-55.727c0-28.598-42.168-51-96-51zm0 12c45.539 0 84 17.855 84 39s-38.461 39-84 39c-45.527 0-84-17.855-84-39s38.473-39 84-39zm0 133.73c-45.527 0-84-17.855-84-39v-30.719c16.246 15.625 47.398 25.992 84 25.992 36.613 0 67.777-10.367 84-25.992v30.719c0 21.133-38.461 39-84 39z"/>
 </g>
</svg>
