<?xml version="1.0" encoding="UTF-8"?>
<svg width="1200pt" height="1200pt" version="1.1" viewBox="0 0 1200 1200" xmlns="http://www.w3.org/2000/svg">
 <path d="m283.61 466.13c18 0 35.711 2.0508 52.848 5.9023 10.402 2.3398 20.555 5.3633 30.348 8.9648 18.898-62.785 56.664-117.4 106.67-157.25 54.324-43.273 123.16-69.156 197.96-69.156 87.77 0 167.33 35.641 224.89 93.242 57.602 57.527 93.203 137.05 93.203 224.93l-0.070312 4.6445c43.777 4.2109 83.09 23.762 112.46 53.137 33.371 33.371 54 79.488 54 130.39s-20.664 97.059-54 130.39c-33.371 33.371-79.488 54-130.39 54h-687.97c-66.168 0-126.11-26.82-169.45-70.199-43.344-43.344-70.199-103.29-70.199-169.45 0-66.168 26.82-126.07 70.199-169.45 43.344-43.344 103.29-70.199 169.45-70.199zm44.965 40.934c-14.258-3.2031-29.34-4.9336-44.965-4.9336-56.234 0-107.14 22.789-144 59.652-36.863 36.863-59.652 87.77-59.652 144 0 56.234 22.789 107.14 59.652 144 36.863 36.863 87.77 59.652 144 59.652h687.97c40.969 0 78.086-16.598 104.94-43.453s43.453-63.973 43.453-104.94-16.598-78.086-43.453-104.94c-26.855-26.855-63.973-43.453-104.94-43.453l-2.0508-0.070313c-9.8984-0.68359-17.352-9.2891-16.668-19.188l0.57422-10.188 0.14453-10.332c0-77.906-31.574-148.46-82.621-199.52-51.012-51.086-121.54-82.656-199.48-82.656-66.422 0-127.48 22.934-175.64 61.273-48.926 38.953-84.672 93.891-99.254 156.86-0.25391 1.5469-0.75781 3.0977-1.4766 4.5703-4.2461 8.9648-15.012 12.781-23.977 8.5312-13.57-6.4805-27.863-11.484-42.551-14.797z" fill="#fff"/>
</svg>
