<?xml version="1.0" encoding="UTF-8"?>
<svg width="1200pt" height="1200pt" version="1.1" viewBox="0 0 1200 1200" xmlns="http://www.w3.org/2000/svg">
 <g fill="#fff">
  <path d="m1115.4 652.66c-3.2227-3.5898-84.121-90.512-183.66-84.449 0.25391-3.6992 0.36719-7.3984 0.36719-11.078 0-95.527-81.332-169.46-84.812-172.58-14.207-12.742-35.816-12.742-50.023 0-3.4844 3.1172-84.816 77.055-84.816 172.58 0 14.137 1.7578 28.453 5.3086 42.867h-605.31c-20.707 0-37.5 16.793-37.5 37.5 0 254.45 129.33 412.5 337.5 412.5 188.95 0 383.64-121.36 456.55-277.95 24.758 10.27 49.441 15.453 73.793 15.453 95.578 0 169.48-81.352 172.59-84.812 12.746-14.246 12.746-35.781 0-50.027zm-834.19 172.34c-31.016 0-56.25-25.234-56.25-56.25s25.234-56.25 56.25-56.25 56.25 25.234 56.25 56.25-25.234 56.25-56.25 56.25z"/>
  <path d="m112.5 450h112.5v112.5h-112.5z"/>
  <path d="m262.5 450h112.5v112.5h-112.5z"/>
  <path d="m262.5 300h112.5v112.5h-112.5z"/>
  <path d="m412.5 300h112.5v112.5h-112.5z"/>
  <path d="m412.5 150h112.5v112.5h-112.5z"/>
  <path d="m412.5 450h112.5v112.5h-112.5z"/>
  <path d="m562.5 450h112.5v112.5h-112.5z"/>
 </g>
</svg>
