<?xml version="1.0" encoding="UTF-8"?>
<svg width="1200pt" height="1200pt" version="1.1" viewBox="0 0 1200 1200" xmlns="http://www.w3.org/2000/svg">
 <g fill="#fff">
  <path d="m200.68 285.36v629.28c0 3.2266 1.7539 6.1797 4.5 7.7891l390.32 225.35c1.3906 0.81641 2.9414 1.2227 4.5 1.2227s3.1094-0.40625 4.5-1.2227l390.34-225.35c2.7734-1.5977 4.5-4.5352 4.5-7.7891v-629.29c0-3.2148-1.7266-6.1797-4.5-7.7891l-390.34-225.36c-2.7852-1.6094-6.2148-1.6094-9 0l-390.32 225.37c-2.8203 1.6094-4.5 4.5742-4.5 7.7891zm57.648 17.699 341.68-197.25 341.69 197.27-341.69 197.25zm714.01-17.699-12.672 7.3203-355.16-205.05c-2.7852-1.6094-6.2148-1.6094-9 0l-355.18 205.05-12.66-7.3203 372.34-214.97zm9.0234 15.59v608.5l-144.73 83.555v-208.51c0-2.1484-1.1523-4.1289-3-5.1953-1.8359-1.0781-4.1523-1.0781-6 0l-72.898 42.098c-1.8477 1.0664-3 3.0469-3 5.1953v215.45l-142.71 82.391-0.003906-608.5 355.18-205.07 17.16-9.9102zm-217.64 734.15v-205.06l60.898-35.16v205.04zm-545.04-125.66v-608.48l17.16 9.9102 355.18 205.07v608.48z"/>
  <path d="m252.48 713.52c-1.8359 1.0664-3 3.0469-3 5.2188v116.02c0 2.207 1.1641 4.1875 3 5.2578l72.758 42.012c0.9375 0.50391 1.9688 0.75781 3 0.75781s2.0898-0.23828 3-0.75781c1.7773-1.0547 3-3.0352 3-5.2578v-116.02c0-2.1484-1.2227-4.1289-3-5.1953l-72.758-42.012c-1.8359-1.0781-4.1641-1.0781-6-0.023438zm9 15.527 60.758 35.16v102.17l-60.758-35.09z"/>
  <path d="m252.48 554.84c-1.8359 1.0664-3 3.0469-3 5.1953v116.04c0 2.1602 1.1641 4.1289 3 5.207l72.758 42c0.9375 0.53906 1.9688 0.80469 3 0.80469s2.0898-0.26562 3-0.80469c1.7773-1.0547 3-3.0469 3-5.1953v-116.04c0-2.1484-1.2227-4.1289-3-5.1953l-72.758-42.012c-1.8359-1.0664-4.1641-1.0664-6 0zm9 15.602 60.758 35.074v102.18l-60.758-35.074z"/>
  <path d="m252.48 396.29c-1.8359 1.0664-3 3.0469-3 5.1953v115.97c0 2.1484 1.1641 4.1289 3 5.1953l72.758 42.012c0.9375 0.53906 1.9688 0.80469 3 0.80469s2.0898-0.27734 3-0.80469c1.7773-1.0664 3-3.0469 3-5.1953v-115.97c0-2.1484-1.2227-4.1289-3-5.1953l-72.758-42.012c-1.8359-1.0703-4.1641-1.0703-6 0zm9 15.574 60.758 35.09v102.11l-60.758-35.074z"/>
  <path d="m366.37 779.29c-1.8477 1.0664-3 3.0469-3 5.1953v116.02c0 2.1484 1.1523 4.1289 3 5.1953l72.91 42.098c0.91016 0.53906 1.9688 0.80469 3 0.80469s2.0625-0.26562 3-0.80469c1.7656-1.0547 3-3.0469 3-5.1953v-116.02c0-2.1484-1.2344-4.1289-3-5.1953l-72.91-42.098c-1.8477-1.0703-4.1406-1.0703-6 0zm9 15.586 60.91 35.16v102.17l-60.91-35.172z"/>
  <path d="m366.37 620.59c-1.8477 1.0938-3 3.0469-3 5.2188v116.04c0 2.207 1.1523 4.1875 3 5.2578l72.91 42.145c0.91016 0.51562 1.9688 0.75781 3 0.75781s2.0625-0.22656 3-0.75781c1.7656-1.1172 3-3.0977 3-5.2422v-116.04c0-2.2188-1.2344-4.1875-3-5.2578l-72.91-42.098c-1.8477-1.082-4.1406-1.082-6-0.023438zm9 15.621 60.91 35.16v102.19l-60.91-35.172z"/>
  <path d="m366.37 462.09c-1.8477 1.0664-3 3.0469-3 5.1953v116c0 2.1484 1.1523 4.1289 3 5.1953l72.91 42.098c0.91016 0.50391 1.9688 0.75781 3 0.75781s2.0625-0.23828 3-0.75781c1.7656-1.0664 3-3.0469 3-5.2578v-115.98c0-2.1484-1.2344-4.1289-3-5.1953l-72.91-42.098c-1.8477-1.0664-4.1406-1.0312-6 0.039063zm9 15.551 60.91 35.16v102.11l-60.91-35.16z"/>
  <path d="m480.56 845.18c-1.8477 1.0781-3 3.0469-3 5.2578v116.04c0 2.1484 1.1523 4.1289 3 5.2305l72.961 42.168c0.92578 0.50391 1.9688 0.75781 3 0.75781s2.0742-0.23828 3-0.75781c1.8477-1.0781 3-3.0469 3-5.2578v-116.02c0-2.1367-1.1523-4.1172-3-5.2578l-72.961-42.121c-1.8477-1.0742-4.1523-1.0742-6-0.042968zm9 15.625 60.961 35.195v102.16l-60.961-35.195z"/>
  <path d="m480.56 686.53c-1.8477 1.0664-3 3.0469-3 5.207v116.04c0 2.2188 1.1523 4.1992 3 5.2578l72.961 42.133c0.92578 0.53906 1.9688 0.79297 3 0.79297s2.0742-0.23828 3-0.79297c1.8477-1.0781 3-3.0586 3-5.207v-116.11c0-2.1602-1.1523-4.1289-3-5.207l-72.961-42.121c-1.8477-1.0547-4.1523-1.0547-6 0.011719zm9 15.527 60.961 35.258v102.18l-60.961-35.195z"/>
  <path d="m480.56 527.96c-1.8477 1.0664-3 3.0469-3 5.1953v115.96c0 2.1719 1.1523 4.1406 3 5.2188l72.961 42.18c0.92578 0.50391 1.9688 0.75781 3 0.75781s2.0742-0.23828 3-0.75781c1.8477-1.0547 3-3.0352 3-5.2578v-115.98c0-2.1484-1.1523-4.1289-3-5.1953l-72.961-42.121c-1.8477-1.0586-4.1523-1.0586-6 0zm9 15.66 60.961 35.195v102.12l-60.961-35.258z"/>
  <path d="m865.75 443.5v115.97c0 2.1484 1.1523 4.1289 3 5.1953 0.92578 0.53906 1.9688 0.80469 3 0.80469s2.0742-0.27734 3-0.80469l72.758-42.012c1.8477-1.0664 3-3.0469 3-5.1953v-115.97c0-2.1484-1.1523-4.1289-3-5.1953-1.8359-1.0664-4.1523-1.0664-6 0l-72.758 42.012c-1.8633 1.0781-3 3.0586-3 5.1953zm12 3.4805 60.758-35.09v102.11l-60.758 35.074z"/>
  <path d="m719.44 654.32c1.8477-1.0547 3-3.0469 3-5.207v-115.96c0-2.1484-1.1523-4.1289-3-5.1953s-4.1523-1.0664-6 0l-72.961 42.121c-1.8359 1.0664-3 3.0469-3 5.1953v115.99c0 2.1484 1.1641 4.1289 3 5.1953 0.92578 0.53906 1.9688 0.80469 3 0.80469s2.0742-0.27734 3-0.80469zm-9-8.6406-60.961 35.195v-102.12l60.961-35.195z"/>
  <path d="m719.44 971.63c1.8477-1.0664 3-3.0469 3-5.1953v-116.02c0-2.1484-1.1523-4.1406-3-5.1953-1.8477-1.1523-4.1523-1.1523-6 0l-72.961 42.121c-1.8359 1.0664-3 3.0469-3 5.1953v116.02c0 2.1484 1.1641 4.1406 3 5.1953 0.92578 0.53906 1.9688 0.80469 3 0.80469s2.0742-0.26563 3-0.80469zm-9-8.6641-60.961 35.195v-102.16l60.961-35.195z"/>
  <path d="m833.62 588.39c1.8477-1.0664 3-3.0469 3-5.1953v-115.99c0-2.1484-1.1523-4.1289-3-5.1953-1.8359-1.0664-4.1523-1.0664-6 0l-72.898 42.098c-1.8477 1.0664-3 3.0469-3 5.1953v116c0 2.1484 1.1523 4.1289 3 5.1953 0.91016 0.53906 1.9688 0.80469 3 0.80469s2.0742-0.27734 3-0.80469zm-9-8.6523-60.898 35.16v-102.11l60.898-35.16z"/>
  <path d="m868.75 755.55c-1.8477 1.0664-3 3.0469-3 5.207v116.02c0 2.207 1.1523 4.1875 3 5.2578 0.92578 0.50391 1.9688 0.75781 3 0.75781s2.0742-0.22656 3-0.75781l72.758-42.012c1.8477-1.0664 3-3.0469 3-5.2578v-116.02c0-2.1602-1.1523-4.1406-3-5.207-1.8359-1.0664-4.1523-1.0664-6 0zm9 8.6523 60.758-35.09v102.17l-60.758 35.09z"/>
  <path d="m833.62 747.05c1.8477-1.0664 3-3.0469 3-5.207v-116.04c0-2.1367-1.1523-4.1289-3-5.2578-1.8359-1.0664-4.1523-1.0664-6 0l-72.898 42.18c-1.8477 1.0547-3 3.0469-3 5.1953v116.04c0 2.1484 1.1523 4.1289 3 5.1953 0.91016 0.53906 1.9688 0.80469 3 0.80469s2.0742-0.26562 3-0.80469zm-9-8.6133-60.898 35.172v-102.25l60.898-35.16z"/>
  <path d="m868.75 596.86c-1.8477 1.0664-3 3.0469-3 5.1953v116.04c0 2.1484 1.1523 4.1406 3 5.1953 0.92578 0.53906 1.9688 0.80469 3 0.80469s2.0742-0.26562 3-0.80469l72.758-42c1.8477-1.0781 3-3.0469 3-5.207v-116.04c0-2.1484-1.1523-4.1289-3-5.1953-1.8359-1.0664-4.1523-1.0664-6 0zm9 8.6523 60.758-35.074v102.19l-60.758 35.074z"/>
  <path d="m719.44 812.95c1.8477-1.0664 3-3.0469 3-5.207v-116.04c0-2.207-1.1523-4.1875-3-5.2578-1.8477-1.0664-4.1523-1.0664-6 0l-72.961 42.191c-1.8359 1.0781-3 3.0469-3 5.207v116.04c0 2.1484 1.1641 4.1289 3 5.1953 0.92578 0.53906 1.9688 0.80469 3 0.80469s2.0742-0.27734 3-0.80469zm-9-8.6523-60.961 35.258v-102.25l60.961-35.207z"/>
 </g>
</svg>
