<?xml version="1.0" encoding="UTF-8"?>
<svg width="1200pt" height="1200pt" version="1.1" viewBox="0 0 1200 1200" xmlns="http://www.w3.org/2000/svg">
 <path d="m907.32 334.68h166.68c19.094 0 37.41-7.5859 50.91-21.09 13.504-13.5 21.09-31.812 21.09-50.91v-142.68c0-19.094-7.5859-37.41-21.09-50.91-13.5-13.504-31.816-21.09-50.91-21.09h-166.68c-19.098 0-37.41 7.5859-50.91 21.09-13.504 13.5-21.09 31.816-21.09 50.91v75.359h-145.32c-28.645 0-56.113 11.379-76.367 31.633-20.254 20.254-31.633 47.723-31.633 76.367v284.64h-193.32v-80.641c0-19.094-7.5859-37.41-21.09-50.91-13.5-13.504-31.812-21.09-50.91-21.09h-190.68c-19.094 0-37.41 7.5859-50.91 21.09-13.504 13.5-21.09 31.816-21.09 50.91v185.28c0 19.094 7.5859 37.41 21.09 50.91 13.5 13.504 31.816 21.09 50.91 21.09h190.68c19.098 0 37.41-7.5859 50.91-21.09 13.504-13.5 21.09-31.816 21.09-50.91v-80.641h193.32v284.64c0 28.645 11.379 56.113 31.633 76.367 20.254 20.254 47.723 31.633 76.367 31.633h145.32v75.359c0 19.094 7.5859 37.41 21.09 50.91 13.5 13.504 31.812 21.09 50.91 21.09h166.68c19.094 0 37.41-7.5859 50.91-21.09 13.504-13.5 21.09-31.816 21.09-50.91v-142.68c0-19.098-7.5859-37.41-21.09-50.91-13.5-13.504-31.816-21.09-50.91-21.09h-166.68c-19.098 0-37.41 7.5859-50.91 21.09-13.504 13.5-21.09 31.812-21.09 50.91v43.32h-145.32c-22.277 0-43.645-8.8516-59.398-24.605-15.75-15.75-24.602-37.117-24.602-59.395v-284.64h229.32v59.281c0 19.094 7.5859 37.406 21.09 50.91 13.5 13.504 31.812 21.09 50.91 21.09h166.68c19.094 0 37.41-7.5859 50.91-21.09 13.504-13.504 21.09-31.816 21.09-50.91v-142.56c0-19.094-7.5859-37.406-21.09-50.91-13.5-13.504-31.816-21.09-50.91-21.09h-166.68c-19.098 0-37.41 7.5859-50.91 21.09-13.504 13.504-21.09 31.816-21.09 50.91v59.281h-229.32v-284.64c0-22.277 8.8516-43.645 24.602-59.395 15.754-15.754 37.121-24.605 59.398-24.605h145.32v43.32c0 19.098 7.5859 37.41 21.09 50.91 13.5 13.504 31.812 21.09 50.91 21.09zm-542.64 357.96c0 12.73-5.0586 24.938-14.059 33.941-9 9-21.211 14.059-33.941 14.059h-190.68c-12.73 0-24.938-5.0586-33.941-14.059-9-9.0039-14.059-21.211-14.059-33.941v-185.28c0-12.73 5.0586-24.938 14.059-33.941 9.0039-9 21.211-14.059 33.941-14.059h190.68c12.73 0 24.941 5.0586 33.941 14.059 9 9.0039 14.059 21.211 14.059 33.941zm494.64 244.68c0-12.73 5.0586-24.941 14.059-33.941s21.211-14.059 33.941-14.059h166.68c12.73 0 24.938 5.0586 33.941 14.059 9 9 14.059 21.211 14.059 33.941v142.68c0 12.73-5.0586 24.938-14.059 33.941-9.0039 9-21.211 14.059-33.941 14.059h-166.68c-12.73 0-24.941-5.0586-33.941-14.059-9-9.0039-14.059-21.211-14.059-33.941zm0-408.72c0-12.73 5.0586-24.941 14.059-33.941 9-9.0039 21.211-14.059 33.941-14.059h166.68c12.73 0 24.938 5.0547 33.941 14.059 9 9 14.059 21.211 14.059 33.941v142.68c0 12.73-5.0586 24.938-14.059 33.941-9.0039 9-21.211 14.059-33.941 14.059h-166.68c-12.73 0-24.941-5.0586-33.941-14.059-9-9.0039-14.059-21.211-14.059-33.941zm0-408.6c0-12.73 5.0586-24.938 14.059-33.941 9-9 21.211-14.059 33.941-14.059h166.68c12.73 0 24.938 5.0586 33.941 14.059 9 9.0039 14.059 21.211 14.059 33.941v142.68c0 12.73-5.0586 24.941-14.059 33.941-9.0039 9-21.211 14.059-33.941 14.059h-166.68c-12.73 0-24.941-5.0586-33.941-14.059s-14.059-21.211-14.059-33.941z"/>
</svg>
