<?xml version="1.0" encoding="iso-8859-1"?>
<!-- Generator: Adobe Illustrator 25.4.1, SVG Export Plug-In . SVG Version: 6.00 Build 0)  -->
<svg version="1.1" id="Layer_1" xmlns="http://www.w3.org/2000/svg" xmlns:xlink="http://www.w3.org/1999/xlink" x="0px" y="0px"
	 viewBox="0 0 45 48" style="enable-background:new 0 0 45 48;" xml:space="preserve">
<g>
	<defs>
		<rect id="SVGID_1_" width="45" height="48"/>
	</defs>
	<clipPath id="SVGID_00000078045133911643809240000016635640949077171372_">
		<use xlink:href="#SVGID_1_"  style="overflow:visible;"/>
	</clipPath>
	<path style="clip-path:url(#SVGID_00000078045133911643809240000016635640949077171372_);fill:#FFFFFF;" d="M33.867,6.428
		c-0.032-0.061-1.955-1.013-1.955-1.013c-2.445-0.513-6.473-0.288-9.282,0.745h-0.01c-2.811-1.033-6.835-1.258-9.281-0.745
		c0,0-1.923,0.952-1.952,1.013l-2.98,6.575c-0.097,0.183,0.056,0.339,0.225,0.304c4.529-0.859,9.731-1.124,13.991-1.124h0.004
		c4.26,0,9.462,0.265,13.99,1.124c0.171,0.035,0.322-0.121,0.226-0.304L33.867,6.428z M21.921,11.162
		c-3.228-0.128-8.8-0.128-11.593,0.872l1.985-4.969l1.353-0.724l-1.437,4.093c2.911-0.55,6.131-0.755,9.699,0.413L21.921,11.162z
		 M23.283,11.162v-0.315c3.568-1.168,6.789-0.963,9.699-0.413l-1.444-4.093l1.355,0.724l1.985,4.969
		C32.228,11.034,26.656,11.034,23.283,11.162"/>
	<path style="clip-path:url(#SVGID_00000078045133911643809240000016635640949077171372_);fill:#FFFFFF;" d="M41.094,3.97
		l-0.02-0.008l-0.127-0.029C34.95,2.65,28.786,2,22.625,2C16.462,2,10.29,2.652,4.282,3.937L4.223,3.949L4.167,3.967
		C3.206,4.204,2.5,5.106,2.5,6.148l0.002,3.265c0,23.545,14.569,33.097,19.035,35.463c0.357,0.19,0.727,0.287,1.095,0.287
		c0.37,0,0.737-0.097,1.091-0.29c4.454-2.36,19.027-11.915,19.027-35.46V6.148C42.75,5.131,42.064,4.237,41.094,3.97 M21.805,43.522
		C16.881,40.805,6.993,33.099,4.437,17.301l0.12-0.025c5.629-1.189,11.428-1.813,17.248-1.868V43.522z M37.381,28.38
		c-0.003,0.004-0.006,0.013-0.009,0.017c-1.046,2.166-2.229,4.087-3.475,5.772c-0.003,0.003-0.003,0.004-0.004,0.004
		c-1.134,1.533-2.311,2.881-3.482,4.044v-6.369l-3.483-2.318v11.714c-1.295,0.977-2.488,1.731-3.481,2.278v-16.31l3.481,2.318
		v-8.106l3.483,2.316v-7.993c1.164,0.103,2.326,0.223,3.482,0.372v9.939l3.479,2.316V16.645c1.113,0.19,2.222,0.393,3.325,0.626
		l0.119,0.026C40.126,21.562,38.9,25.233,37.381,28.38 M23.447,19.105v-3.697c1.162,0.01,2.323,0.04,3.481,0.097v5.918
		L23.447,19.105z M41.433,9.413c0,2.145-0.13,4.168-0.363,6.083c-12.08-2.551-24.79-2.551-36.887,0.006
		c-0.234-1.918-0.364-3.943-0.364-6.089L3.817,6.147c0-0.443,0.305-0.813,0.718-0.916l0.022-0.007
		c5.827-1.247,11.871-1.908,18.068-1.908c6.191,0,12.227,0.66,18.044,1.903l0.014,0.005c0.431,0.088,0.752,0.468,0.752,0.923
		L41.433,9.413z"/>
	<polygon style="clip-path:url(#SVGID_00000078045133911643809240000016635640949077171372_);fill:#FFFFFF;" points="33.893,26.058 
		30.411,23.741 30.411,31.848 33.893,34.165 	"/>
	<path style="clip-path:url(#SVGID_00000078045133911643809240000016635640949077171372_);fill:#FFFFFF;" d="M14.356,31.165
		c3.514,0,6.373-2.858,6.373-6.372s-2.859-6.373-6.373-6.373c-3.513,0-6.372,2.859-6.372,6.373S10.843,31.165,14.356,31.165
		 M15.516,30.238c0.491-0.531,1.077-1.306,1.52-2.314c0.614,0.132,1.14,0.296,1.571,0.459C17.823,29.31,16.744,29.977,15.516,30.238
		 M19.089,27.712c-0.471-0.191-1.061-0.39-1.769-0.549c0.188-0.593,0.317-1.248,0.354-1.969h2.232
		C19.839,26.114,19.55,26.969,19.089,27.712 M19.089,21.873c0.461,0.744,0.75,1.598,0.817,2.518h-2.232
		c-0.037-0.719-0.166-1.377-0.354-1.968C18.031,22.262,18.618,22.064,19.089,21.873 M18.607,21.202
		c-0.431,0.164-0.957,0.327-1.571,0.46c-0.443-1.01-1.029-1.783-1.52-2.315C16.744,19.608,17.823,20.276,18.607,21.202
		 M14.757,19.719c0.434,0.446,1.01,1.15,1.455,2.087c-0.449,0.065-0.934,0.107-1.455,0.122V19.719z M14.757,22.733
		c0.635-0.019,1.226-0.074,1.763-0.159c0.182,0.545,0.31,1.151,0.349,1.817h-2.112V22.733z M14.757,25.194h2.112
		c-0.039,0.665-0.167,1.271-0.353,1.817c-0.534-0.087-1.124-0.14-1.759-0.159V25.194z M14.757,27.657
		c0.52,0.016,1.003,0.057,1.45,0.122c-0.443,0.935-1.017,1.638-1.45,2.082V27.657z M10.106,28.383
		c0.431-0.163,0.959-0.327,1.573-0.46c0.444,1.01,1.031,1.786,1.523,2.317C11.97,29.979,10.891,29.311,10.106,28.383 M13.953,29.857
		c-0.433-0.449-1.003-1.15-1.445-2.079c0.447-0.064,0.928-0.105,1.445-0.121V29.857z M13.953,26.852
		c-0.634,0.019-1.22,0.072-1.753,0.157c-0.186-0.544-0.314-1.15-0.352-1.815h2.105V26.852z M13.953,24.391h-2.105
		c0.038-0.665,0.166-1.271,0.352-1.817c0.533,0.085,1.119,0.14,1.753,0.159V24.391z M13.953,21.928
		c-0.517-0.015-0.998-0.057-1.445-0.121c0.442-0.929,1.012-1.632,1.445-2.079V21.928z M13.202,19.345
		c-0.492,0.532-1.079,1.306-1.523,2.317c-0.614-0.133-1.142-0.298-1.572-0.461C10.892,20.274,11.971,19.606,13.202,19.345
		 M9.623,21.873c0.472,0.191,1.061,0.389,1.774,0.55c-0.19,0.591-0.317,1.249-0.355,1.968H8.807
		C8.873,23.471,9.164,22.616,9.623,21.873 M8.807,25.194h2.235c0.038,0.72,0.165,1.376,0.353,1.968
		c-0.711,0.16-1.3,0.359-1.772,0.55C9.162,26.969,8.873,26.114,8.807,25.194"/>
</g>
</svg>
