<svg height='100px' width='100px'  fill="#000000" xmlns="http://www.w3.org/2000/svg" xmlns:xlink="http://www.w3.org/1999/xlink" version="1.1" x="0px" y="0px" viewBox="0 0 72 72" enable-background="new 0 0 72 72" xml:space="preserve"><g><g><g><path fill="#000000" d="M70,71.5H2c-0.8,0-1.5-0.7-1.5-1.5V2c0-0.8,0.7-1.5,1.5-1.5S3.5,1.2,3.5,2v65.2c0,0.7,0.6,1.3,1.3,1.3H70     c0.8,0,1.5,0.7,1.5,1.5S70.8,71.5,70,71.5z"></path></g></g><path fill="#000000" d="M64.1,1.7c-0.7-0.5-1.6-0.3-2.1,0.3l-4,5.5c-0.2,0.3-0.6,0.4-0.9,0.2c-1.1-0.5-2.4-0.7-3.8-0.6   c-3.4,0.3-6.2,3-6.7,6.4c-0.3,2.5,0.6,4.8,2.2,6.4c0.2,0.2,0.3,0.5,0.2,0.8l-6.5,14.4c-0.1,0.3-0.4,0.4-0.7,0.3   c-0.5-0.1-1-0.2-1.6-0.2c-1.2,0-2.4,0.3-3.4,0.8c-0.2,0.1-0.5,0.1-0.7-0.1l-6.8-6.9c-0.2-0.2-0.2-0.6-0.1-0.8   c0.9-1.5,1.2-3.4,0.8-5.3c-0.6-2.9-2.9-5.2-5.8-5.8c-4.8-0.9-9,2.7-9,7.3c0,2.8,1.6,5.3,3.8,6.5c0.3,0.2,0.4,0.5,0.4,0.8L16,46.8   c-0.1,0.4-0.4,0.6-0.8,0.7c-0.4,0-1,0.1-1.3,0.2c-3.7,0.9-6.4,4.5-5.7,8.6c0.5,3,2.9,5.4,5.9,6c4.8,0.9,9-2.7,9-7.3   c0-2.8-1.5-5.2-3.8-6.5c-0.3-0.2-0.5-0.5-0.4-0.8l3.6-15c0.1-0.3,0.3-0.5,0.6-0.5c0.4,0,0.9,0,1.2-0.1c0.8-0.1,1.5-0.4,2.2-0.8   c0.3-0.2,0.6-0.1,0.8,0.1l6.7,6.8c0.2,0.2,0.2,0.5,0.1,0.8c-1,1.5-1.4,3.5-1,5.5c0.6,2.9,2.9,5.3,5.9,5.9c4.8,0.9,9-2.7,9-7.4   c0-2.2-0.9-4.1-2.4-5.5c-0.2-0.2-0.3-0.5-0.2-0.7l6.4-14.3c0.1-0.3,0.5-0.5,0.8-0.4c1,0.2,2,0.3,3.1,0c3-0.6,5.4-3,5.9-6   c0.4-2.1-0.1-4-1.2-5.6c-0.2-0.2-0.2-0.6,0-0.8l4.1-5.8C65,3.1,64.8,2.2,64.1,1.7z M20.1,54.9c0,2.5-2,4.5-4.5,4.5s-4.5-2-4.5-4.5   s2-4.5,4.5-4.5S20.1,52.4,20.1,54.9z M18.3,24.6c0-2.5,2-4.5,4.5-4.5s4.5,2,4.5,4.5s-2,4.5-4.5,4.5S18.3,27.1,18.3,24.6z    M40.3,47.4c-2.5,0-4.5-2-4.5-4.5c0-2.5,2-4.5,4.5-4.5s4.5,2,4.5,4.5C44.8,45.4,42.8,47.4,40.3,47.4z M54.2,19.2   c-2.5,0-4.5-2-4.5-4.5s2-4.5,4.5-4.5s4.5,2,4.5,4.5S56.6,19.2,54.2,19.2z"></path></g></svg>