<svg height='100px' width='100px'  fill="#000000" xmlns="http://www.w3.org/2000/svg" xmlns:xlink="http://www.w3.org/1999/xlink" version="1.1" x="0px" y="0px" viewBox="0 0 100 100" style="enable-background:new 0 0 100 100;" xml:space="preserve"><g><path d="M66.8,66.1C66.8,66.1,66.8,66.1,66.8,66.1l0-5.3c0-0.5-0.5-1-1-1h-27c-0.5,0-1,0.5-1,1v14c0,0.6,0.5,1,1,1h27   c0.5,0,1-0.4,1-1v-5c0,0,0,0,0,0s0,0,0,0L66.8,66.1C66.8,66.1,66.8,66.1,66.8,66.1z M64.8,73.8h-25v-3h25V73.8z M64.8,65.1h-11   c-0.6,0-1,0.4-1,1s0.4,1,1,1h11v1.8h-25v-7h25V65.1z"></path><circle cx="44.3" cy="66.1" r="1.5"></circle><path d="M76.9,45.1l0-4.4c0-2.7-2.2-4.9-4.9-4.9h-0.5c0.4-1.6,0.6-3.3,0.6-5c0-10.9-8.9-19.8-19.8-19.8c-10.9,0-19.8,8.9-19.8,19.8   c0,1.7,0.2,3.4,0.6,5h-0.5c-2.7,0-4.9,2.2-4.9,4.9l0,4.4c-3.7,2.6-7,6.6-7,12.7v26c0,0.6,0.5,1,1,1h11c0,0,0,0,0,0s0,0,0,0h14h11   h14c0,0,0,0,0,0s0,0,0,0h11c0.5,0,1-0.4,1-1v-26C83.8,51.7,80.5,47.7,76.9,45.1z M71.9,37.8c1.6,0,2.9,1.3,2.9,2.9l0,3.1   c-2.2-1.3-4.4-2-5.8-2.5c0.7-1.1,1.3-2.3,1.8-3.6H71.9z M47.1,13.8c1.6-0.5,3.4-0.8,5.2-0.8c1.8,0,3.6,0.3,5.2,0.8   C53.3,16.8,48.9,14.9,47.1,13.8C47.1,13.8,47.1,13.8,47.1,13.8z M44.9,14.7C44.9,14.7,44.9,14.7,44.9,14.7c0.1,0.1,0.1,0.1,0.2,0.2   c0,0,3.4,2.5,7.6,2.5c2.1,0,4.5-0.6,6.9-2.6c0.1-0.1,0.1-0.1,0.1-0.2c0,0,0,0,0,0c6.1,2.8,10.4,9,10.4,16.1c0,3.7-1.2,7.2-3.1,10.1   c-0.3,0.4-0.6,0.8-0.9,1.2c-0.6,0.7-1.3,1.4-2,2.1c-0.1-0.1-0.2-0.1-0.4-0.2c-12-2.8-22.2-0.1-22.7,0c-0.1,0-0.2,0.1-0.3,0.2   c-0.7-0.6-1.4-1.3-2-2.1c-0.3-0.4-0.6-0.8-0.9-1.2c-2-2.9-3.1-6.3-3.1-10.1C34.5,23.7,38.8,17.5,44.9,14.7z M62,45.7   C62,45.7,62,45.7,62,45.7c-2.8,1.8-6.1,2.9-9.7,2.9s-6.9-1.1-9.7-2.9c0,0,0,0,0,0C45.4,45.1,53.2,43.9,62,45.7z M29.8,40.7   c0-1.6,1.3-2.9,2.9-2.9h1.1c0.5,1.3,1.1,2.5,1.8,3.6c-1.5,0.4-3.6,1.2-5.8,2.4L29.8,40.7z M81.8,82.8h-9v-16c0-0.6-0.4-1-1-1   s-1,0.4-1,1v16h-13h-11h-13v-16c0-0.6-0.4-1-1-1s-1,0.4-1,1v16h-9v-25c0-5.4,2.9-8.9,6.2-11.2c0.2-0.1,0.4-0.3,0.6-0.4c0,0,0,0,0,0   c2.8-1.8,5.8-2.7,7.2-3.1c3.6,4.6,9.2,7.5,15.5,7.5s11.9-2.9,15.5-7.5c1.5,0.4,4.5,1.3,7.3,3.1c0,0,0,0,0,0   c0.2,0.1,0.4,0.2,0.6,0.4c2.1,1.5,4.1,3.5,5.2,6.2l-4.8,0c-0.5,0-1,0.5-1,1v8c0,0.6,0.4,1,1,1h5.8V82.8z M81.8,60.8H77v-6l4.4,0   c0,0,0,0,0,0c0,0,0,0,0,0c0.2,0.9,0.3,2,0.3,3V60.8z"></path><path d="M41.9,38.8h7.8h5.2h7.8c0.3,0,0.6-0.1,0.8-0.4c5.4-6.5,0.3-14.8,0.1-15.2c-0.2-0.3-0.5-0.5-0.8-0.5h-7.8h-5.2h-7.8   c-0.3,0-0.7,0.2-0.8,0.5c-0.2,0.4-5.3,8.7,0.1,15.2C41.4,38.7,41.6,38.8,41.9,38.8z M42.5,24.8h7.2h5.2h7.2c0.9,1.7,3.5,7.5,0.1,12   h-7.3h-5.2h-7.3C39,32.3,41.6,26.5,42.5,24.8z"></path><path d="M60.5,33.7c0.1,0.1,0.3,0.1,0.4,0.1c0.4,0,0.7-0.2,0.9-0.6c1.2-2.4,0-4.8,0-4.9c-0.2-0.5-0.8-0.7-1.3-0.4   c-0.5,0.2-0.7,0.8-0.4,1.3c0,0,0.8,1.6,0,3.1C59.8,32.9,60,33.5,60.5,33.7z"></path></g></svg>