<svg height='100px' width='100px'  fill="#000000" xmlns="http://www.w3.org/2000/svg" xmlns:xlink="http://www.w3.org/1999/xlink" version="1.1" x="0px" y="0px" viewBox="0 0 90 90" enable-background="new 0 0 90 90" xml:space="preserve"><path d="M45,34.2c-12.4,0-25-3.2-25-9.4s12.6-9.4,25-9.4s25,3.2,25,9.4S57.4,34.2,45,34.2z M45,18.3c-13.4,0-22,3.8-22,6.4  s8.6,6.4,22,6.4s22-3.8,22-6.4S58.4,18.3,45,18.3z"></path><path d="M45,74.7c-12.4,0-25-3.2-25-9.4h3c0,2.6,8.6,6.4,22,6.4s22-3.8,22-6.4h3C70,71.4,57.4,74.7,45,74.7z"></path><path d="M45,61.7c-12.4,0-25-3.2-25-9.4h3c0,2.6,8.6,6.4,22,6.4s22-3.8,22-6.4h3C70,58.4,57.4,61.7,45,61.7z"></path><path d="M45,47.7c-12.4,0-25-3.2-25-9.4h3c0,2.6,8.6,6.4,22,6.4s22-3.8,22-6.4h3C70,44.4,57.4,47.7,45,47.7z"></path><rect x="67" y="24.8" width="3" height="40.5"></rect><rect x="20" y="24.8" width="3" height="40.5"></rect><path d="M63,40.7c-1.7,0-3-1.4-3-3s1.4-3,3-3s3,1.4,3,3S64.7,40.7,63,40.7z M63,36.6c-0.6,0-1,0.5-1,1s0.5,1,1,1s1-0.5,1-1  S63.6,36.6,63,36.6z"></path><path d="M63,53.8c-1.7,0-3-1.4-3-3s1.4-3,3-3s3,1.4,3,3S64.7,53.8,63,53.8z M63,49.7c-0.6,0-1,0.5-1,1c0,0.6,0.5,1,1,1s1-0.5,1-1  C64,50.2,63.6,49.7,63,49.7z"></path><path d="M63,67.2c-1.7,0-3-1.4-3-3s1.4-3,3-3s3,1.4,3,3S64.7,67.2,63,67.2z M63,63.1c-0.6,0-1,0.5-1,1s0.5,1,1,1s1-0.5,1-1  S63.6,63.1,63,63.1z"></path></svg>