<svg height='100px' width='100px'  fill="#000000" xmlns="http://www.w3.org/2000/svg" xmlns:xlink="http://www.w3.org/1999/xlink" version="1.1" x="0px" y="0px" viewBox="0 0 100 100" style="enable-background:new 0 0 100 100;" xml:space="preserve"><g><path d="M91.2,3H8.8C5.5,3,3,5.6,3,8.8v12.8v69.5c0,3.3,2.7,5.8,5.8,5.8h82.3c3.3,0,5.8-2.7,5.8-5.8V21.7V8.8C97,5.6,94.4,3,91.2,3   z M8.8,6.7h82.3c1.2,0,2.1,1,2.1,2.1v10.9H6.7V8.8C6.7,7.7,7.7,6.7,8.8,6.7z M91.2,93.3H8.8c-1.2,0-2.1-1-2.1-2.1V23.6h86.6v67.7   C93.3,92.3,92.3,93.3,91.2,93.3z"></path><path d="M35.7,15.1h50.9c1,0,1.9-0.9,1.9-1.9s-0.9-1.9-1.9-1.9H35.7c-1,0-1.9,0.9-1.9,1.9C33.9,14.2,34.6,15.1,35.7,15.1z"></path><path d="M13.6,15.2c3.1,0,3.1-4.8,0-4.8S10.6,15.2,13.6,15.2z"></path><path d="M20.3,15.4c3.1,0,3.1-4.8,0-4.8S17.2,15.4,20.3,15.4z"></path><path d="M26.8,15.6c3.1,0,3.1-4.8,0-4.8S23.9,15.6,26.8,15.6z"></path></g></svg>