<svg height='100px' width='100px'  fill="#000000" xmlns="http://www.w3.org/2000/svg" xmlns:xlink="http://www.w3.org/1999/xlink" version="1.1" x="0px" y="0px" viewBox="0 0 64 64" style="enable-background:new 0 0 64 64;" xml:space="preserve"><g><path d="M47.4,23h-4.1V11.9c0-0.6-0.4-1-1-1H33V2h-2v8.9h-9.3c-0.6,0-1,0.4-1,1V23h-4.1c-0.6,0-1,0.4-1,1v38c0,0.6,0.4,1,1,1h30.8   c0.6,0,1-0.4,1-1V24C48.4,23.4,48,23,47.4,23z M22.7,12.9h18.6V23H22.7V12.9z M34.7,61h-5.4v-8.2h5.4V61z M46.4,61h-9.7v-9.2   c0-0.6-0.4-1-1-1h-7.4c-0.6,0-1,0.4-1,1V61h-9.7V25h28.8V61z"></path><path d="M20.5,36.3h4.7c0.6,0,1-0.4,1-1v-7.4c0-0.6-0.4-1-1-1h-4.7c-0.6,0-1,0.4-1,1v7.4C19.5,35.9,19.9,36.3,20.5,36.3z    M21.5,28.9h2.7v5.4h-2.7V28.9z"></path><path d="M29.6,36.3h4.7c0.6,0,1-0.4,1-1v-7.4c0-0.6-0.4-1-1-1h-4.7c-0.6,0-1,0.4-1,1v7.4C28.6,35.9,29,36.3,29.6,36.3z M30.6,28.9   h2.7v5.4h-2.7V28.9z"></path><path d="M38.8,36.3h4.7c0.6,0,1-0.4,1-1v-7.4c0-0.6-0.4-1-1-1h-4.7c-0.6,0-1,0.4-1,1v7.4C37.8,35.9,38.2,36.3,38.8,36.3z    M39.8,28.9h2.7v5.4h-2.7V28.9z"></path><path d="M20.5,47.7h4.7c0.6,0,1-0.4,1-1v-7.4c0-0.6-0.4-1-1-1h-4.7c-0.6,0-1,0.4-1,1v7.4C19.5,47.3,19.9,47.7,20.5,47.7z    M21.5,40.3h2.7v5.4h-2.7V40.3z"></path><path d="M29.6,47.7h4.7c0.6,0,1-0.4,1-1v-7.4c0-0.6-0.4-1-1-1h-4.7c-0.6,0-1,0.4-1,1v7.4C28.6,47.3,29,47.7,29.6,47.7z M30.6,40.3   h2.7v5.4h-2.7V40.3z"></path><path d="M38.8,47.7h4.7c0.6,0,1-0.4,1-1v-7.4c0-0.6-0.4-1-1-1h-4.7c-0.6,0-1,0.4-1,1v7.4C37.8,47.3,38.2,47.7,38.8,47.7z    M39.8,40.3h2.7v5.4h-2.7V40.3z"></path><rect x="25.4" y="15" width="13.2" height="2"></rect><rect x="25.4" y="19" width="13.2" height="2"></rect></g></svg>