<?xml version="1.0" encoding="iso-8859-1"?>
<!-- Generator: Adobe Illustrator 25.4.1, SVG Export Plug-In . SVG Version: 6.00 Build 0)  -->
<svg version="1.1" id="Layer_1" xmlns="http://www.w3.org/2000/svg" xmlns:xlink="http://www.w3.org/1999/xlink" x="0px" y="0px"
	 viewBox="0 0 313 142" style="enable-background:new 0 0 313 142;" xml:space="preserve">
<g>
	<defs>
		<rect id="SVGID_1_" x="42.875" y="43.002" width="40.251" height="43.367"/>
	</defs>
	<clipPath id="SVGID_00000000942645903619733450000011929177649583740043_">
		<use xlink:href="#SVGID_1_"  style="overflow:visible;"/>
	</clipPath>
	<path style="clip-path:url(#SVGID_00000000942645903619733450000011929177649583740043_);" d="M63.878,86.021
		c1.061-0.586,2.34-1.393,3.725-2.438V71.05l-3.725-2.478V86.021z"/>
	<path style="clip-path:url(#SVGID_00000000942645903619733450000011929177649583740043_);" d="M63.878,59.895l3.725,2.48v-6.333
		c-1.24-0.058-2.482-0.091-3.725-0.101V59.895z"/>
	<path style="clip-path:url(#SVGID_00000000942645903619733450000011929177649583740043_);" d="M75.056,56.701
		c-1.238-0.159-2.48-0.288-3.727-0.397v8.551l3.727,2.481V56.701z"/>
	<path style="clip-path:url(#SVGID_00000000942645903619733450000011929177649583740043_);" d="M71.329,73.531v6.816
		c1.253-1.246,2.515-2.687,3.727-4.326V76.01L71.329,73.531z"/>
	<path style="clip-path:url(#SVGID_00000000942645903619733450000011929177649583740043_);" d="M75.056,76.021
		c0.002-0.002,0.003-0.004,0.005-0.01l-0.005-0.002V76.021z"/>
	<path style="clip-path:url(#SVGID_00000000942645903619733450000011929177649583740043_);" d="M78.778,57.262v12.552l0.011,0.006
		c1.625-3.366,2.936-7.294,3.674-11.862l-0.127-0.025C81.158,57.687,79.97,57.465,78.778,57.262"/>
	<polygon style="clip-path:url(#SVGID_00000000942645903619733450000011929177649583740043_);" points="67.605,62.378 
		67.605,71.053 71.33,73.531 71.33,64.856 	"/>
	<path style="clip-path:url(#SVGID_00000000942645903619733450000011929177649583740043_);" d="M75.056,67.336v8.674l0.005,0.002
		c1.332-1.801,2.598-3.854,3.717-6.172v-0.025L75.056,67.336z"/>
	<path style="clip-path:url(#SVGID_00000000942645903619733450000011929177649583740043_);" d="M78.778,69.84
		c0.005-0.006,0.008-0.014,0.011-0.02l-0.011-0.005V69.84z"/>
	<path style="clip-path:url(#SVGID_00000000942645903619733450000011929177649583740043_);" d="M55.704,71.617
		c1.1-0.305,2.067-0.918,2.807-1.746c-0.406-0.147-0.88-0.293-1.428-0.414C56.678,70.357,56.168,71.076,55.704,71.617"/>
	<path style="clip-path:url(#SVGID_00000000942645903619733450000011929177649583740043_);" d="M49.793,69.873
		c0.74,0.828,1.71,1.443,2.811,1.746c-0.464-0.543-0.975-1.262-1.381-2.164C50.674,69.578,50.2,69.725,49.793,69.873"/>
	<path style="clip-path:url(#SVGID_00000000942645903619733450000011929177649583740043_);" d="M53.612,60.837
		c-0.405,0.445-0.879,1.072-1.274,1.864c0.399,0.053,0.823,0.09,1.274,0.106V60.837z"/>
	<path style="clip-path:url(#SVGID_00000000942645903619733450000011929177649583740043_);" d="M57.459,68.441
		c0.672,0.158,1.245,0.346,1.712,0.531c0.438-0.732,0.724-1.56,0.806-2.453h-2.173C57.76,67.214,57.637,67.857,57.459,68.441"/>
	<path style="clip-path:url(#SVGID_00000000942645903619733450000011929177649583740043_);" d="M52.604,60.345
		c-1.101,0.303-2.07,0.919-2.811,1.747c0.408,0.147,0.881,0.293,1.43,0.415C51.629,61.607,52.14,60.888,52.604,60.345"/>
	<path style="clip-path:url(#SVGID_00000000942645903619733450000011929177649583740043_);" d="M58.511,62.092
		c-0.739-0.827-1.707-1.442-2.807-1.745c0.464,0.542,0.976,1.262,1.38,2.16C57.632,62.386,58.106,62.239,58.511,62.092"/>
	<path style="clip-path:url(#SVGID_00000000942645903619733450000011929177649583740043_);" d="M57.804,65.445h2.173
		c-0.082-0.892-0.367-1.722-0.806-2.453c-0.467,0.184-1.039,0.372-1.712,0.53C57.637,64.107,57.76,64.749,57.804,65.445"/>
	<path style="clip-path:url(#SVGID_00000000942645903619733450000011929177649583740043_);" d="M54.688,71.133
		c0.406-0.445,0.885-1.072,1.282-1.869c-0.401-0.053-0.829-0.09-1.282-0.108V71.133z"/>
	<path style="clip-path:url(#SVGID_00000000942645903619733450000011929177649583740043_);" d="M53.612,66.519h-2.033
		c0.047,0.623,0.169,1.195,0.34,1.717c0.52-0.08,1.085-0.133,1.693-0.155V66.519z"/>
	<path style="clip-path:url(#SVGID_00000000942645903619733450000011929177649583740043_);" d="M54.688,68.082
		c0.61,0.021,1.179,0.074,1.701,0.154c0.17-0.521,0.293-1.093,0.339-1.716h-2.04V68.082z"/>
	<path style="clip-path:url(#SVGID_00000000942645903619733450000011929177649583740043_);" d="M55.974,62.701
		c-0.397-0.801-0.878-1.432-1.286-1.875v1.98C55.143,62.791,55.573,62.754,55.974,62.701"/>
	<path style="clip-path:url(#SVGID_00000000942645903619733450000011929177649583740043_);" d="M56.728,65.445
		c-0.046-0.624-0.167-1.197-0.337-1.718c-0.523,0.079-1.092,0.134-1.703,0.156v1.562H56.728z"/>
	<path style="clip-path:url(#SVGID_00000000942645903619733450000011929177649583740043_);" d="M52.338,69.263
		c0.396,0.789,0.869,1.416,1.274,1.863v-1.97C53.161,69.175,52.737,69.211,52.338,69.263"/>
	<path style="clip-path:url(#SVGID_00000000942645903619733450000011929177649583740043_);" d="M50.848,63.522
		c-0.675-0.158-1.247-0.346-1.717-0.53c-0.435,0.731-0.721,1.561-0.804,2.453h2.176C50.547,64.749,50.67,64.107,50.848,63.522"/>
	<path style="clip-path:url(#SVGID_00000000942645903619733450000011929177649583740043_);" d="M53.612,63.883
		c-0.608-0.021-1.173-0.076-1.693-0.155c-0.171,0.521-0.293,1.093-0.34,1.717h2.033V63.883z"/>
	<path style="clip-path:url(#SVGID_00000000942645903619733450000011929177649583740043_);" d="M50.503,66.519h-2.176
		c0.083,0.893,0.368,1.721,0.804,2.453c0.47-0.185,1.042-0.373,1.717-0.533C50.67,67.857,50.547,67.214,50.503,66.519"/>
	<path style="clip-path:url(#SVGID_00000000942645903619733450000011929177649583740043_);" d="M43.537,57.965
		c2.735,16.902,13.316,25.15,18.586,28.056v-30.08c-6.229,0.058-12.435,0.725-18.457,1.996L43.537,57.965z M54.151,59.055
		c3.82,0,6.928,3.107,6.928,6.927c0,3.816-3.108,6.926-6.928,6.926c-3.819,0-6.926-3.11-6.926-6.926
		C47.224,62.162,50.332,59.055,54.151,59.055"/>
	<path style="clip-path:url(#SVGID_00000000942645903619733450000011929177649583740043_);" d="M82.323,45.044l-0.014-0.007
		C76.08,43.708,69.622,43.002,63,43.002c-6.632,0-13.098,0.708-19.332,2.042l-0.027,0.007c-0.44,0.109-0.766,0.506-0.766,0.981
		l0.002,3.494c0,2.295,0.139,4.461,0.39,6.515c6.474-1.37,13.113-2.054,19.751-2.054c6.63,0,13.259,0.684,19.718,2.048
		c0.248-2.05,0.388-4.216,0.388-6.509l0.001-3.494C83.125,45.545,82.781,45.138,82.323,45.044 M77.971,53.692
		c-4.845-0.92-10.411-1.202-14.969-1.202h-0.004c-4.558,0-10.125,0.282-14.968,1.202c-0.183,0.037-0.345-0.13-0.244-0.324
		l3.187-7.036c0.032-0.065,2.091-1.084,2.091-1.084c2.617-0.55,6.925-0.308,9.931,0.798h0.011c3.006-1.106,7.313-1.348,9.93-0.798
		c0,0,2.058,1.019,2.091,1.084l3.185,7.036C78.315,53.562,78.154,53.729,77.971,53.692"/>
	<path style="clip-path:url(#SVGID_00000000942645903619733450000011929177649583740043_);" d="M72.107,46.455l1.34,3.588
		c-3.122-0.429-5.709-0.234-9.528,1.017v0.336c3.609-0.136,8.173-0.337,11.863,0.456l-2.011-4.625L72.107,46.455z"/>
	<path style="clip-path:url(#SVGID_00000000942645903619733450000011929177649583740043_);" d="M52.511,50.043l1.34-3.588
		l-1.663,0.773l-2.011,4.625c3.688-0.794,8.253-0.593,11.861-0.456v-0.336C58.22,49.809,55.632,49.614,52.511,50.043"/>
</g>
<g>
	<defs>
		<rect id="SVGID_00000096773676778465806590000013300367290943754668_" x="89.875" y="47.917" width="180" height="24.581"/>
	</defs>
	<clipPath id="SVGID_00000137107632177625727230000004809240071178070928_">
		<use xlink:href="#SVGID_00000096773676778465806590000013300367290943754668_"  style="overflow:visible;"/>
	</clipPath>
	<path style="clip-path:url(#SVGID_00000137107632177625727230000004809240071178070928_);" d="M95.024,52.328
		c0-3.159-0.284-3.5-1.963-3.643l-0.71-0.056c-0.172-0.114-0.115-0.626,0.056-0.711c1.65,0.056,2.617,0.085,3.812,0.085
		c1.138,0,2.105-0.029,3.243-0.085c0.171,0.085,0.228,0.597,0.058,0.711l-0.427,0.056c-1.679,0.229-1.736,0.625-1.736,3.643v10.555
		c0,2.246-0.114,4.209-0.654,5.517c-0.939,2.278-2.959,4.098-5.605,4.098c-0.341,0-1.223-0.029-1.223-0.598
		c0-0.484,0.426-1.31,1.024-1.31c0.341,0,0.683,0.056,1.053,0.172c0.399,0.113,0.796,0.199,1.195,0.199
		c0.597,0,0.939-0.342,1.138-0.74c0.654-1.338,0.739-5.604,0.739-7.141V52.328z"/>
	<path style="clip-path:url(#SVGID_00000137107632177625727230000004809240071178070928_);" d="M99.459,59.027
		c0-4.799,3.601-8.472,8.544-8.472c5.544,0,8.328,4.008,8.328,8.232c0,4.848-3.695,8.375-8.328,8.375
		C102.676,67.162,99.459,63.347,99.459,59.027 M113.931,59.531c0-3.959-1.751-8.232-6.335-8.232c-2.497,0-5.736,1.705-5.736,6.961
		c0,3.55,1.728,8.16,6.455,8.16C111.196,66.42,113.931,64.26,113.931,59.531"/>
	<path style="clip-path:url(#SVGID_00000137107632177625727230000004809240071178070928_);" d="M121.783,59.027
		c-1.152,0-1.2,0.049-1.2,0.77v3.382c0,2.52,0.12,2.856,1.463,3l0.696,0.073c0.145,0.095,0.096,0.527-0.047,0.599
		c-1.296-0.049-2.112-0.072-3.049-0.072c-1.031,0-1.848,0.049-2.783,0.072c-0.144-0.072-0.192-0.457-0.048-0.599l0.408-0.073
		c1.343-0.24,1.392-0.48,1.392-3v-8.64c0-2.52-0.168-2.927-1.416-3.024l-0.624-0.048c-0.145-0.096-0.096-0.528,0.047-0.6
		c1.176,0.023,1.993,0.072,3.024,0.072c0.937,0,1.753-0.023,2.784-0.072c0.145,0.072,0.193,0.504,0.048,0.6l-0.456,0.048
		c-1.391,0.144-1.439,0.504-1.439,3.024V57.3c0,0.743,0.048,0.768,1.2,0.768h6.864c1.152,0,1.2-0.025,1.2-0.768v-2.761
		c0-2.52-0.048-2.88-1.464-3.024l-0.456-0.048c-0.144-0.096-0.096-0.528,0.048-0.6c1.104,0.049,1.919,0.072,2.903,0.072
		c0.937,0,1.753-0.023,2.833-0.072c0.143,0.072,0.192,0.504,0.048,0.6l-0.504,0.048c-1.392,0.144-1.44,0.504-1.44,3.024v8.64
		c0,2.52,0.048,2.832,1.44,3l0.576,0.073c0.143,0.095,0.096,0.527-0.049,0.599c-1.151-0.049-1.967-0.072-2.904-0.072
		c-0.984,0-1.847,0.023-2.903,0.072c-0.144-0.072-0.192-0.457-0.048-0.599l0.456-0.073c1.464-0.24,1.464-0.48,1.464-3v-3.382
		c0-0.721-0.048-0.77-1.2-0.77H121.783z"/>
	<path style="clip-path:url(#SVGID_00000137107632177625727230000004809240071178070928_);" d="M150.224,62.699
		c0,0.721,0,3.576,0.072,4.199c-0.048,0.145-0.192,0.264-0.455,0.264c-0.289-0.406-0.985-1.246-3.073-3.623l-5.568-6.336
		c-0.648-0.744-2.28-2.712-2.784-3.238h-0.047c-0.097,0.287-0.121,0.838-0.121,1.558v5.233c0,1.127,0.024,4.248,0.432,4.966
		c0.145,0.266,0.625,0.409,1.224,0.457l0.744,0.073c0.145,0.191,0.12,0.48-0.048,0.599c-1.08-0.048-1.92-0.072-2.807-0.072
		c-1.009,0-1.657,0.024-2.497,0.072c-0.167-0.119-0.191-0.457-0.048-0.599l0.648-0.073c0.552-0.072,0.936-0.216,1.057-0.48
		c0.335-0.863,0.312-3.791,0.312-4.943V53.82c0-0.673-0.024-1.178-0.529-1.728c-0.336-0.336-0.911-0.505-1.488-0.577l-0.408-0.047
		c-0.144-0.144-0.144-0.503,0.049-0.601c1.007,0.072,2.28,0.072,2.711,0.072c0.384,0,0.792-0.023,1.104-0.072
		c0.48,1.225,3.312,4.393,4.104,5.281l2.328,2.615c1.656,1.848,2.832,3.192,3.96,4.344h0.048c0.096-0.119,0.096-0.504,0.096-1.008
		v-5.136c0-1.128-0.024-4.247-0.479-4.968c-0.145-0.216-0.529-0.36-1.489-0.48l-0.408-0.047c-0.168-0.144-0.144-0.529,0.048-0.601
		c1.104,0.049,1.921,0.072,2.832,0.072c1.032,0,1.655-0.023,2.472-0.072c0.192,0.121,0.192,0.457,0.049,0.601l-0.336,0.047
		c-0.768,0.12-1.249,0.313-1.345,0.504c-0.408,0.864-0.36,3.84-0.36,4.944V62.699z"/>
	<path style="clip-path:url(#SVGID_00000137107632177625727230000004809240071178070928_);" d="M156.568,67.162
		c-2.017,0-3.288-0.623-3.744-0.887c-0.288-0.529-0.6-2.232-0.649-3.359c0.121-0.17,0.481-0.217,0.577-0.072
		c0.359,1.222,1.343,3.576,4.127,3.576c2.017,0,3.001-1.321,3.001-2.76c0-1.057-0.216-2.232-1.969-3.361l-2.28-1.489
		c-1.199-0.791-2.591-2.16-2.591-4.127c0-2.28,1.776-4.127,4.896-4.127c0.744,0,1.608,0.144,2.232,0.311
		c0.312,0.098,0.648,0.145,0.839,0.145c0.216,0.575,0.433,1.92,0.433,2.927c-0.096,0.145-0.481,0.216-0.601,0.073
		c-0.312-1.153-0.959-2.713-3.264-2.713c-2.352,0-2.856,1.56-2.856,2.666c0,1.39,1.153,2.398,2.041,2.951l1.92,1.199
		c1.513,0.936,3,2.328,3,4.608C161.68,65.363,159.688,67.162,156.568,67.162"/>
	<path style="clip-path:url(#SVGID_00000137107632177625727230000004809240071178070928_);" d="M175.924,57.592
		c-1.365,0-1.422,0.055-1.422,0.908v4.012c0,2.986,0.142,3.385,1.735,3.557l0.826,0.086c0.17,0.113,0.114,0.625-0.058,0.708
		c-1.536-0.056-2.503-0.083-3.612-0.083c-1.224,0-2.192,0.056-3.301,0.083c-0.171-0.083-0.228-0.539-0.057-0.708l0.484-0.086
		c1.592-0.286,1.65-0.571,1.65-3.557V52.27c0-2.987-0.199-3.471-1.678-3.584l-0.74-0.057c-0.171-0.113-0.114-0.626,0.057-0.711
		c1.393,0.028,2.361,0.085,3.585,0.085c1.109,0,2.076-0.028,3.3-0.085c0.17,0.085,0.227,0.598,0.055,0.711l-0.54,0.057
		c-1.649,0.172-1.706,0.597-1.706,3.584v3.272c0,0.882,0.057,0.909,1.422,0.909h8.137c1.365,0,1.422-0.027,1.422-0.909V52.27
		c0-2.987-0.057-3.412-1.736-3.584l-0.541-0.057c-0.17-0.113-0.113-0.626,0.058-0.711c1.307,0.057,2.276,0.085,3.442,0.085
		c1.11,0,2.077-0.028,3.358-0.085c0.17,0.085,0.227,0.598,0.055,0.711l-0.596,0.057c-1.65,0.172-1.707,0.597-1.707,3.584v10.242
		c0,2.986,0.057,3.357,1.707,3.557l0.682,0.086c0.171,0.113,0.115,0.625-0.057,0.708c-1.365-0.056-2.332-0.083-3.442-0.083
		c-1.166,0-2.19,0.027-3.442,0.083c-0.171-0.083-0.228-0.539-0.058-0.708l0.541-0.086c1.736-0.286,1.736-0.571,1.736-3.557V58.5
		c0-0.853-0.057-0.908-1.422-0.908H175.924z"/>
	<path style="clip-path:url(#SVGID_00000137107632177625727230000004809240071178070928_);" d="M190.025,59.027
		c0-4.799,3.602-8.472,8.544-8.472c5.545,0,8.328,4.008,8.328,8.232c0,4.848-3.695,8.375-8.328,8.375
		C193.242,67.162,190.025,63.347,190.025,59.027 M204.497,59.531c0-3.959-1.751-8.232-6.336-8.232c-2.495,0-5.735,1.705-5.735,6.961
		c0,3.55,1.728,8.16,6.456,8.16C201.763,66.42,204.497,64.26,204.497,59.531"/>
	<path style="clip-path:url(#SVGID_00000137107632177625727230000004809240071178070928_);" d="M211.241,63.18
		c0,2.52,0.048,2.832,1.584,3l0.648,0.072c0.144,0.119,0.097,0.528-0.048,0.6c-1.368-0.049-2.16-0.072-3.12-0.072
		c-1.008,0-1.872,0.023-2.927,0.072c-0.145-0.072-0.193-0.457-0.048-0.6l0.504-0.072c1.391-0.191,1.439-0.48,1.439-3v-8.855
		c0-2.041-0.048-2.449-1.128-2.569l-0.864-0.097c-0.168-0.143-0.144-0.503,0.049-0.599c1.271-0.169,2.76-0.193,4.751-0.193
		c1.992,0,3.48,0.264,4.608,0.961c1.104,0.696,1.92,1.944,1.92,3.599c0,2.208-1.367,3.314-2.4,3.817
		c-1.056,0.504-2.327,0.719-3.312,0.719c-0.168-0.07-0.168-0.431-0.024-0.478c2.592-0.481,3.528-1.946,3.528-4.033
		c0-2.329-1.368-3.839-3.863-3.839c-1.273,0-1.297,0.094-1.297,0.864V63.18z"/>
	<path style="clip-path:url(#SVGID_00000137107632177625727230000004809240071178070928_);" d="M221.227,54.539
		c0-2.52-0.049-2.904-1.44-3.023l-0.601-0.048c-0.144-0.097-0.095-0.529,0.048-0.601c1.176,0.049,1.944,0.072,3.023,0.072
		c0.937,0,1.753-0.023,2.785-0.072c0.144,0.072,0.193,0.504,0.047,0.601l-0.455,0.048c-1.392,0.143-1.44,0.503-1.44,3.023v2.762
		c0,0.455,0.048,0.91,0.313,0.91c0.215,0,0.503-0.143,0.671-0.264c0.336-0.287,0.96-0.912,1.225-1.152l2.591-2.567
		c0.456-0.433,1.632-1.657,1.872-1.992c0.121-0.169,0.169-0.289,0.169-0.385c0-0.095-0.096-0.167-0.409-0.239l-0.648-0.144
		c-0.168-0.169-0.144-0.48,0.048-0.601c0.84,0.049,1.8,0.072,2.64,0.072s1.656-0.023,2.375-0.072
		c0.169,0.121,0.193,0.457,0.049,0.601c-0.624,0.048-1.559,0.288-2.231,0.672c-0.672,0.383-2.018,1.511-3.361,2.784l-2.16,2.039
		c-0.336,0.338-0.552,0.553-0.552,0.744c0,0.17,0.144,0.361,0.456,0.744c2.28,2.615,4.128,4.776,6.001,6.744
		c0.576,0.576,1.012,0.889,1.828,0.985l0.463,0.072c0.169,0.119,0.12,0.527-0.049,0.6c-0.624-0.049-1.282-0.073-2.41-0.073
		c-0.984,0-1.826,0.024-2.929,0.073c-0.168-0.049-0.239-0.458-0.096-0.6l0.552-0.098c0.337-0.047,0.576-0.119,0.576-0.238
		c0-0.145-0.168-0.336-0.337-0.553c-0.456-0.576-1.079-1.224-1.991-2.256l-1.92-2.16c-1.368-1.535-1.752-2.015-2.328-2.015
		c-0.36,0-0.408,0.312-0.408,1.152v3.096c0,2.519,0.048,2.855,1.392,3l0.649,0.072c0.142,0.096,0.096,0.527-0.049,0.6
		c-1.176-0.049-1.992-0.073-2.929-0.073c-0.983,0-1.799,0.024-2.783,0.073c-0.143-0.073-0.192-0.432-0.048-0.6l0.481-0.072
		c1.271-0.192,1.32-0.481,1.32-3V54.539z"/>
	<path style="clip-path:url(#SVGID_00000137107632177625727230000004809240071178070928_);" d="M237.7,54.588
		c0-2.544-0.048-2.953-1.465-3.072l-0.598-0.048c-0.145-0.097-0.097-0.528,0.046-0.601c1.201,0.049,2.017,0.073,3.025,0.073
		c0.96,0,1.776-0.024,2.975-0.073c0.145,0.073,0.193,0.504,0.049,0.601l-0.6,0.048c-1.416,0.119-1.464,0.528-1.464,3.072v8.543
		c0,2.545,0.048,2.881,1.464,3.049l0.6,0.072c0.144,0.096,0.096,0.527-0.049,0.6c-1.199-0.049-2.015-0.073-2.975-0.073
		c-1.008,0-1.733,0.024-2.932,0.073c-0.144-0.073-0.192-0.457-0.048-0.6l0.507-0.072c1.417-0.168,1.465-0.504,1.465-3.049V54.588z"
		/>
	<path style="clip-path:url(#SVGID_00000137107632177625727230000004809240071178070928_);" d="M258.46,62.699
		c0,0.721,0,3.576,0.073,4.199c-0.048,0.145-0.192,0.264-0.456,0.264c-0.288-0.406-0.984-1.246-3.072-3.623l-5.568-6.336
		c-0.648-0.744-2.281-2.712-2.784-3.238h-0.047c-0.097,0.287-0.122,0.838-0.122,1.558v5.233c0,1.127,0.025,4.248,0.433,4.966
		c0.145,0.266,0.624,0.409,1.224,0.457l0.744,0.073c0.143,0.191,0.119,0.48-0.048,0.599c-1.08-0.048-1.92-0.072-2.808-0.072
		c-1.007,0-1.656,0.024-2.495,0.072c-0.169-0.119-0.193-0.457-0.049-0.599l0.649-0.073c0.551-0.072,0.935-0.216,1.055-0.48
		c0.336-0.863,0.312-3.791,0.312-4.943V53.82c0-0.673-0.024-1.178-0.528-1.728c-0.336-0.336-0.912-0.505-1.488-0.577l-0.408-0.047
		c-0.144-0.144-0.144-0.503,0.049-0.601c1.008,0.072,2.279,0.072,2.711,0.072c0.384,0,0.792-0.023,1.104-0.072
		c0.481,1.225,3.312,4.393,4.103,5.281l2.329,2.615c1.656,1.848,2.831,3.192,3.96,4.344h0.048c0.096-0.119,0.096-0.504,0.096-1.008
		v-5.136c0-1.128-0.024-4.247-0.48-4.968c-0.144-0.216-0.527-0.36-1.487-0.48l-0.408-0.047c-0.169-0.144-0.145-0.529,0.046-0.601
		c1.105,0.049,1.92,0.072,2.833,0.072c1.033,0,1.656-0.023,2.471-0.072c0.193,0.121,0.193,0.457,0.049,0.601l-0.336,0.047
		c-0.768,0.12-1.248,0.313-1.345,0.504c-0.408,0.864-0.36,3.84-0.36,4.944V62.699z"/>
	<path style="clip-path:url(#SVGID_00000137107632177625727230000004809240071178070928_);" d="M264.764,67.162
		c-2.017,0-3.288-0.623-3.745-0.887c-0.287-0.529-0.6-2.232-0.649-3.359c0.122-0.17,0.482-0.217,0.577-0.072
		c0.36,1.222,1.344,3.576,4.129,3.576c2.015,0,3-1.321,3-2.76c0-1.057-0.217-2.232-1.969-3.361l-2.279-1.489
		c-1.201-0.791-2.593-2.16-2.593-4.127c0-2.28,1.776-4.127,4.897-4.127c0.743,0,1.607,0.144,2.232,0.311
		c0.312,0.098,0.647,0.145,0.838,0.145c0.217,0.575,0.433,1.92,0.433,2.927c-0.097,0.145-0.479,0.216-0.6,0.073
		c-0.312-1.153-0.959-2.713-3.263-2.713c-2.353,0-2.857,1.56-2.857,2.666c0,1.39,1.153,2.398,2.039,2.951l1.921,1.199
		c1.512,0.936,3,2.328,3,4.608C269.875,65.363,267.883,67.162,264.764,67.162"/>
</g>
<g>
	<defs>
		<rect id="SVGID_00000117643770165325515100000013146845286238655927_" width="313" height="142"/>
	</defs>
	<clipPath id="SVGID_00000164493162003307120860000003924755229309500039_">
		<use xlink:href="#SVGID_00000117643770165325515100000013146845286238655927_"  style="overflow:visible;"/>
	</clipPath>
	<path style="clip-path:url(#SVGID_00000164493162003307120860000003924755229309500039_);" d="M120.355,77.77
		c-0.074-0.074-0.062-0.248,0.037-0.297c0.335,0.024,0.893,0.037,1.277,0.037c0.348,0,0.981-0.013,1.415-0.037
		c0.112,0.037,0.099,0.211,0.025,0.297l-0.285,0.025c-0.261,0.026-0.41,0.1-0.41,0.211c0,0.149,0.261,0.782,0.645,1.662
		c0.694,1.551,1.427,3.102,2.147,4.627c0.297-0.621,0.631-1.314,0.955-2.009c0.112-0.237,0.198-0.448,0.198-0.508
		c0-0.063-0.037-0.174-0.1-0.322c-0.433-0.995-0.892-1.987-1.364-2.979c-0.186-0.385-0.372-0.645-0.794-0.682l-0.297-0.025
		c-0.088-0.1-0.075-0.248,0.025-0.297c0.359,0.024,0.831,0.037,1.327,0.037c0.62,0,1.079-0.013,1.365-0.037
		c0.086,0.037,0.099,0.197,0.024,0.297l-0.323,0.025c-0.483,0.037-0.496,0.123-0.26,0.682c0.26,0.607,0.608,1.391,0.956,2.158
		c0.235-0.482,0.459-0.955,0.732-1.625c0.445-1.054,0.384-1.189-0.014-1.215l-0.371-0.025c-0.088-0.123-0.062-0.26,0.025-0.297
		c0.335,0.024,0.707,0.037,1.166,0.037c0.409,0,0.905-0.013,1.19-0.037c0.088,0.037,0.1,0.197,0.025,0.297l-0.359,0.025
		c-0.521,0.037-0.744,0.596-1.018,1.104c-0.26,0.459-0.781,1.539-0.967,1.973c-0.062,0.125-0.113,0.248-0.113,0.296
		c0,0.051,0.026,0.151,0.088,0.299c0.422,0.955,0.856,1.885,1.266,2.828c0.384-0.869,0.756-1.736,1.115-2.617
		c0.248-0.595,0.906-2.246,0.993-2.469c0.161-0.447,0.372-0.98,0.372-1.128c0-0.174-0.148-0.274-0.409-0.286l-0.36-0.025
		c-0.099-0.111-0.086-0.248,0.013-0.297c0.471,0.024,0.806,0.037,1.19,0.037c0.473,0,0.832-0.013,1.154-0.037
		c0.1,0.037,0.112,0.197,0.026,0.297l-0.237,0.025c-0.62,0.063-0.732,0.434-1.476,2.159l-0.906,2.095
		c-0.545,1.266-1.041,2.483-1.55,3.809c-0.037,0.025-0.087,0.037-0.15,0.037c-0.061,0-0.123-0.012-0.173-0.037
		c-0.397-1.104-1.116-2.654-1.501-3.524c-0.447,0.907-1.191,2.495-1.55,3.524c-0.037,0.025-0.087,0.037-0.149,0.037
		c-0.062,0-0.125-0.012-0.186-0.037c-0.211-0.52-0.695-1.637-0.857-1.996c-0.793-1.725-1.562-3.449-2.369-5.174
		c-0.236-0.508-0.385-0.844-0.905-0.893L120.355,77.77z"/>
	<path style="clip-path:url(#SVGID_00000164493162003307120860000003924755229309500039_);" d="M136.143,81.689
		c-0.596,0-0.621,0.025-0.621,0.396v1.75c0,1.303,0.062,1.477,0.757,1.551l0.36,0.037c0.074,0.049,0.049,0.274-0.025,0.311
		c-0.67-0.025-1.092-0.037-1.576-0.037c-0.534,0-0.956,0.023-1.439,0.037c-0.074-0.037-0.099-0.236-0.024-0.311l0.211-0.037
		c0.694-0.125,0.718-0.248,0.718-1.551v-4.466c0-1.301-0.086-1.512-0.731-1.563l-0.323-0.025c-0.075-0.049-0.049-0.272,0.025-0.309
		c0.607,0.012,1.029,0.037,1.563,0.037c0.484,0,0.906-0.013,1.439-0.037c0.074,0.037,0.1,0.26,0.025,0.309l-0.236,0.025
		c-0.719,0.074-0.744,0.262-0.744,1.563v1.427c0,0.385,0.025,0.397,0.621,0.397h3.547c0.596,0,0.621-0.012,0.621-0.397v-1.427
		c0-1.301-0.025-1.489-0.758-1.563l-0.234-0.025c-0.075-0.049-0.051-0.272,0.023-0.309c0.572,0.024,0.993,0.037,1.502,0.037
		c0.484,0,0.905-0.013,1.464-0.037c0.074,0.037,0.099,0.26,0.024,0.309l-0.259,0.025c-0.721,0.074-0.745,0.262-0.745,1.563v4.466
		c0,1.303,0.024,1.463,0.745,1.551l0.297,0.037c0.074,0.049,0.049,0.274-0.025,0.311c-0.596-0.025-1.017-0.037-1.501-0.037
		c-0.509,0-0.955,0.012-1.502,0.037c-0.074-0.037-0.098-0.236-0.023-0.311l0.234-0.037c0.758-0.125,0.758-0.248,0.758-1.551v-1.75
		c0-0.371-0.025-0.396-0.621-0.396H136.143z"/>
	<path style="clip-path:url(#SVGID_00000164493162003307120860000003924755229309500039_);" d="M145.119,79.395
		c0-1.314-0.025-1.525-0.757-1.588l-0.309-0.025c-0.075-0.049-0.051-0.272,0.024-0.309c0.62,0.024,1.042,0.037,1.563,0.037
		c0.497,0,0.918-0.013,1.538-0.037c0.075,0.037,0.099,0.26,0.025,0.309l-0.311,0.025c-0.731,0.063-0.755,0.274-0.755,1.588v4.416
		c0,1.316,0.024,1.488,0.755,1.576l0.311,0.037c0.074,0.049,0.05,0.274-0.025,0.311c-0.62-0.026-1.041-0.037-1.538-0.037
		c-0.521,0-0.943,0.011-1.563,0.037c-0.075-0.037-0.099-0.236-0.024-0.311l0.309-0.037c0.732-0.088,0.757-0.26,0.757-1.576V79.395z"
		/>
	<path style="clip-path:url(#SVGID_00000164493162003307120860000003924755229309500039_);" d="M152.907,83.836
		c0,1.303,0.024,1.488,0.745,1.551l0.397,0.037c0.074,0.049,0.049,0.273-0.026,0.311c-0.707-0.026-1.129-0.038-1.625-0.038
		s-0.929,0.012-1.724,0.038c-0.075-0.038-0.099-0.249,0-0.311l0.447-0.037c0.707-0.063,0.769-0.248,0.769-1.551v-5.545
		c0-0.385,0-0.396-0.373-0.396h-0.681c-0.534,0-1.216,0.023-1.526,0.308c-0.299,0.274-0.421,0.547-0.558,0.858
		c-0.1,0.074-0.274,0.011-0.323-0.088c0.198-0.559,0.384-1.352,0.471-1.848c0.037-0.025,0.199-0.037,0.236,0
		c0.075,0.397,0.484,0.385,1.055,0.385h5.024c0.67,0,0.781-0.026,0.967-0.348c0.062-0.025,0.199-0.012,0.224,0.037
		c-0.137,0.508-0.224,1.514-0.186,1.885c-0.05,0.1-0.261,0.1-0.324,0.026c-0.037-0.311-0.123-0.77-0.309-0.907
		c-0.285-0.211-0.757-0.308-1.439-0.308h-0.881c-0.373,0-0.36,0.011-0.36,0.421V83.836z"/>
	<path style="clip-path:url(#SVGID_00000164493162003307120860000003924755229309500039_);" d="M158.734,79.395
		c0-1.314-0.025-1.525-0.758-1.588l-0.309-0.025c-0.075-0.049-0.05-0.272,0.024-0.309c0.621,0.024,1.043,0.037,1.564,0.037
		c0.496,0,0.918-0.013,1.538-0.037c0.074,0.037,0.099,0.26,0.025,0.309l-0.311,0.025c-0.732,0.063-0.756,0.274-0.756,1.588v4.416
		c0,1.316,0.024,1.488,0.756,1.576l0.311,0.037c0.074,0.049,0.049,0.274-0.025,0.311c-0.62-0.026-1.042-0.037-1.538-0.037
		c-0.521,0-0.943,0.011-1.564,0.037c-0.074-0.037-0.099-0.236-0.024-0.311l0.309-0.037c0.733-0.088,0.758-0.26,0.758-1.576V79.395z"
		/>
	<path style="clip-path:url(#SVGID_00000164493162003307120860000003924755229309500039_);" d="M170.22,83.588
		c0,0.373,0,1.848,0.037,2.172c-0.024,0.074-0.099,0.135-0.235,0.135c-0.15-0.211-0.51-0.645-1.588-1.873l-2.879-3.276
		c-0.334-0.383-1.178-1.4-1.439-1.674h-0.024c-0.051,0.149-0.062,0.434-0.062,0.807v2.705c0,0.582,0.011,2.195,0.222,2.566
		c0.075,0.137,0.323,0.211,0.633,0.237l0.385,0.037c0.074,0.1,0.062,0.248-0.025,0.311c-0.558-0.026-0.993-0.038-1.452-0.038
		c-0.52,0-0.855,0.012-1.289,0.038c-0.088-0.063-0.099-0.237-0.025-0.311l0.335-0.037c0.285-0.037,0.483-0.112,0.546-0.248
		c0.173-0.447,0.161-1.961,0.161-2.555v-3.586c0-0.347-0.013-0.607-0.273-0.892c-0.174-0.174-0.471-0.262-0.769-0.299l-0.211-0.026
		c-0.074-0.074-0.074-0.259,0.025-0.308c0.521,0.037,1.178,0.037,1.402,0.037c0.198,0,0.409-0.014,0.571-0.037
		c0.248,0.633,1.711,2.269,2.121,2.728l1.203,1.352c0.856,0.955,1.463,1.65,2.047,2.246h0.024c0.05-0.063,0.05-0.26,0.05-0.522
		v-2.654c0-0.584-0.012-2.195-0.248-2.568c-0.074-0.112-0.273-0.186-0.769-0.248l-0.211-0.026c-0.086-0.074-0.075-0.271,0.025-0.308
		c0.57,0.023,0.992,0.037,1.463,0.037c0.534,0,0.856-0.014,1.278-0.037c0.1,0.06,0.1,0.234,0.025,0.308l-0.174,0.026
		c-0.397,0.062-0.645,0.162-0.693,0.262c-0.211,0.445-0.187,1.984-0.187,2.554V83.588z"/>
	<path style="clip-path:url(#SVGID_00000164493162003307120860000003924755229309500039_);" d="M180.002,84.432
		c0,0.496,0.075,0.793,0.299,0.881c0.037,0.037,0.037,0.111-0.013,0.148c-0.149,0-0.372,0.049-0.608,0.112
		c-0.658,0.173-1.551,0.322-2.221,0.322c-1.476,0-2.828-0.408-3.783-1.377c-0.744-0.744-1.141-1.725-1.141-2.815
		c0-1.054,0.347-2.123,1.115-2.941c0.832-0.867,2.061-1.451,3.934-1.451c0.707,0,1.364,0.137,1.575,0.185
		c0.235,0.051,0.62,0.137,0.769,0.114c0,0.408,0.074,1.052,0.186,1.799c-0.037,0.097-0.261,0.111-0.335,0.037
		c-0.347-1.34-1.277-1.762-2.543-1.762c-2.406,0-3.461,1.711-3.461,3.572c0,2.381,1.229,4.254,3.721,4.254
		c0.77,0,1.229-0.16,1.365-0.371c0.063-0.088,0.124-0.311,0.124-0.707v-0.496c0-1.043-0.037-1.117-0.805-1.203l-0.547-0.063
		c-0.1-0.049-0.086-0.273,0-0.31c0.359,0.025,1.043,0.037,1.774,0.037c0.484,0,0.905-0.012,1.316-0.037
		c0.086,0.051,0.098,0.236,0.011,0.31l-0.198,0.026c-0.52,0.06-0.534,0.408-0.534,1.041V84.432z"/>
	<path style="clip-path:url(#SVGID_00000164493162003307120860000003924755229309500039_);" d="M188.346,85.895
		c-1.042,0-1.699-0.322-1.936-0.459c-0.148-0.271-0.31-1.152-0.334-1.736c0.062-0.086,0.249-0.112,0.297-0.037
		c0.187,0.632,0.696,1.847,2.134,1.847c1.042,0,1.551-0.681,1.551-1.426c0-0.544-0.112-1.154-1.017-1.736l-1.179-0.769
		c-0.62-0.411-1.34-1.118-1.34-2.133c0-1.18,0.918-2.135,2.531-2.135c0.385,0,0.831,0.074,1.154,0.162
		c0.16,0.049,0.334,0.074,0.434,0.074c0.111,0.297,0.223,0.993,0.223,1.514c-0.049,0.074-0.248,0.111-0.31,0.037
		c-0.161-0.596-0.496-1.402-1.687-1.402c-1.216,0-1.476,0.806-1.476,1.377c0,0.718,0.596,1.24,1.055,1.525l0.992,0.621
		c0.781,0.485,1.551,1.203,1.551,2.381C190.989,84.965,189.959,85.895,188.346,85.895"/>
	<path style="clip-path:url(#SVGID_00000164493162003307120860000003924755229309500039_);" d="M194.049,78.365
		c0.906-0.707,2.06-1.055,3.35-1.055c0.67,0,1.613,0.137,2.196,0.299c0.149,0.037,0.235,0.061,0.347,0.049
		c0.012,0.285,0.074,1.066,0.173,1.824c-0.061,0.086-0.248,0.098-0.334,0.024c-0.186-0.844-0.745-1.811-2.544-1.811
		c-1.897,0-3.51,1.203-3.51,3.772c0,2.605,1.65,4.043,3.684,4.043c1.601,0,2.308-1.041,2.593-1.774
		c0.087-0.062,0.274-0.037,0.322,0.051c-0.086,0.644-0.409,1.463-0.595,1.699c-0.149,0.024-0.297,0.074-0.434,0.123
		c-0.273,0.1-1.166,0.285-1.96,0.285c-1.116,0-2.184-0.222-3.089-0.83c-0.992-0.683-1.761-1.812-1.761-3.412
		C192.487,80.275,193.107,79.097,194.049,78.365"/>
	<path style="clip-path:url(#SVGID_00000164493162003307120860000003924755229309500039_);" d="M204.392,81.689
		c-0.596,0-0.62,0.025-0.62,0.396v1.75c0,1.303,0.061,1.477,0.756,1.551l0.36,0.037c0.074,0.049,0.05,0.274-0.024,0.311
		c-0.67-0.025-1.092-0.037-1.576-0.037c-0.534,0-0.956,0.023-1.44,0.037c-0.074-0.037-0.099-0.236-0.023-0.311l0.21-0.037
		c0.694-0.125,0.719-0.248,0.719-1.551v-4.466c0-1.301-0.087-1.512-0.732-1.563l-0.322-0.025c-0.075-0.049-0.049-0.272,0.025-0.309
		c0.607,0.012,1.029,0.037,1.563,0.037c0.484,0,0.906-0.013,1.439-0.037c0.074,0.037,0.1,0.26,0.024,0.309l-0.235,0.025
		c-0.72,0.074-0.744,0.262-0.744,1.563v1.427c0,0.385,0.024,0.397,0.62,0.397h3.548c0.596,0,0.62-0.012,0.62-0.397v-1.427
		c0-1.301-0.024-1.489-0.757-1.563l-0.235-0.025c-0.075-0.049-0.05-0.272,0.024-0.309c0.571,0.024,0.992,0.037,1.502,0.037
		c0.483,0,0.904-0.013,1.463-0.037c0.074,0.037,0.1,0.26,0.025,0.309l-0.26,0.025c-0.72,0.074-0.745,0.262-0.745,1.563v4.466
		c0,1.303,0.025,1.463,0.745,1.551l0.298,0.037c0.074,0.049,0.048,0.274-0.026,0.311c-0.596-0.025-1.017-0.037-1.5-0.037
		c-0.51,0-0.956,0.012-1.502,0.037c-0.074-0.037-0.099-0.236-0.024-0.311l0.235-0.037c0.757-0.125,0.757-0.248,0.757-1.551v-1.75
		c0-0.371-0.024-0.396-0.62-0.396H204.392z"/>
	<path style="clip-path:url(#SVGID_00000164493162003307120860000003924755229309500039_);" d="M212.215,81.689
		c0-2.48,1.86-4.379,4.416-4.379c2.865,0,4.304,2.073,4.304,4.256c0,2.506-1.91,4.328-4.304,4.328
		C213.877,85.894,212.215,83.922,212.215,81.689 M219.695,81.951c0-2.047-0.906-4.256-3.275-4.256c-1.291,0-2.965,0.881-2.965,3.598
		c0,1.836,0.892,4.217,3.337,4.217C218.28,85.51,219.695,84.394,219.695,81.951"/>
	<path style="clip-path:url(#SVGID_00000164493162003307120860000003924755229309500039_);" d="M222.693,81.689
		c0-2.48,1.86-4.379,4.416-4.379c2.866,0,4.304,2.073,4.304,4.256c0,2.506-1.91,4.328-4.304,4.328
		C224.355,85.894,222.693,83.922,222.693,81.689 M230.173,81.951c0-2.047-0.905-4.256-3.275-4.256c-1.291,0-2.965,0.881-2.965,3.598
		c0,1.836,0.893,4.217,3.337,4.217C228.758,85.51,230.173,84.394,230.173,81.951"/>
	<path style="clip-path:url(#SVGID_00000164493162003307120860000003924755229309500039_);" d="M234.088,79.369
		c0-1.301-0.025-1.5-0.807-1.562l-0.31-0.026c-0.074-0.049-0.049-0.271,0.025-0.308c0.696,0.023,1.117,0.037,1.613,0.037
		c0.484,0,0.906-0.014,1.526-0.037c0.074,0.037,0.099,0.259,0.025,0.308l-0.299,0.026c-0.731,0.062-0.755,0.261-0.755,1.562v4.318
		c0,0.782,0.037,1.104,0.259,1.34c0.137,0.137,0.373,0.285,1.353,0.285c1.055,0,1.315-0.05,1.514-0.162
		c0.248-0.148,0.57-0.595,0.818-1.228c0.075-0.061,0.311-0.012,0.311,0.076c0,0.135-0.348,1.4-0.521,1.736
		c-0.633-0.025-1.813-0.037-3.09-0.037h-1.141c-0.521,0-0.917,0.012-1.613,0.037c-0.074-0.037-0.099-0.236-0.025-0.31l0.373-0.037
		c0.719-0.075,0.744-0.248,0.744-1.551V79.369z"/>
	<path style="clip-path:url(#SVGID_00000164493162003307120860000003924755229309500039_);" d="M132.386,95.688
		c-0.037,0.681-0.398,1.873-1.316,2.816c-0.768,0.793-1.438,0.856-1.773,0.856c-0.794,0-1.314-0.582-1.24-1.651
		c0.049-0.767,0.508-1.971,1.351-2.777c0.646-0.621,1.203-0.807,1.712-0.807C132.001,94.125,132.436,94.781,132.386,95.688
		 M130.128,95.092c-0.72,0.969-1.203,2.443-1.241,3.102c-0.025,0.433,0.149,0.794,0.51,0.794c0.272,0,0.582-0.113,0.979-0.646
		c0.546-0.73,1.129-2.369,1.153-3.025c0.013-0.385-0.061-0.821-0.496-0.821C130.785,94.496,130.488,94.61,130.128,95.092"/>
	<path style="clip-path:url(#SVGID_00000164493162003307120860000003924755229309500039_);" d="M135.98,94.758
		c-0.074,0.211-0.174,0.607-0.322,1.152c-0.372,1.391-0.707,2.582-1.104,3.946c-0.323,1.117-0.732,1.75-0.98,1.998
		c-0.186,0.174-0.757,0.67-1.489,0.67c-0.669,0-0.906-0.422-0.906-0.608c0-0.248,0.149-0.459,0.285-0.558
		c0.1-0.075,0.211-0.038,0.286,0.048c0.298,0.311,0.669,0.51,0.943,0.51c0.248,0,0.508-0.088,0.794-1.043
		c0.57-1.959,1.005-4.094,1.6-6.115h-1.03c-0.124-0.111-0.074-0.348,0.087-0.459h1.066c0.324-1.117,0.659-2.084,1.391-2.953
		c0.619-0.733,1.265-1.029,1.984-1.029c0.459,0,0.956,0.322,0.956,0.818c0,0.322-0.335,0.707-0.534,0.707
		c-0.111,0-0.162-0.111-0.173-0.199c-0.038-0.682-0.385-0.905-0.696-0.905c-0.272,0-0.607,0.249-0.892,0.67
		c-0.571,0.83-0.819,1.711-1.155,2.891h1.551c0.088,0.137,0.063,0.322-0.123,0.459H135.98z"/>
	<path style="clip-path:url(#SVGID_00000164493162003307120860000003924755229309500039_);" d="M143.222,92.859
		c0-1.291-0.024-1.477-0.757-1.562l-0.198-0.026c-0.075-0.049-0.05-0.273,0.024-0.311c0.533,0.026,0.955,0.038,1.464,0.038h2.333
		c0.793,0,1.526,0,1.674-0.038c0.074,0.212,0.149,1.104,0.199,1.651c-0.05,0.074-0.248,0.099-0.31,0.025
		c-0.186-0.584-0.298-1.017-0.944-1.179c-0.259-0.063-0.656-0.075-1.203-0.075h-0.892c-0.373,0-0.373,0.026-0.373,0.496v2.481
		c0,0.348,0.038,0.348,0.41,0.348h0.719c0.521,0,0.906-0.024,1.054-0.075c0.15-0.048,0.236-0.123,0.299-0.433l0.099-0.508
		c0.061-0.076,0.272-0.076,0.322,0.012c0,0.297-0.05,0.781-0.05,1.252c0,0.447,0.05,0.918,0.05,1.191
		c-0.05,0.088-0.261,0.088-0.322,0.012l-0.113-0.483c-0.049-0.224-0.135-0.41-0.383-0.472c-0.174-0.049-0.472-0.061-0.956-0.061
		h-0.719c-0.372,0-0.41,0.012-0.41,0.334v1.75c0,0.656,0.038,1.078,0.236,1.289c0.148,0.149,0.409,0.285,1.501,0.285
		c0.955,0,1.315-0.048,1.588-0.185c0.223-0.123,0.557-0.559,0.881-1.203c0.087-0.063,0.26-0.026,0.309,0.086
		c-0.086,0.435-0.396,1.39-0.557,1.724c-1.117-0.023-2.221-0.037-3.326-0.037h-1.116c-0.533,0-0.955,0.014-1.686,0.037
		c-0.075-0.037-0.1-0.234-0.026-0.308l0.41-0.039c0.708-0.061,0.769-0.248,0.769-1.549V92.859z"/>
	<path style="clip-path:url(#SVGID_00000164493162003307120860000003924755229309500039_);" d="M157.758,97.076
		c0,0.373,0,1.85,0.037,2.172c-0.025,0.074-0.099,0.137-0.236,0.137c-0.149-0.211-0.508-0.645-1.588-1.873l-2.877-3.276
		c-0.336-0.385-1.18-1.402-1.44-1.674h-0.025c-0.049,0.149-0.061,0.434-0.061,0.805v2.705c0,0.584,0.012,2.195,0.223,2.568
		c0.074,0.137,0.322,0.211,0.633,0.235l0.384,0.039c0.075,0.098,0.062,0.248-0.025,0.308c-0.558-0.023-0.992-0.037-1.451-0.037
		c-0.521,0-0.856,0.014-1.291,0.037c-0.086-0.06-0.098-0.234-0.024-0.308l0.335-0.039c0.285-0.037,0.484-0.112,0.546-0.248
		c0.173-0.446,0.161-1.959,0.161-2.555v-3.586c0-0.346-0.012-0.607-0.274-0.892c-0.173-0.174-0.47-0.26-0.768-0.297l-0.211-0.026
		c-0.074-0.074-0.074-0.259,0.024-0.31c0.522,0.037,1.18,0.037,1.403,0.037c0.198,0,0.409-0.012,0.57-0.037
		c0.248,0.633,1.713,2.269,2.121,2.73l1.203,1.352c0.857,0.955,1.465,1.65,2.047,2.244h0.025c0.05-0.061,0.05-0.26,0.05-0.52v-2.656
		c0-0.582-0.012-2.195-0.248-2.566c-0.075-0.112-0.272-0.188-0.768-0.248l-0.211-0.026c-0.088-0.074-0.076-0.273,0.024-0.31
		c0.57,0.025,0.992,0.037,1.464,0.037c0.533,0,0.855-0.012,1.277-0.037c0.1,0.062,0.1,0.236,0.026,0.31l-0.174,0.026
		c-0.398,0.06-0.646,0.16-0.695,0.259c-0.211,0.448-0.186,1.985-0.186,2.555V97.076z"/>
	<path style="clip-path:url(#SVGID_00000164493162003307120860000003924755229309500039_);" d="M167.23,97.92
		c0,0.496,0.075,0.795,0.299,0.881c0.037,0.037,0.037,0.113-0.013,0.15c-0.149,0-0.372,0.049-0.608,0.112
		c-0.657,0.173-1.551,0.322-2.221,0.322c-1.476,0-2.828-0.41-3.783-1.377c-0.744-0.744-1.141-1.725-1.141-2.817
		c0-1.054,0.347-2.121,1.115-2.939c0.832-0.869,2.061-1.451,3.934-1.451c0.707,0,1.364,0.135,1.575,0.185
		c0.236,0.049,0.62,0.137,0.769,0.112c0,0.41,0.074,1.054,0.186,1.799c-0.037,0.099-0.26,0.111-0.335,0.037
		c-0.347-1.34-1.277-1.762-2.543-1.762c-2.406,0-3.461,1.713-3.461,3.572c0,2.383,1.229,4.256,3.721,4.256
		c0.77,0,1.229-0.162,1.365-0.373c0.063-0.086,0.124-0.308,0.124-0.707v-0.496c0-1.041-0.037-1.115-0.805-1.203l-0.547-0.063
		c-0.1-0.048-0.086-0.271,0-0.308c0.359,0.023,1.043,0.037,1.774,0.037c0.484,0,0.906-0.014,1.316-0.037
		c0.086,0.049,0.098,0.234,0.011,0.308l-0.198,0.026c-0.52,0.062-0.534,0.41-0.534,1.043V97.92z"/>
	<path style="clip-path:url(#SVGID_00000164493162003307120860000003924755229309500039_);" d="M170.639,92.885
		c0-1.316-0.025-1.527-0.758-1.588l-0.309-0.025c-0.075-0.049-0.05-0.274,0.024-0.311c0.621,0.026,1.043,0.037,1.564,0.037
		c0.496,0,0.917-0.011,1.538-0.037c0.074,0.037,0.099,0.262,0.025,0.311l-0.311,0.025c-0.732,0.061-0.756,0.272-0.756,1.588v4.416
		c0,1.314,0.024,1.488,0.756,1.574l0.311,0.039c0.074,0.049,0.049,0.272-0.025,0.309c-0.621-0.024-1.042-0.037-1.538-0.037
		c-0.521,0-0.943,0.013-1.564,0.037c-0.074-0.037-0.099-0.234-0.024-0.309l0.309-0.039c0.733-0.086,0.758-0.26,0.758-1.574V92.885z"
		/>
	<path style="clip-path:url(#SVGID_00000164493162003307120860000003924755229309500039_);" d="M182.123,97.076
		c0,0.373,0,1.85,0.037,2.172c-0.025,0.074-0.1,0.137-0.236,0.137c-0.149-0.211-0.508-0.645-1.588-1.873l-2.877-3.276
		c-0.336-0.385-1.18-1.402-1.44-1.674h-0.025c-0.049,0.149-0.061,0.434-0.061,0.805v2.705c0,0.584,0.012,2.195,0.223,2.568
		c0.074,0.137,0.322,0.211,0.633,0.235l0.384,0.039c0.075,0.098,0.062,0.248-0.025,0.308c-0.558-0.023-0.992-0.037-1.451-0.037
		c-0.521,0-0.856,0.014-1.291,0.037c-0.086-0.06-0.098-0.234-0.024-0.308l0.335-0.039c0.285-0.037,0.484-0.112,0.546-0.248
		c0.173-0.446,0.161-1.959,0.161-2.555v-3.586c0-0.346-0.012-0.607-0.274-0.892c-0.173-0.174-0.47-0.26-0.768-0.297l-0.211-0.026
		c-0.074-0.074-0.074-0.259,0.024-0.31c0.522,0.037,1.18,0.037,1.403,0.037c0.198,0,0.409-0.012,0.57-0.037
		c0.248,0.633,1.713,2.269,2.121,2.73l1.203,1.352c0.857,0.955,1.465,1.65,2.047,2.244h0.025c0.05-0.061,0.05-0.26,0.05-0.52v-2.656
		c0-0.582-0.012-2.195-0.248-2.566c-0.075-0.112-0.272-0.188-0.768-0.248l-0.211-0.026c-0.088-0.074-0.076-0.273,0.024-0.31
		c0.57,0.025,0.992,0.037,1.464,0.037c0.533,0,0.855-0.012,1.277-0.037c0.1,0.062,0.1,0.236,0.026,0.31l-0.174,0.026
		c-0.398,0.06-0.646,0.16-0.695,0.259c-0.211,0.448-0.186,1.985-0.186,2.555V97.076z"/>
	<path style="clip-path:url(#SVGID_00000164493162003307120860000003924755229309500039_);" d="M185.777,92.859
		c0-1.291-0.024-1.477-0.756-1.562l-0.199-0.026c-0.074-0.049-0.049-0.273,0.025-0.311c0.534,0.026,0.955,0.038,1.463,0.038h2.333
		c0.794,0,1.527,0,1.675-0.038c0.074,0.212,0.148,1.104,0.198,1.651c-0.05,0.074-0.248,0.099-0.309,0.025
		c-0.187-0.584-0.299-1.017-0.944-1.179c-0.259-0.063-0.657-0.075-1.203-0.075h-0.893c-0.372,0-0.372,0.026-0.372,0.496v2.481
		c0,0.348,0.037,0.348,0.41,0.348h0.718c0.522,0,0.907-0.024,1.055-0.075c0.149-0.048,0.237-0.123,0.298-0.433l0.099-0.508
		c0.062-0.076,0.273-0.076,0.322,0.012c0,0.297-0.049,0.781-0.049,1.252c0,0.447,0.049,0.918,0.049,1.191
		c-0.049,0.088-0.26,0.088-0.322,0.012l-0.112-0.483c-0.048-0.224-0.136-0.41-0.384-0.472c-0.174-0.049-0.471-0.061-0.956-0.061
		h-0.718c-0.373,0-0.41,0.012-0.41,0.334v1.75c0,0.656,0.037,1.078,0.236,1.289c0.148,0.149,0.408,0.285,1.5,0.285
		c0.955,0,1.315-0.048,1.588-0.185c0.223-0.123,0.558-0.559,0.881-1.203c0.088-0.063,0.261-0.026,0.31,0.086
		c-0.087,0.435-0.396,1.39-0.558,1.724c-1.117-0.023-2.221-0.037-3.325-0.037h-1.117c-0.533,0-0.955,0.014-1.686,0.037
		c-0.075-0.037-0.099-0.234-0.025-0.308l0.409-0.039c0.707-0.061,0.769-0.248,0.769-1.549V92.859z"/>
	<path style="clip-path:url(#SVGID_00000164493162003307120860000003924755229309500039_);" d="M193.64,92.859
		c0-1.291-0.024-1.477-0.757-1.562l-0.198-0.026c-0.075-0.049-0.05-0.273,0.024-0.311c0.534,0.026,0.956,0.038,1.464,0.038h2.333
		c0.793,0,1.526,0,1.674-0.038c0.074,0.212,0.149,1.104,0.199,1.651c-0.05,0.074-0.248,0.099-0.31,0.025
		c-0.186-0.584-0.298-1.017-0.944-1.179c-0.259-0.063-0.656-0.075-1.203-0.075h-0.892c-0.373,0-0.373,0.026-0.373,0.496v2.481
		c0,0.348,0.038,0.348,0.41,0.348h0.719c0.521,0,0.906-0.024,1.054-0.075c0.15-0.048,0.237-0.123,0.299-0.433l0.099-0.508
		c0.061-0.076,0.272-0.076,0.322,0.012c0,0.297-0.05,0.781-0.05,1.252c0,0.447,0.05,0.918,0.05,1.191
		c-0.05,0.088-0.261,0.088-0.322,0.012l-0.113-0.483c-0.048-0.224-0.135-0.41-0.383-0.472c-0.174-0.049-0.472-0.061-0.956-0.061
		h-0.719c-0.372,0-0.41,0.012-0.41,0.334v1.75c0,0.656,0.038,1.078,0.236,1.289c0.148,0.149,0.409,0.285,1.501,0.285
		c0.955,0,1.315-0.048,1.588-0.185c0.224-0.123,0.558-0.559,0.881-1.203c0.087-0.063,0.26-0.026,0.309,0.086
		c-0.086,0.435-0.396,1.39-0.557,1.724c-1.117-0.023-2.221-0.037-3.325-0.037h-1.117c-0.533,0-0.955,0.014-1.686,0.037
		c-0.074-0.037-0.1-0.234-0.026-0.308l0.411-0.039c0.707-0.061,0.768-0.248,0.768-1.549V92.859z"/>
	<path style="clip-path:url(#SVGID_00000164493162003307120860000003924755229309500039_);" d="M201.502,92.872
		c0-1.178-0.037-1.389-0.547-1.452l-0.396-0.048c-0.087-0.063-0.087-0.262,0.013-0.311c0.694-0.062,1.549-0.1,2.766-0.1
		c0.769,0,1.5,0.063,2.072,0.373c0.594,0.309,1.03,0.868,1.03,1.737c0,1.178-0.932,1.824-1.551,2.072
		c-0.062,0.074,0,0.197,0.062,0.297c0.992,1.6,1.649,2.594,2.493,3.301c0.211,0.185,0.521,0.322,0.856,0.345
		c0.062,0.026,0.074,0.125,0.013,0.174c-0.112,0.037-0.311,0.063-0.547,0.063c-1.054,0-1.687-0.311-2.567-1.563
		c-0.323-0.459-0.831-1.314-1.216-1.873c-0.186-0.273-0.385-0.398-0.881-0.398c-0.559,0-0.583,0.013-0.583,0.273v1.565
		c0,1.3,0.024,1.451,0.745,1.549l0.26,0.039c0.074,0.06,0.05,0.271-0.026,0.308c-0.557-0.023-0.979-0.037-1.475-0.037
		c-0.521,0-0.968,0.014-1.551,0.037c-0.074-0.037-0.099-0.222-0.024-0.308l0.31-0.039c0.719-0.086,0.744-0.249,0.744-1.549V92.872z
		 M202.519,94.646c0,0.223,0,0.359,0.038,0.408c0.037,0.037,0.223,0.063,0.855,0.063c0.447,0,0.918-0.049,1.278-0.323
		c0.335-0.261,0.621-0.695,0.621-1.539c0-0.98-0.609-1.91-1.985-1.91c-0.769,0-0.807,0.049-0.807,0.397V94.646z"/>
	<path style="clip-path:url(#SVGID_00000164493162003307120860000003924755229309500039_);" d="M210.119,92.885
		c0-1.316-0.024-1.527-0.756-1.588l-0.31-0.025c-0.075-0.049-0.05-0.274,0.025-0.311c0.619,0.026,1.041,0.037,1.562,0.037
		c0.497,0,0.918-0.011,1.539-0.037c0.075,0.037,0.099,0.262,0.024,0.311l-0.309,0.025c-0.732,0.061-0.757,0.272-0.757,1.588v4.416
		c0,1.314,0.025,1.488,0.757,1.574l0.309,0.039c0.075,0.049,0.051,0.272-0.024,0.309c-0.621-0.024-1.042-0.037-1.539-0.037
		c-0.521,0-0.943,0.013-1.562,0.037c-0.075-0.037-0.1-0.234-0.025-0.309l0.31-0.039c0.732-0.086,0.756-0.26,0.756-1.574V92.885z"/>
	<path style="clip-path:url(#SVGID_00000164493162003307120860000003924755229309500039_);" d="M221.605,97.076
		c0,0.373,0,1.85,0.037,2.172c-0.025,0.074-0.099,0.137-0.236,0.137c-0.149-0.211-0.509-0.645-1.588-1.873l-2.878-3.276
		c-0.335-0.385-1.179-1.402-1.438-1.674h-0.026c-0.05,0.149-0.062,0.434-0.062,0.805v2.705c0,0.584,0.012,2.195,0.223,2.568
		c0.075,0.137,0.323,0.211,0.633,0.235l0.384,0.039c0.075,0.098,0.062,0.248-0.024,0.308c-0.558-0.023-0.993-0.037-1.452-0.037
		c-0.52,0-0.856,0.014-1.29,0.037c-0.087-0.06-0.099-0.234-0.025-0.308l0.336-0.039c0.285-0.037,0.483-0.112,0.545-0.248
		c0.174-0.446,0.162-1.959,0.162-2.555v-3.586c0-0.346-0.013-0.607-0.274-0.892c-0.173-0.174-0.47-0.26-0.769-0.297l-0.211-0.026
		c-0.074-0.074-0.074-0.259,0.025-0.31c0.522,0.037,1.179,0.037,1.403,0.037c0.197,0,0.408-0.012,0.57-0.037
		c0.248,0.633,1.712,2.269,2.121,2.73l1.203,1.352c0.856,0.955,1.464,1.65,2.047,2.244h0.025c0.049-0.061,0.049-0.26,0.049-0.52
		v-2.656c0-0.582-0.011-2.195-0.248-2.566c-0.074-0.112-0.272-0.188-0.768-0.248l-0.211-0.026c-0.087-0.074-0.075-0.273,0.024-0.31
		c0.57,0.025,0.992,0.037,1.464,0.037c0.534,0,0.856-0.012,1.278-0.037c0.1,0.062,0.1,0.236,0.025,0.31l-0.174,0.026
		c-0.398,0.06-0.646,0.16-0.694,0.259c-0.211,0.448-0.186,1.985-0.186,2.555V97.076z"/>
	<path style="clip-path:url(#SVGID_00000164493162003307120860000003924755229309500039_);" d="M231.053,97.92
		c0,0.496,0.075,0.795,0.299,0.881c0.037,0.037,0.037,0.113-0.013,0.15c-0.149,0-0.372,0.049-0.608,0.112
		c-0.657,0.173-1.551,0.322-2.221,0.322c-1.475,0-2.828-0.41-3.783-1.377c-0.744-0.744-1.141-1.725-1.141-2.817
		c0-1.054,0.347-2.121,1.115-2.939c0.832-0.869,2.061-1.451,3.934-1.451c0.707,0,1.364,0.135,1.575,0.185
		c0.236,0.049,0.62,0.137,0.769,0.112c0,0.41,0.074,1.054,0.186,1.799c-0.037,0.099-0.26,0.111-0.335,0.037
		c-0.347-1.34-1.277-1.762-2.543-1.762c-2.406,0-3.461,1.713-3.461,3.572c0,2.383,1.229,4.256,3.721,4.256
		c0.77,0,1.229-0.162,1.365-0.373c0.063-0.086,0.124-0.308,0.124-0.707v-0.496c0-1.041-0.037-1.115-0.805-1.203l-0.547-0.063
		c-0.1-0.048-0.086-0.271,0-0.308c0.359,0.023,1.043,0.037,1.774,0.037c0.484,0,0.906-0.014,1.316-0.037
		c0.086,0.049,0.098,0.234,0.011,0.308l-0.198,0.026c-0.52,0.062-0.534,0.41-0.534,1.043V97.92z"/>
</g>
</svg>
