<svg height='100px' width='100px'  xmlns="http://www.w3.org/2000/svg" viewBox="0 0 16 16" fill="none" x="0px" y="0px"><path fill-rule="evenodd" clip-rule="evenodd" d="M9.64645 10.6464C9.45118 10.8417 9.45118 11.1583 9.64645 11.3536C9.84171 11.5488 10.1583 11.5488 10.3536 11.3536L13.3536 8.35355C13.4473 8.25979 13.5 8.13261 13.5 8C13.5 7.86739 13.4473 7.74022 13.3536 7.64645L10.3536 4.64645C10.1583 4.45118 9.84171 4.45118 9.64645 4.64645C9.45118 4.84171 9.45118 5.15829 9.64645 5.35355L12.2929 8L9.64645 10.6464ZM6.35355 5.35355C6.54882 5.15829 6.54882 4.84171 6.35355 4.64645C6.15829 4.45118 5.84171 4.45118 5.64645 4.64645L2.64645 7.64645C2.45118 7.84171 2.45118 8.15829 2.64645 8.35355L5.64645 11.3536C5.84171 11.5488 6.15829 11.5488 6.35355 11.3536C6.54882 11.1583 6.54882 10.8417 6.35355 10.6464L3.70711 8L6.35355 5.35355Z" fill="black"></path></svg>