<svg height='100px' width='100px'  fill="#000000" xmlns="http://www.w3.org/2000/svg" xmlns:xlink="http://www.w3.org/1999/xlink" version="1.1" x="0px" y="0px" viewBox="0 0 100 100" enable-background="new 0 0 100 100" xml:space="preserve"><g><path fill="#000000" d="M50,26.748c20.815,0,37.687-4.869,37.687-10.866C87.687,9.874,70.815,5,50,5   C29.187,5,12.313,9.874,12.313,15.882C12.313,21.879,29.187,26.748,50,26.748z"></path><path fill="#000000" d="M50.006,47.566c-20.814,0-37.688-4.868-37.688-10.886c0-0.062,0.033-0.119,0.033-0.175h-0.038v14.061h0.038   C12.7,56.479,29.398,61.255,50,61.255c20.597,0,37.302-4.776,37.656-10.688h0.03V36.701C87.662,42.701,70.805,47.566,50.006,47.566   z"></path><path fill="#000000" d="M87.687,36.669v-0.163h-0.03C87.662,36.562,87.687,36.614,87.687,36.669z"></path><path fill="#000000" d="M50.006,64.441c-20.814,0-37.688-4.876-37.688-10.878c0-0.061,0.033-0.127,0.033-0.189h-0.038v14.063h0.038   C12.7,73.353,29.398,78.129,50,78.129c20.597,0,37.302-4.776,37.656-10.691h0.03v-13.86C87.662,59.571,70.805,64.441,50.006,64.441   z"></path><path fill="#000000" d="M87.687,53.548v-0.174h-0.03C87.662,53.437,87.687,53.49,87.687,53.548z"></path><path fill="#000000" d="M50.006,81.308c-20.814,0-37.688-4.865-37.688-10.873c0-0.061,0.033-0.118,0.033-0.189h-0.038V84.31h0.038   C12.7,90.23,29.398,95,50,95c20.597,0,37.302-4.77,37.656-10.69h0.03V70.444C87.662,76.442,70.805,81.308,50.006,81.308z"></path><path fill="#000000" d="M87.687,70.423v-0.178h-0.03C87.662,70.308,87.687,70.369,87.687,70.423z"></path><path fill="#000000" d="M50.006,30.312c-20.814,0-37.688-4.869-37.688-10.876c0-0.066,0.033-0.129,0.033-0.186h-0.038v14.06h0.038   C12.7,39.229,29.398,44.006,50,44.006c20.597,0,37.302-4.776,37.656-10.695h0.03V19.45C87.662,25.448,70.805,30.312,50.006,30.312z   "></path><path fill="#000000" d="M87.687,19.422v-0.171h-0.03C87.662,19.308,87.687,19.36,87.687,19.422z"></path></g></svg>