<svg height='100px' width='100px'  fill="#000000" xmlns:x="http://ns.adobe.com/Extensibility/1.0/" xmlns:i="http://ns.adobe.com/AdobeIllustrator/10.0/" xmlns:graph="http://ns.adobe.com/Graphs/1.0/" xmlns="http://www.w3.org/2000/svg" xmlns:xlink="http://www.w3.org/1999/xlink" xmlns:a="http://ns.adobe.com/AdobeSVGViewerExtensions/3.0/" version="1.1" x="0px" y="0px" viewBox="0 0 64 64" enable-background="new 0 0 64 64" xml:space="preserve"><g><path d="M12.3,62h39.3c1.1,0,2.2-0.6,2.8-1.5c0.6-0.9,0.7-2.1,0.3-3.1L40.1,24.8V8h4.5c0.6,0,1-0.4,1-1V3c0-0.6-0.5-1-1-1H19.5   c-0.6,0-1,0.4-1,1v4c0,0.6,0.5,1,1,1h4.5v16.8L9.3,57.4c-0.5,1-0.4,2.2,0.3,3.1C10.2,61.4,11.2,62,12.3,62z M20.5,6V4h23.1v2h-4.5   H24.9H20.5z M25.9,25.4c0.1-0.1,0.1-0.3,0.1-0.4v-6h4c0.6,0,1-0.4,1-1s-0.5-1-1-1h-4v-2h2c0.6,0,1-0.4,1-1s-0.5-1-1-1h-2v-2h2   c0.6,0,1-0.4,1-1s-0.5-1-1-1h-2V8h12.1v17c0,0.1,0,0.3,0.1,0.4l7.1,15.7l-1.7,0.4c-4.1,0.9-8.4,0.4-12.1-1.4   c-3.5-1.7-7.4-2.4-11.3-2L25.9,25.4z M19.2,40.3c3.8-0.7,7.8-0.2,11.3,1.6c2.8,1.4,5.9,2.1,8.9,2.1c1.5,0,3-0.2,4.5-0.5L46,43   l2.8,6.3l-5.4,1.2c-4.1,0.9-8.4,0.4-12.1-1.4c-4.9-2.4-10.6-2.8-15.8-0.9L19.2,40.3z M11.1,58.2l3.3-7.4l0.7-0.3   c4.9-2.2,10.5-2,15.4,0.3c2.8,1.4,5.9,2.1,9,2.1c1.5,0,3-0.2,4.5-0.5l5.8-1.3l3.2,7c0.2,0.4,0.1,0.9-0.1,1.2   c-0.2,0.4-0.6,0.6-1.1,0.6H12.3c-0.5,0-0.9-0.2-1.1-0.6C11,59,11,58.6,11.1,58.2z"></path></g></svg>