<svg height='100px' width='100px'  fill="#000000" xmlns="http://www.w3.org/2000/svg" xmlns:xlink="http://www.w3.org/1999/xlink" version="1.1" x="0px" y="0px" viewBox="0 0 24 24" enable-background="new 0 0 24 24" xml:space="preserve"><g><path d="M4.277,3.841c-0.156-0.156-0.41-0.156-0.566,0s-0.156,0.41,0,0.566l3.626,3.626C7.415,8.111,7.518,8.15,7.62,8.15   s0.205-0.039,0.283-0.117c0.156-0.156,0.156-0.41,0-0.566L4.277,3.841z"></path><path d="M2.672,5.445c-0.156-0.156-0.41-0.156-0.566,0s-0.156,0.41,0,0.566l3.627,3.627c0.078,0.078,0.181,0.117,0.283,0.117   s0.205-0.039,0.283-0.117c0.156-0.156,0.156-0.41,0-0.566L2.672,5.445z"></path><path d="M22.282,8.925c-1.225-0.098-1.765-0.204-1.724-1.735c0.024-0.849-0.309-1.311-0.901-2.054   c-0.235-0.296-0.452-0.508-0.826-0.875l-0.5-0.495c-2.13-2.13-4.411-3.121-7.18-3.121c-0.879,0-1.804,0.096-2.827,0.293   c-0.192,0.037-0.33,0.209-0.323,0.405c0,0.019,0.009,0.121,0.012,0.14C8.038,1.623,8.135,1.74,8.269,1.789   c0.363,0.134,0.734,0.255,1.104,0.375l0.13,0.043c0.919,0.297,1.87,0.604,2.717,1.089c1.051,0.605,1.772,1.151,1.875,1.846   c0.086,0.559-0.199,1.139-1.011,2.065l-2.276,2.065c-0.388-0.5-0.805-1.288-1.176-2.554C9.591,6.58,9.515,6.454,9.403,6.345   C9.228,6.181,7.19,4.138,6.096,3.041L5.884,2.83C5.876,2.821,5.149,1.964,4.082,1.964c-0.476,0-0.926,0.164-1.337,0.486   C2.309,2.792,1.058,4.044,0.718,4.479c-0.964,1.229-0.318,2.535,0.33,3.094C3.186,9.701,4.484,11,4.61,11.134   c0.104,0.111,0.235,0.191,0.374,0.229c1.123,0.33,1.868,0.701,2.364,1.045l-6.896,6.255c-0.244,0.22-0.373,0.444-0.383,0.669   c-0.012,0.274,0.136,0.563,0.278,0.716c0.428,0.456,0.873,0.893,1.319,1.329c0.266,0.26,0.531,0.519,0.793,0.784   c0.247,0.246,0.48,0.366,0.714,0.366c0.237,0,0.474-0.125,0.724-0.381l6.322-6.518c0.309,0.147,0.686,0.1,0.941-0.154l0.207-0.208   l4.449,4.45l1.027,1.881c0.018,0.033,0.044,0.059,0.066,0.088c0.001,0.001,0.001,0.002,0.002,0.002l0,0   c0.07,0.094,0.153,0.178,0.255,0.235l2.373,1.326c0.126,0.071,0.266,0.105,0.404,0.105c0.215,0,0.429-0.083,0.59-0.243l0.848-0.848   c0.261-0.262,0.317-0.669,0.138-0.992l-1.326-2.373c-0.057-0.104-0.14-0.186-0.233-0.254c-0.001-0.001-0.002-0.003-0.003-0.004   c-0.01-0.01-0.023-0.014-0.034-0.022c-0.02-0.013-0.038-0.032-0.059-0.043l-0.033-0.018c-0.003-0.001-0.006-0.004-0.009-0.005   l-1.839-1.004l-4.448-4.45l0.206-0.206c0.277-0.278,0.302-0.697,0.104-1.017l1.929-1.991c0.278-0.268,0.604-0.546,0.916-0.589   c0.198-0.028,0.406-0.043,0.618-0.043c0.398,0,0.978,0.054,1.472,0.314c0.659,0.346,1.327,0.809,0.893,1.928   c-0.033,0.085-0.035,0.177-0.01,0.262c0.092,0.338,0.473,0.804,1.103,1.35c0.071,0.062,0.155,0.091,0.239,0.091   c0.063,0,0.128-0.017,0.186-0.049c0.259-0.056,0.56-0.204,0.778-0.352c0.563-0.38,1.107-0.907,1.575-1.525   c0.184-0.242,0.338-0.63,0.381-0.865c0.021-0.116-0.011-0.237-0.087-0.328C23.229,9.35,22.707,8.962,22.282,8.925z M1.592,6.986   c-0.011-0.01-1.078-0.952-0.244-2.015c0.302-0.386,1.504-1.589,1.892-1.893c0.267-0.209,0.55-0.314,0.843-0.314   c0.68,0,1.184,0.574,1.211,0.604l0.236,0.237c1.59,1.594,3.156,3.163,3.334,3.337c0.569,1.94,1.348,3.19,2.313,3.716   c0.413,0.225,0.776,0.265,1.031,0.265c0.166,0,0.287-0.019,0.345-0.012l-3.281,3.28c0,0.001,0,0.001-0.001,0.002l-0.131,0.031   c0.038-0.141,0.136-0.651-0.21-1.295c-0.129-0.242-0.338-0.521-0.661-0.812c-0.001-0.001-0.001-0.002-0.001-0.002   c-0.002-0.002-0.004-0.003-0.005-0.004c-0.573-0.514-1.513-1.066-3.067-1.524C5.013,10.394,2.872,8.261,1.592,6.986z M3.324,21.589   c-0.083,0.085-0.142,0.124-0.135,0.137c-0.021-0.011-0.075-0.042-0.162-0.129c-0.264-0.267-0.532-0.529-0.801-0.792   c-0.437-0.428-0.876-0.856-1.295-1.303c-0.029-0.032-0.06-0.112-0.069-0.099c0.006-0.015,0.039-0.069,0.126-0.147l6.969-6.32   c0.125,0.141,0.211,0.268,0.267,0.372c0.212,0.395,0.148,0.683,0.15,0.683c-0.128,0.366,0.012,0.768,0.344,0.978   c0.137,0.085,0.289,0.126,0.44,0.126c0.124,0,0.244-0.036,0.357-0.091l0.1,0.1L3.324,21.589z M11.084,14.418   c0,0.001,0,0.001-0.001,0.002l-0.488,0.488c-0.011,0.013-0.03,0.011-0.043,0l-0.185-0.185c-0.001-0.001-0.002-0.001-0.003-0.002   l-0.246-0.246l2.617-2.615l0.44,0.466l-0.488,0.489c0,0-0.001,0-0.001,0c0,0,0,0.001,0,0.001l-1.356,1.357L11.084,14.418z    M20.814,21.699l-0.884,0.853l-2.125-1.192l1.823-1.824L20.814,21.699z M17.458,18.155c0.027,0.026,0.058,0.05,0.092,0.068   l1.459,0.8l-1.72,1.721l-0.798-1.461c-0.018-0.034-0.041-0.064-0.067-0.092l-4.49-4.49l0.185-0.185l0.025-0.025c0,0,0,0,0,0   l0.825-0.826L17.458,18.155z M13.306,11.283l-0.029-0.029c0.119-0.247,0.111-0.545-0.039-0.792   c-0.201-0.33-0.599-0.479-0.958-0.362c-0.002,0-0.302,0.084-0.722-0.144c-0.059-0.032-0.121-0.073-0.185-0.118l1.989-1.804   l1.571,1.57L13.306,11.283z M22.906,10.787c-0.415,0.549-0.895,1.015-1.385,1.345c-0.15,0.102-0.305,0.172-0.411,0.209   c-0.403-0.369-0.569-0.602-0.635-0.714c0.588-1.767-0.844-2.518-1.323-2.769c-0.638-0.336-1.354-0.407-1.844-0.407   c-0.249,0-0.496,0.019-0.729,0.051c-0.407,0.057-0.763,0.283-1.073,0.544L13.92,7.46c0.612-0.74,1.101-1.545,0.966-2.437   c-0.149-1.011-1.014-1.698-2.268-2.42c-0.86-0.493-1.783-0.805-2.682-1.097c3.172-0.311,5.526,0.525,7.83,2.827l0.52,0.514   c0.349,0.342,0.541,0.53,0.746,0.787c0.563,0.707,0.743,0.981,0.728,1.533c-0.06,2.179,1.079,2.446,2.455,2.555   c0.003,0,0.28,0.043,0.873,0.71C23.043,10.553,22.976,10.696,22.906,10.787z"></path></g></svg>