<svg height='100px' width='100px'  fill="#000000" xmlns:dc="http://purl.org/dc/elements/1.1/" xmlns:cc="http://creativecommons.org/ns#" xmlns:rdf="http://www.w3.org/1999/02/22-rdf-syntax-ns#" xmlns:svg="http://www.w3.org/2000/svg" xmlns="http://www.w3.org/2000/svg" xmlns:sodipodi="http://sodipodi.sourceforge.net/DTD/sodipodi-0.dtd" xmlns:inkscape="http://www.inkscape.org/namespaces/inkscape" viewBox="0 0 25.399999 25.399999" version="1.1" x="0px" y="0px"><g><path style="color:#000000;font-style:normal;font-variant:normal;font-weight:normal;font-stretch:normal;font-size:medium;line-height:normal;font-family:sans-serif;font-variant-ligatures:normal;font-variant-position:normal;font-variant-caps:normal;font-variant-numeric:normal;font-variant-alternates:normal;font-feature-settings:normal;text-indent:0;text-align:start;text-decoration:none;text-decoration-line:none;text-decoration-style:solid;text-decoration-color:#000000;letter-spacing:normal;word-spacing:normal;text-transform:none;writing-mode:lr-tb;direction:ltr;text-orientation:mixed;dominant-baseline:auto;baseline-shift:baseline;text-anchor:start;white-space:normal;shape-padding:0;clip-rule:nonzero;display:inline;overflow:visible;visibility:visible;opacity:1;isolation:auto;mix-blend-mode:normal;color-interpolation:sRGB;color-interpolation-filters:linearRGB;solid-color:#000000;solid-opacity:1;vector-effect:none;fill:#000000;fill-opacity:1;fill-rule:evenodd;stroke:none;stroke-width:4;stroke-linecap:round;stroke-linejoin:round;stroke-miterlimit:4;stroke-dasharray:none;stroke-dashoffset:30.23622131;stroke-opacity:1;paint-order:stroke fill markers;color-rendering:auto;image-rendering:auto;shape-rendering:auto;text-rendering:auto;enable-background:accumulate" d="M 40 6 C 36.710593 6 34 8.710595 34 12 C 34 14.582353 35.690315 16.754318 38 17.591797 L 38 32.107422 C 28.392924 36.126573 22.012177 45.490537 22 55.998047 A 2.0002 2.0002 0 0 0 22 56 C 22.000001 70.335715 33.664288 82 48 82 C 62.335715 82 73.999996 70.335715 74 56 A 2.0002 2.0002 0 0 0 74 55.998047 C 73.986016 45.492018 67.605783 36.129848 58 32.111328 L 58 17.591797 C 60.309685 16.754318 62 14.582352 62 12 C 62 8.7105954 59.289406 6 56 6 L 40 6 z M 40 10 L 56 10 C 57.142597 10 58 10.857406 58 12 C 58 13.142594 57.142593 14 56 14 A 2.0002 2.0002 0 0 0 54 16 L 54 33.404297 A 2.0002 2.0002 0 0 0 55.333984 35.289062 C 60.088565 36.970055 63.976851 40.174972 66.556641 44.232422 C 64.186775 45.144639 61.43044 46 60 46 C 56.416089 46 52.848828 44 48 44 C 43.151172 44 39.583916 46 36 46 C 34.569121 46 31.811697 45.143001 29.441406 44.230469 C 32.02117 40.172036 35.910642 36.966429 40.666016 35.285156 A 2.0002 2.0002 0 0 0 42 33.400391 L 42 16 A 2.0002 2.0002 0 0 0 40 14 C 38.857403 14 38 13.142593 38 12 C 38 10.857406 38.857403 10 40 10 z M 45.996094 17.996094 A 2.0004921 2.0004921 0 1 0 45.996094 21.998047 L 49.998047 21.998047 A 2.0004921 2.0004921 0 0 0 49.998047 17.996094 L 45.996094 17.996094 z M 45.996094 23.998047 A 2.0004921 2.0004921 0 0 0 45.996094 28 L 49.998047 28 A 2.0004921 2.0004921 0 1 0 49.998047 23.998047 L 45.996094 23.998047 z M 45.996094 30 A 2.0004923 2.0004923 0 0 0 45.996094 34.001953 L 49.998047 34.001953 A 2.0004923 2.0004923 0 1 0 49.998047 30 L 45.996094 30 z M 27.585938 47.830078 C 30.124126 48.895865 33.223612 50 36 50 C 40.848826 50 44.416082 48 48 48 C 51.583914 48 55.151176 50 60 50 C 62.775752 50 65.873982 48.895648 68.412109 47.830078 C 69.435081 50.376728 69.995965 53.138476 70 56 C 70 68.173953 60.173957 78 48 78 C 35.82671 78 26.00107 68.174988 26 56.001953 L 26 56 C 26.003569 53.138708 26.563553 50.376746 27.585938 47.830078 z M 32.404297 57.974609 A 2.0002 2.0002 0 0 0 30.388672 60.484375 C 32.001451 66.952901 37.046178 71.98588 43.515625 73.597656 A 2.0009189 2.0009189 0 1 0 44.484375 69.714844 C 39.431052 68.455876 35.529803 64.562485 34.271484 59.515625 A 2.0002 2.0002 0 0 0 32.404297 57.974609 z M 52 58 A 2 2 0 0 0 50 60 A 2 2 0 0 0 52 62 A 2 2 0 0 0 54 60 A 2 2 0 0 0 52 58 z M 60 58 A 2 2 0 0 0 58 60 A 2 2 0 0 0 60 62 A 2 2 0 0 0 62 60 A 2 2 0 0 0 60 58 z M 56 64 A 2 2 0 0 0 54 66 A 2 2 0 0 0 56 68 A 2 2 0 0 0 58 66 A 2 2 0 0 0 56 64 z M 19.998047 77.996094 C 16.708641 77.996094 14.003906 80.708645 14.003906 83.998047 C 14.003906 87.287453 16.708641 90 19.998047 90 L 32 90 A 2.0004927 2.0004927 0 1 0 32 85.998047 L 19.998047 85.998047 C 18.855454 85.998047 17.996093 85.140643 17.996094 83.998047 C 17.996094 82.855458 18.855454 81.998047 19.998047 81.998047 L 30 81.998047 A 2.0004908 2.0004908 0 1 0 30 77.996094 L 19.998047 77.996094 z M 66.001953 77.996094 A 2.0004908 2.0004908 0 1 0 66.001953 81.998047 L 75.996094 81.998047 C 77.13869 81.998047 77.996094 82.855458 77.996094 83.998047 C 77.996094 85.140643 77.13869 85.998047 75.996094 85.998047 L 47.996094 85.998047 A 2.0004927 2.0004927 0 1 0 47.996094 90 L 75.996094 90 C 79.2855 90 81.998047 87.287457 81.998047 83.998047 C 81.998047 80.708645 79.2855 77.996094 75.996094 77.996094 L 66.001953 77.996094 z M 40 86 A 2 2 0 0 0 38 88 A 2 2 0 0 0 40 90 A 2 2 0 0 0 42 88 A 2 2 0 0 0 40 86 z " transform="scale(0.26458332)"></path></g></svg>