<svg height='100px' width='100px'  xmlns="http://www.w3.org/2000/svg" viewBox="0 0 16 16" fill="none" x="0px" y="0px"><path fill-rule="evenodd" clip-rule="evenodd" d="M8 3.5C7.44772 3.5 7 3.94771 7 4.5V5C7 5.27614 6.77614 5.5 6.5 5.5H4.5V11.5H11.5V10.5C10.3954 10.5 9.5 9.60457 9.5 8.5C9.5 7.39543 10.3954 6.5 11.5 6.5V5.5H9.5C9.22386 5.5 9 5.27614 9 5V4.5C9 3.94771 8.55228 3.5 8 3.5ZM6 4.5C6 3.39543 6.89543 2.5 8 2.5C9.10457 2.5 10 3.39543 10 4.5H12C12.2761 4.5 12.5 4.72386 12.5 5V7C12.5 7.27614 12.2761 7.5 12 7.5H11.5C10.9477 7.5 10.5 7.94771 10.5 8.5C10.5 9.05228 10.9477 9.5 11.5 9.5H12C12.2761 9.5 12.5 9.72386 12.5 10V12C12.5 12.2761 12.2761 12.5 12 12.5H4C3.72386 12.5 3.5 12.2761 3.5 12V5C3.5 4.72386 3.72386 4.5 4 4.5L6 4.5Z" fill="black"></path></svg>