<svg height='100px' width='100px'  fill="#000000" xmlns:dc="http://purl.org/dc/elements/1.1/" xmlns:cc="http://creativecommons.org/ns#" xmlns:rdf="http://www.w3.org/1999/02/22-rdf-syntax-ns#" xmlns:svg="http://www.w3.org/2000/svg" xmlns="http://www.w3.org/2000/svg" xmlns:sodipodi="http://sodipodi.sourceforge.net/DTD/sodipodi-0.dtd" xmlns:inkscape="http://www.inkscape.org/namespaces/inkscape" viewBox="0 0 25.399999 25.399999" version="1.1" x="0px" y="0px"><g><path style="color:#000000;font-style:normal;font-variant:normal;font-weight:normal;font-stretch:normal;font-size:medium;line-height:normal;font-family:sans-serif;font-variant-ligatures:normal;font-variant-position:normal;font-variant-caps:normal;font-variant-numeric:normal;font-variant-alternates:normal;font-feature-settings:normal;text-indent:0;text-align:start;text-decoration:none;text-decoration-line:none;text-decoration-style:solid;text-decoration-color:#000000;letter-spacing:normal;word-spacing:normal;text-transform:none;writing-mode:lr-tb;direction:ltr;text-orientation:mixed;dominant-baseline:auto;baseline-shift:baseline;text-anchor:start;white-space:normal;shape-padding:0;clip-rule:nonzero;display:inline;overflow:visible;visibility:visible;opacity:1;isolation:auto;mix-blend-mode:normal;color-interpolation:sRGB;color-interpolation-filters:linearRGB;solid-color:#000000;solid-opacity:1;vector-effect:none;fill:#000000;fill-opacity:1;fill-rule:nonzero;stroke:none;stroke-width:4;stroke-linecap:butt;stroke-linejoin:round;stroke-miterlimit:4;stroke-dasharray:none;stroke-dashoffset:0;stroke-opacity:1;color-rendering:auto;image-rendering:auto;shape-rendering:auto;text-rendering:auto;enable-background:accumulate" d="m 47.960938,6.0019531 c -0.172411,0.00266 -0.343753,0.02761 -0.509766,0.074219 l -28,8.0019529 c -1.932459,0.553608 -1.932459,3.292095 0,3.845703 l 9.255859,2.644531 -2.625,8.863282 c -0.09163,0.312209 -0.105706,0.642057 -0.04102,0.960937 l 1.998046,10 C 28.726806,43.831297 30.506404,47.155484 32.919922,50 H 28 c -7.721405,0 -14,6.278599 -14,14 v 12 c 0,7.721409 6.278595,14 14,14 h 40 c 7.721401,0 14,-6.278591 14,-14 V 64 C 82,56.278599 75.721401,50 68,50 h -4.791016 c 2.421268,-2.846268 4.182834,-6.186844 4.763672,-9.671875 0.537646,-3.225883 1.982422,-9.904297 1.982422,-9.904297 0.07122,-0.328591 0.05845,-0.669833 -0.03711,-0.992187 l -2.625,-8.861329 6.710937,-1.917968 V 32 c -0.164712,2.82232 4.156911,2.82232 3.992188,0 V 16.083984 c 0.0386,-0.921963 -0.558529,-1.750675 -1.445313,-2.005859 l -28,-8.0019531 c -0.19182,-0.053983 -0.390629,-0.078999 -0.589843,-0.074219 z m 0.03711,4.0742189 20.720703,5.919922 -20.722656,5.919922 -20.712891,-5.919922 z m -15.443359,11.591797 14.896484,4.257812 c 0.359338,0.10273 0.740271,0.10273 1.099609,0 l 14.894531,-4.255859 2.105469,7.105469 C 63.70353,29.592907 57.834312,32 48,32 38.165692,32 32.296473,29.592907 30.449219,28.775391 Z m -1.875,11.529297 C 34.280894,34.421632 40.377003,36 48,36 c 7.595355,0 13.670977,-1.564638 17.277344,-2.787109 -0.439641,2.121619 -0.951782,4.66968 -1.25,6.458984 -0.558497,3.350982 -2.810097,7.046049 -5.861328,9.802734 C 55.11478,52.231299 51.324265,54 48,54 44.679617,54 40.962955,52.229806 37.9375,49.464844 34.912042,46.699877 32.636428,42.984872 31.960938,39.607422 Z M 28,54 h 3 l 11.400391,15.199219 c 0.73012,0.973322 2.152862,1.074749 3.013671,0.214843 L 48,66.828125 l 2.585938,2.585937 c 0.860809,0.859906 2.283551,0.758479 3.013671,-0.214843 L 65,54 h 3 c 5.574588,0 10,4.425412 10,10 v 12 c 0,5.574595 -4.425412,10 -10,10 H 28 C 22.425407,86 18,81.574595 18,76 V 64 c 0,-5.574588 4.425407,-10 10,-10 z m 8,0 h 1.171875 C 39.82513,55.986755 42.842315,57.414829 46,57.849609 v 5.322266 l -1.783203,1.783203 z m 22.923828,0 H 60 L 51.783203,64.955078 50,63.171875 V 57.849609 C 53.177814,57.41735 56.234858,55.993115 58.923828,54 Z M 48,70 c -1.10457,0 -2,0.895431 -2,2 0,1.104569 0.89543,2 2,2 1.10457,0 2,-0.895431 2,-2 0,-1.104569 -0.89543,-2 -2,-2 z m -16,0.002 c -2.667968,0 -2.667968,4.001953 0,4.001953 h 4.001953 c 2.667968,0 2.667968,-4.001953 0,-4.001953 z M 48,78 c -1.10457,0 -2,0.895431 -2,2 0,1.104569 0.89543,2 2,2 1.10457,0 2,-0.895431 2,-2 0,-1.104569 -0.89543,-2 -2,-2 z" transform="scale(0.26458332)"></path><path style="opacity:1;vector-effect:none;fill:#000000;fill-opacity:1;fill-rule:evenodd;stroke:none;stroke-width:3.17499995;stroke-linecap:butt;stroke-linejoin:round;stroke-miterlimit:4;stroke-dasharray:none;stroke-dashoffset:30.23622131;stroke-opacity:1;paint-order:stroke fill markers" d="M 7.4083331,19.049999 A 0.52916664,0.52916664 0 0 1 6.8791665,19.579166 0.52916664,0.52916664 0 0 1 6.3499999,19.049999 0.52916664,0.52916664 0 0 1 6.8791665,18.520833 0.52916664,0.52916664 0 0 1 7.4083331,19.049999 Z"></path></g></svg>