<svg height='100px' width='100px'  fill="#000000" xmlns="http://www.w3.org/2000/svg" viewBox="0 0 64 64" x="0px" y="0px"><title>ai, illustrator, vector, file format</title><g><path d="M54,17H10a1,1,0,0,0-1,1V46a1,1,0,0,0,1,1H54a1,1,0,0,0,1-1V18A1,1,0,0,0,54,17ZM53,45H11V19H53ZM22.34,41a1,1,0,0,0,1.15-.83l1-6.2h8l1,6.2a1,1,0,0,0,1,.84h.16a1,1,0,0,0,.83-1.15L33.43,27.19a5,5,0,0,0-9.86,0L21.51,39.84A1,1,0,0,0,22.34,41Zm3.2-13.48a3,3,0,0,1,5.92,0L32.18,32H24.82ZM40.5,40V29a1,1,0,0,1,2,0V40a1,1,0,0,1-2,0Zm.29-14.49a1,1,0,0,1-.29-.7,1,1,0,0,1,.08-.38.93.93,0,0,1,.21-.33,1,1,0,0,1,1.42,0,.93.93,0,0,1,.21.33,1,1,0,0,1-1.63,1.08Z"></path></g></svg>