<svg height='100px' width='100px'  fill="#000000" xmlns="http://www.w3.org/2000/svg" data-name="Layer 1" viewBox="0 0 62.65 33.79" x="0px" y="0px"><title>Code</title><path d="M788.67,200.54a2.5,2.5,0,0,1-2.29-3.5L799,168.25a2.5,2.5,0,0,1,4.58,2L791,199A2.5,2.5,0,0,1,788.67,200.54Zm24.41-3.26a2.5,2.5,0,0,1-1.83-4.2l9.07-9.79-9-9a2.5,2.5,0,1,1,3.54-3.54l10.71,10.71a2.5,2.5,0,0,1,.07,3.47l-10.71,11.55A2.49,2.49,0,0,1,813.08,197.27Zm-36.23,0a2.49,2.49,0,0,1-1.77-.73l-10.71-10.71a2.5,2.5,0,0,1-.07-3.47L775,170.81a2.5,2.5,0,1,1,3.67,3.4L769.61,184l9,9A2.5,2.5,0,0,1,776.85,197.27Z" transform="translate(-763.64 -166.75)" style="" fill="#000000"></path></svg>