<svg height='100px' width='100px'  fill="#000000" xmlns="http://www.w3.org/2000/svg" data-name="Layer 1" viewBox="0 0 24 24" x="0px" y="0px"><title>Artboard 7</title><path d="M5.56,10.85H18.44a5,5,0,1,0,0-10H5.56a5,5,0,1,0,0,10Zm0-8H18.44a3,3,0,1,1,0,6H5.56a3,3,0,1,1,0-6Z"></path><path d="M5.86,7.09A1.23,1.23,0,1,0,4.64,5.86,1.23,1.23,0,0,0,5.86,7.09Z"></path><path d="M18.44,13.15H5.56a5,5,0,0,0,0,10H18.44a5,5,0,0,0,0-10Zm0,8H5.56a3,3,0,0,1,0-6H18.44a3,3,0,0,1,0,6Z"></path><path d="M18.14,16.91a1.23,1.23,0,1,0,1.22,1.23A1.23,1.23,0,0,0,18.14,16.91Z"></path></svg>