<svg height='100px' width='100px'  fill="#000000" xmlns="http://www.w3.org/2000/svg" xmlns:xlink="http://www.w3.org/1999/xlink" version="1.1" x="0px" y="0px" viewBox="0 0 100 100" style="enable-background:new 0 0 100 100;" xml:space="preserve"><path d="M64,9c5.7,0,8,3.8,8,10c-0.2,7.5-2.3,14.9-5.4,21.7C71,41.1,75.5,41,80,41c7.5,0,12,3.1,12,9c0.1,2.4-1.2,4.3-3.1,5.7  l0.1,0.1c1.6,3.7,1.5,7.3-2.1,9.9l0.1,0.1c1.6,3.7,1.5,7.3-2.1,9.9l0.1,0.1c1.1,3.1,0.9,1.7,1.1,4.2c0,5.5-4,9-10,9H64  c-6.6,0-14.2-0.6-20.8-1.6c-1.7-0.3-3.4-0.5-5.2-0.9V87c0,1.1-0.9,2-2,2H14c-1.1,0-2-0.9-2-2V39c0-1.1,0.9-2,2-2h22c1.1,0,2,0.9,2,2  v0.3c4.4-2.6,7.6-6.8,10.8-10.7c0.8-1.1,1.6-2.3,2.4-3.7c1.1-1.9,4.9-9.6,5.8-11.1C58.9,10.8,61,9,64,9z M16,41v44h18V41H16z M64,13  c-4,0-6,10-12,18c-3.7,5.1-8.2,9.4-13.4,12.8L38,44.1v38.2c8.5,2.1,17.3,2.4,26,2.7c0,0,8,0,12,0c4,0,6-2,6-5c0-3-2-3-2-5  c0-2,4-2,4-5c0-3-2-3-2-5c0-2,4-2,4-5c0-3-2-3-2-5c0-2,4-2,4-5c0-3-2-5-8-5c-14,0-20,0-18-4c2.2-4.4,6-14,6-22C68,15,67.1,13,64,13z  "></path></svg>