<svg height='100px' width='100px'  fill="#000000" xmlns="http://www.w3.org/2000/svg" xmlns:xlink="http://www.w3.org/1999/xlink" version="1.1" x="0px" y="0px" viewBox="0 0 70 70" style="enable-background:new 0 0 70 70;" xml:space="preserve"><style type="text/css">
	.st0{fill:none;stroke:#000000;stroke-width:2;stroke-linecap:round;stroke-linejoin:round;stroke-miterlimit:10;}
	.st1{fill:none;}
</style><g><g><g><path d="M55.7052002,60H14.2950449c-1.2177734,0-2.296875-0.6367188-2.8857422-1.703125     c-0.5878906-1.0664063-0.5517578-2.3183594,0.0976563-3.3486328l17.5341797-27.8457031V11c0-0.5527344,0.4472656-1,1-1h9.9189434     c0.5527344,0,1,0.4472656,1,1v16.1162109l17.5322266,27.8320313c0.6494141,1.0302734,0.6865234,2.2822266,0.0986328,3.3486328     C58.0020752,59.3632813,56.9239502,60,55.7052002,60z M31.0411396,12v15.3916016     c0,0.1884766-0.0537109,0.3730469-0.1533203,0.5332031L13.1993418,56.0146484     c-0.2558594,0.4042969-0.2695313,0.8964844-0.0390625,1.3154297C13.3917246,57.75,13.8165293,58,14.2950449,58h41.4101563     c0.4785156,0,0.9033203-0.25,1.1337891-0.6699219c0.2314453-0.4189453,0.2167969-0.9101563-0.0380859-1.3154297     L39.1143799,27.9384766c-0.1005859-0.1601563-0.1542969-0.3447266-0.1542969-0.5332031V12H31.0411396z"></path></g></g><g><g><path d="M55.7052002,60H14.2950449c-1.2177734,0-2.296875-0.6367188-2.8857422-1.703125     c-0.5878906-1.0664063-0.5517578-2.3183594,0.0976563-3.3486328l8.50879-13.5117188     c0.2578125-0.4101563,0.7744141-0.5751953,1.2207031-0.3935547c0.8505859,0.34375,1.984375,0.6953125,3.9345703,0.6953125     c2.5683594,0,3.8271484-0.6054688,5.1591797-1.2470703c1.4755859-0.7099609,3.0019512-1.4443359,6.0263653-1.4443359     c3.0253906,0,4.5517578,0.734375,6.0283203,1.4443359c1.3330078,0.6416016,2.5917969,1.2470703,5.1611328,1.2470703     c0.6552734,0,1.2568359-0.0419922,1.8417969-0.1269531c0.3867188-0.0556641,0.7792969,0.1220703,0.9902344,0.4560547     l8.1142578,12.8798828c0.6503906,1.03125,0.6865234,2.2832031,0.0976563,3.3496094     C58.0020752,59.3632813,56.9229736,60,55.7052002,60z M21.2774677,43.1855469l-8.0791025,12.8291016     c-0.2548828,0.4042969-0.2685547,0.8964844-0.0380859,1.3154297C13.3917246,57.75,13.8165293,58,14.2950449,58h41.4101563     c0.4785156,0,0.9023438-0.25,1.1337891-0.6689453c0.2314453-0.4199219,0.2167969-0.9121094-0.0380859-1.3173828     l-7.7773438-12.34375c-0.4746094,0.0458984-0.9628906,0.0683594-1.4775391,0.0683594     c-3.0253906,0-4.5517578-0.734375-6.0283203-1.4443359c-1.3330078-0.6416016-2.5917969-1.2470703-5.1611328-1.2470703     c-2.5683594,0-3.8271484,0.6054688-5.1591778,1.2470703c-1.4755859,0.7099609-3.0019531,1.4443359-6.0263672,1.4443359     C23.4249287,43.7382813,22.1934834,43.4804688,21.2774677,43.1855469z"></path></g></g><g><g><path d="M47.5460205,43.7382813c-3.0253906,0-4.5517578-0.734375-6.0283203-1.4443359     c-1.3330078-0.6416016-2.5917969-1.2470703-5.1611328-1.2470703c-2.5683594,0-3.8271484,0.6054688-5.1591778,1.2470703     c-1.4755859,0.7099609-3.0019531,1.4443359-6.0263672,1.4443359c-2.3066406,0-3.7148438-0.4492188-4.6845703-0.8417969     c-0.2744141-0.1103516-0.4853516-0.3378906-0.5761719-0.6191406c-0.0917969-0.2822266-0.0527344-0.5898438,0.1044922-0.8408203     l9.0263672-14.3339844V11c0-0.5527344,0.4472656-1,1-1h9.9189434c0.5527344,0,1,0.4472656,1,1v16.1162109l9.4179688,14.9511719     c0.1806641,0.2861328,0.2041016,0.6445313,0.0625,0.9511719c-0.1416016,0.3076172-0.4287109,0.5224609-0.7636719,0.5712891     C48.9962158,43.6894531,48.2989502,43.7382813,47.5460205,43.7382813z M36.3565674,39.046875     c3.0253906,0,4.5517578,0.734375,6.0283203,1.4443359c1.3330078,0.6416016,2.5917969,1.2470703,5.1611328,1.2470703     c0.0878906,0,0.1738281-0.0009766,0.2597656-0.0019531l-8.6914063-13.7978516     c-0.1005859-0.1601563-0.1542969-0.3447266-0.1542969-0.5332031V12h-7.9189434v15.3916016     c0,0.1884766-0.0537109,0.3730469-0.1533203,0.5332031l-8.5019531,13.5009766     c0.7041016,0.1806641,1.5917969,0.3125,2.7851563,0.3125c2.5683594,0,3.8271484-0.6054688,5.1591797-1.2470703     C31.805788,39.78125,33.3321533,39.046875,36.3565674,39.046875z"></path></g></g><g><g><path d="M42.3985596,12H27.6016865c-0.5527344,0-1-0.4472656-1-1s0.4472656-1,1-1h14.7968731c0.5527344,0,1,0.4472656,1,1     S42.9512939,12,42.3985596,12z"></path></g></g></g></svg>