<svg height='100px' width='100px'  fill="#000000" xmlns="http://www.w3.org/2000/svg" xmlns:xlink="http://www.w3.org/1999/xlink" version="1.1" x="0px" y="0px" viewBox="0 0 64 64" enable-background="new 0 0 64 64" xml:space="preserve"><path d="M57.833,1.667H6.167c-2.481,0-4.5,2.019-4.5,4.5v51.666c0,2.481,2.019,4.5,4.5,4.5h51.666c2.481,0,4.5-2.019,4.5-4.5V6.167  C62.333,3.686,60.314,1.667,57.833,1.667z M6.167,4.667h51.666c0.827,0,1.5,0.673,1.5,1.5v25.082l-16.157,12.08L21.26,19.974  c-0.01-0.01-0.023-0.014-0.034-0.024c-0.126-0.127-0.269-0.229-0.425-0.302c-0.022-0.01-0.043-0.019-0.066-0.028  c-0.157-0.064-0.322-0.103-0.49-0.112c-0.023-0.001-0.045-0.001-0.068-0.001c-0.168-0.001-0.336,0.024-0.499,0.081  c-0.021,0.007-0.042,0.016-0.063,0.024c-0.133,0.053-0.263,0.119-0.381,0.213L4.667,31.394V6.167C4.667,5.34,5.34,4.667,6.167,4.667  z M57.833,59.333H6.167c-0.827,0-1.5-0.673-1.5-1.5V35.225l15.351-12.191l21.889,23.326c0.025,0.026,0.055,0.046,0.081,0.07  c0.036,0.033,0.071,0.065,0.109,0.094c0.053,0.041,0.108,0.074,0.165,0.106c0.038,0.021,0.074,0.045,0.113,0.063  c0.067,0.031,0.137,0.053,0.207,0.073c0.033,0.01,0.064,0.023,0.099,0.031c0.105,0.022,0.212,0.036,0.319,0.036l0,0  c0.001,0,0.001,0,0.001,0c0.17,0,0.34-0.035,0.504-0.094c0.054-0.02,0.101-0.054,0.152-0.08c0.081-0.04,0.166-0.069,0.241-0.125  l15.435-11.54v22.839C59.333,58.66,58.66,59.333,57.833,59.333z"></path></svg>