<svg height='100px' width='100px'  fill="#000000" xmlns="http://www.w3.org/2000/svg" data-name="Layer 2" viewBox="0 0 48 48" x="0px" y="0px"><title>Distribute</title><path d="M37.73,39.1H32.24a1.38,1.38,0,0,1-1.38-1.37h0V32.24a1.38,1.38,0,0,1,1.38-1.38h1.37V26.44a1.07,1.07,0,0,0-1.07-1.07H25.37v5.49h1.38a1.38,1.38,0,0,1,1.37,1.38h0v5.49a1.38,1.38,0,0,1-1.37,1.37h-5.5a1.38,1.38,0,0,1-1.37-1.37V32.24a1.38,1.38,0,0,1,1.37-1.38h1.38V25.37H15.46a1.07,1.07,0,0,0-1.07,1.07h0v4.42h1.37a1.38,1.38,0,0,1,1.38,1.38h0v5.49a1.38,1.38,0,0,1-1.38,1.37H10.27A1.38,1.38,0,0,1,8.9,37.73h0V32.24a1.38,1.38,0,0,1,1.37-1.38h1.38V25.37a2.74,2.74,0,0,1,2.74-2.74h8.24V19.88H21.25a2.74,2.74,0,0,1-2.74-2.74V11.65A2.75,2.75,0,0,1,21.25,8.9h5.5a2.75,2.75,0,0,1,2.74,2.75h0v5.49a2.74,2.74,0,0,1-2.74,2.74H25.37v2.75h8.24a2.74,2.74,0,0,1,2.74,2.74h0v5.49h1.38a1.38,1.38,0,0,1,1.37,1.38h0v5.49a1.38,1.38,0,0,1-1.37,1.37Zm-15.1-2.75h2.74V33.61H22.63Zm-11-2.74v2.74h2.74V33.61Zm15.1-16.47V11.65h-5.5v5.49Zm9.6,16.47H33.61v2.74h2.74Z"></path></svg>