<svg height='100px' width='100px'  fill="#000000" xmlns:dc="http://purl.org/dc/elements/1.1/" xmlns:cc="http://creativecommons.org/ns#" xmlns:rdf="http://www.w3.org/1999/02/22-rdf-syntax-ns#" xmlns:svg="http://www.w3.org/2000/svg" xmlns="http://www.w3.org/2000/svg" xmlns:sodipodi="http://sodipodi.sourceforge.net/DTD/sodipodi-0.dtd" xmlns:inkscape="http://www.inkscape.org/namespaces/inkscape" viewBox="0 0 25.399999 25.399999" version="1.1" x="0px" y="0px"><g><path style="color:#000000;font-style:normal;font-variant:normal;font-weight:normal;font-stretch:normal;font-size:medium;line-height:normal;font-family:sans-serif;font-variant-ligatures:normal;font-variant-position:normal;font-variant-caps:normal;font-variant-numeric:normal;font-variant-alternates:normal;font-feature-settings:normal;text-indent:0;text-align:start;text-decoration:none;text-decoration-line:none;text-decoration-style:solid;text-decoration-color:#000000;letter-spacing:normal;word-spacing:normal;text-transform:none;writing-mode:lr-tb;direction:ltr;text-orientation:mixed;dominant-baseline:auto;baseline-shift:baseline;text-anchor:start;white-space:normal;shape-padding:0;clip-rule:nonzero;display:inline;overflow:visible;visibility:visible;opacity:1;isolation:auto;mix-blend-mode:normal;color-interpolation:sRGB;color-interpolation-filters:linearRGB;solid-color:#000000;solid-opacity:1;vector-effect:none;fill:#000000;fill-opacity:1;fill-rule:evenodd;stroke:none;stroke-width:4;stroke-linecap:butt;stroke-linejoin:round;stroke-miterlimit:4;stroke-dasharray:none;stroke-dashoffset:30.23622131;stroke-opacity:1;paint-order:stroke fill markers;color-rendering:auto;image-rendering:auto;shape-rendering:auto;text-rendering:auto;enable-background:accumulate" d="M 47.554688 6 A 2.0002 2.0002 0 0 0 46.851562 6.1484375 L 27.244141 14.148438 A 2.0002 2.0002 0 0 0 26 16 L 26 25.998047 L 23.998047 25.998047 A 2.0002 2.0002 0 0 0 22.337891 26.892578 L 14.927734 38.001953 L 12.003906 38.001953 A 2.0002 2.0002 0 0 0 10.001953 40.001953 L 10.001953 47.996094 A 2.0002 2.0002 0 0 0 12.003906 49.998047 L 14.003906 49.998047 L 14.003906 88 A 2.0002 2.0002 0 0 0 15.996094 90 L 79.998047 90 A 2.0002 2.0002 0 0 0 81.998047 88 L 81.998047 49.998047 L 83.998047 49.998047 A 2.0002 2.0002 0 0 0 85.998047 47.996094 L 85.998047 40.001953 A 2.0002 2.0002 0 0 0 83.998047 38.001953 L 81.074219 38.001953 L 73.664062 26.892578 A 2.0002 2.0002 0 0 0 72.003906 25.998047 L 70 25.998047 L 70 16 A 2.0002 2.0002 0 0 0 68.730469 14.138672 L 48.337891 6.1386719 A 2.0002 2.0002 0 0 0 47.554688 6 z M 47.621094 10.154297 L 66 17.363281 L 66 25.998047 L 30 25.998047 L 30 17.34375 L 47.621094 10.154297 z M 38 18 L 38 22 L 42 22 L 42 18 L 38 18 z M 46 18 L 46 22 L 50 22 L 50 18 L 46 18 z M 54 18 L 54 22 L 58 22 L 58 18 L 54 18 z M 25.068359 30 L 70.931641 30 L 76.265625 38.001953 L 44.003906 38.001953 A 2.0004908 2.0004908 0 0 0 44.003906 42.003906 L 81.998047 42.003906 L 81.998047 45.996094 L 14.003906 45.996094 L 14.003906 42.003906 L 28 42.003906 A 2.0004908 2.0004908 0 1 0 28 38.001953 L 19.734375 38.001953 L 25.068359 30 z M 36 38 A 2 2 0 0 0 34 40 A 2 2 0 0 0 36 42 A 2 2 0 0 0 38 40 A 2 2 0 0 0 36 38 z M 17.996094 49.998047 L 77.996094 49.998047 L 77.996094 85.998047 L 58 85.998047 L 58 75.996094 C 58 72.706688 55.287457 70.001953 51.998047 70.001953 L 44.003906 70.001953 C 40.7145 70.001953 38.001953 72.706688 38.001953 75.996094 L 38.001953 85.998047 L 17.996094 85.998047 L 17.996094 49.998047 z M 22 54 L 22 58 L 26 58 L 26 54 L 22 54 z M 30 54 L 30 58 L 34 58 L 34 54 L 30 54 z M 38 54 L 38 58 L 42 58 L 42 54 L 38 54 z M 46 54 L 46 58 L 50 58 L 50 54 L 46 54 z M 54 54 L 54 58 L 58 58 L 58 54 L 54 54 z M 62 54 L 62 58 L 66 58 L 66 54 L 62 54 z M 70 54 L 70 58 L 74 58 L 74 54 L 70 54 z M 22 62 L 22 66 L 26 66 L 26 62 L 22 62 z M 30 62 L 30 66 L 34 66 L 34 62 L 30 62 z M 38 62 L 38 66 L 42 66 L 42 62 L 38 62 z M 46 62 L 46 66 L 50 66 L 50 62 L 46 62 z M 54 62 L 54 66 L 58 66 L 58 62 L 54 62 z M 62 62 L 62 66 L 66 66 L 66 62 L 62 62 z M 70 62 L 70 66 L 74 66 L 74 62 L 70 62 z M 22 70 L 22 74 L 26 74 L 26 70 L 22 70 z M 30 70 L 30 74 L 34 74 L 34 70 L 30 70 z M 62 70 L 62 74 L 66 74 L 66 70 L 62 70 z M 70 70 L 70 74 L 74 74 L 74 70 L 70 70 z M 44.003906 74.003906 L 51.998047 74.003906 C 53.140643 74.003906 53.998047 74.853497 53.998047 75.996094 L 53.998047 85.998047 L 42.003906 85.998047 L 42.003906 75.996094 C 42.003906 74.853497 42.86131 74.003906 44.003906 74.003906 z M 22 78 L 22 82 L 26 82 L 26 78 L 22 78 z M 30 78 L 30 82 L 34 82 L 34 78 L 30 78 z M 62 78 L 62 82 L 66 82 L 66 78 L 62 78 z M 70 78 L 70 82 L 74 82 L 74 78 L 70 78 z " transform="scale(0.26458332)"></path></g></svg>