<svg height='100px' width='100px'  fill="#000000" xmlns="http://www.w3.org/2000/svg" xmlns:xlink="http://www.w3.org/1999/xlink" version="1.1" x="0px" y="0px" viewBox="0 0 512 512" style="enable-background:new 0 0 512 512;" xml:space="preserve"><path d="M480.184,125.197c-0.06-0.518-0.14-1.01-0.306-1.514c-0.176-0.535-0.419-1.009-0.699-1.487  c-0.148-0.254-0.188-0.54-0.367-0.781c-0.114-0.155-0.287-0.226-0.409-0.368c-0.366-0.427-0.783-0.768-1.231-1.108  c-0.377-0.284-0.732-0.566-1.147-0.775c-0.475-0.244-0.979-0.383-1.505-0.525c-0.468-0.125-0.913-0.245-1.395-0.282  c-0.218-0.018-0.405-0.127-0.627-0.127H39.503c-0.223,0-0.41,0.109-0.629,0.127c-0.487,0.038-0.937,0.158-1.408,0.285  c-0.519,0.143-1.017,0.278-1.486,0.519c-0.421,0.211-0.778,0.494-1.16,0.783c-0.444,0.339-0.858,0.675-1.221,1.1  c-0.124,0.144-0.296,0.216-0.41,0.371c-0.18,0.242-0.222,0.53-0.369,0.786c-0.279,0.475-0.518,0.946-0.695,1.479  c-0.167,0.506-0.248,1-0.308,1.52c-0.037,0.308-0.182,0.581-0.182,0.898v259.804c0,4.337,3.531,7.869,7.869,7.869h432.994  c4.337,0,7.869-3.531,7.869-7.869V126.098C480.366,125.779,480.221,125.506,480.184,125.197z M448.668,133.967L255.99,276.699  L63.33,133.967H448.668z M47.372,141.711l155.086,114.899L47.372,349.675V141.711z M464.628,378.033H47.372v-10.027l168.757-101.269  l35.179,26.063c1.401,1.036,3.032,1.555,4.683,1.555s3.282-0.518,4.683-1.555l35.18-26.062l168.775,101.269V378.033z   M464.628,349.675l-155.102-93.064l155.102-114.9V349.675z"></path></svg>