<svg height='100px' width='100px'  xmlns="http://www.w3.org/2000/svg" viewBox="0 0 16 16" fill="none" x="0px" y="0px"><path fill-rule="evenodd" clip-rule="evenodd" d="M7.5 4C5.567 4 4 5.567 4 7.5C4 9.433 5.567 11 7.5 11C9.433 11 11 9.433 11 7.5C11 5.567 9.433 4 7.5 4ZM3 7.5C3 5.01472 5.01472 3 7.5 3C9.98528 3 12 5.01472 12 7.5C12 8.56278 11.6316 9.53951 11.0155 10.3094C11.0223 10.3155 11.029 10.3219 11.0355 10.3284L13.1568 12.4497C13.3521 12.645 13.3521 12.9616 13.1568 13.1568C12.9616 13.3521 12.645 13.3521 12.4497 13.1568L10.3284 11.0355C10.3219 11.029 10.3155 11.0223 10.3094 11.0155C9.53951 11.6316 8.56278 12 7.5 12C5.01472 12 3 9.98528 3 7.5ZM7 5.5C7 5.22386 7.22386 5 7.5 5C8.88071 5 10 6.11929 10 7.5C10 7.77614 9.77614 8 9.5 8C9.22386 8 9 7.77614 9 7.5C9 6.67157 8.32843 6 7.5 6C7.22386 6 7 5.77614 7 5.5Z" fill="black"></path></svg>