<svg height='100px' width='100px'  xmlns="http://www.w3.org/2000/svg" viewBox="0 0 16 16" fill="none" x="0px" y="0px"><path fill-rule="evenodd" clip-rule="evenodd" d="M4 4H12C12.5523 4 13 4.44772 13 5V5.67804L8 7.95077L3 5.67804V5C3 4.44772 3.44772 4 4 4ZM3 6.7765V11C3 11.5523 3.44772 12 4 12H12C12.5523 12 13 11.5523 13 11V6.7765L8.2069 8.95518L8 9.04923L7.7931 8.95518L3 6.7765ZM2 5C2 3.89543 2.89543 3 4 3H12C13.1046 3 14 3.89543 14 5V11C14 12.1046 13.1046 13 12 13H4C2.89543 13 2 12.1046 2 11V5Z" fill="black"></path></svg>