<svg height='100px' width='100px'  fill="#000000" xmlns:dc="http://purl.org/dc/elements/1.1/" xmlns:cc="http://creativecommons.org/ns#" xmlns:rdf="http://www.w3.org/1999/02/22-rdf-syntax-ns#" xmlns:svg="http://www.w3.org/2000/svg" xmlns="http://www.w3.org/2000/svg" xmlns:sodipodi="http://sodipodi.sourceforge.net/DTD/sodipodi-0.dtd" xmlns:inkscape="http://www.inkscape.org/namespaces/inkscape" version="1.1" x="0px" y="0px" viewBox="0 0 100 100"><g transform="translate(0,-952.36218)"><path style="font-size:medium;font-style:normal;font-variant:normal;font-weight:normal;font-stretch:normal;text-indent:0;text-align:start;text-decoration:none;line-height:normal;letter-spacing:normal;word-spacing:normal;text-transform:none;direction:ltr;block-progression:tb;writing-mode:lr-tb;text-anchor:start;baseline-shift:baseline;opacity:1;color:#000000;fill:#000000;fill-opacity:1;stroke:none;stroke-width:4;marker:none;visibility:visible;display:inline;overflow:visible;enable-background:accumulate;font-family:Sans;-inkscape-font-specification:Sans" d="M 37.8125 6 A 2.0002 2.0002 0 0 0 36 8 L 36 37.46875 L 13.25 78.03125 C 11.932057 80.37185 11 82.6319 11 85 C 11 87.6923 12.234158 90.1273 14.25 91.6875 C 16.265842 93.2476 18.951528 94 22 94 L 78 94 C 81.048472 94 83.734158 93.2476 85.75 91.6875 C 87.765842 90.1273 89 87.6923 89 85 C 89 82.6319 88.067943 80.37185 86.75 78.03125 L 64 37.46875 L 64 8 A 2.0002 2.0002 0 0 0 62 6 L 38 6 A 2.0002 2.0002 0 0 0 37.8125 6 z M 40 10 L 60 10 L 60 38 A 2.0002 2.0002 0 0 0 60.25 38.96875 L 83.25 79.96875 C 84.403443 82.01725 85 83.7625 85 85 C 85 86.5757 84.440263 87.65845 83.3125 88.53125 C 82.184737 89.40415 80.377109 90 78 90 L 22 90 C 19.622891 90 17.815263 89.40415 16.6875 88.53125 C 15.559737 87.65845 15 86.5757 15 85 C 15 83.7625 15.596557 82.01725 16.75 79.96875 L 39.15625 40 L 48 40 A 2.0002 2.0002 0 1 0 48 36 L 40 36 L 40 30 L 46 30 A 2.0002 2.0002 0 1 0 46 26 L 40 26 L 40 20 L 48 20 A 2.0002 2.0002 0 1 0 48 16 L 40 16 L 40 10 z " transform="translate(0,952.36218)"></path></g></svg>