<svg height='100px' width='100px'  fill="#000000" xmlns:dc="http://purl.org/dc/elements/1.1/" xmlns:cc="http://creativecommons.org/ns#" xmlns:rdf="http://www.w3.org/1999/02/22-rdf-syntax-ns#" xmlns:svg="http://www.w3.org/2000/svg" xmlns="http://www.w3.org/2000/svg" xmlns:sodipodi="http://sodipodi.sourceforge.net/DTD/sodipodi-0.dtd" xmlns:inkscape="http://www.inkscape.org/namespaces/inkscape" version="1.1" x="0px" y="0px" viewBox="0 0 100 100"><g transform="translate(0,-952.36218)"><path style="font-size:medium;font-style:normal;font-variant:normal;font-weight:normal;font-stretch:normal;text-indent:0;text-align:start;text-decoration:none;line-height:normal;letter-spacing:normal;word-spacing:normal;text-transform:none;direction:ltr;block-progression:tb;writing-mode:lr-tb;text-anchor:start;baseline-shift:baseline;opacity:1;color:#000000;fill:#000000;fill-opacity:1;stroke:none;stroke-width:3.99999976000000010;marker:none;visibility:visible;display:inline;overflow:visible;enable-background:accumulate;font-family:Sans;-inkscape-font-specification:Sans" d="M 50 6 C 46.985187 6 44.222989 7.51798 41.9375 9.90625 C 39.652011 12.29452 37.729569 15.59827 36.125 19.5625 C 35.663653 20.7023 35.218541 21.90708 34.8125 23.15625 C 31.211677 22.356682 27.833538 21.949959 24.8125 22 C 19.209771 22.0928 14.480795 23.7631 12.25 27.71875 C 10.763592 30.35444 10.709536 33.54381 11.625 36.75 C 12.540464 39.95619 14.393738 43.30194 17 46.71875 C 17.82483 47.800107 18.747846 48.910192 19.71875 50 C 18.749364 51.088315 17.823704 52.170122 17 53.25 C 14.393738 56.6668 12.540464 60.01255 11.625 63.21875 C 10.709536 66.42485 10.76359 69.6143 12.25 72.25 C 14.48083 76.2057 19.209938 77.87545 24.8125 77.96875 C 27.833528 78.018733 31.211677 77.638892 34.8125 76.84375 C 35.218541 78.092924 35.663653 79.297695 36.125 80.4375 C 37.729569 84.4017 39.652011 87.70555 41.9375 90.09375 C 44.222989 92.48205 46.985187 94 50 94 C 53.014815 94 55.777012 92.48205 58.0625 90.09375 C 60.347988 87.70555 62.270431 84.4017 63.875 80.4375 C 64.339789 79.289193 64.77886 78.071776 65.1875 76.8125 C 66.578071 77.121575 67.938332 77.375436 69.25 77.5625 C 73.449045 78.1613 77.216951 78.14415 80.40625 77.34375 C 83.595549 76.54325 86.264167 74.8847 87.75 72.25 C 89.236403 69.6143 89.290464 66.4562 88.375 63.25 C 87.459536 60.0438 85.606263 56.6668 83 53.25 C 82.17517 52.168648 81.252154 51.088489 80.28125 50 C 81.252154 48.910192 82.17517 47.800107 83 46.71875 C 85.606263 43.30194 87.459536 39.95619 88.375 36.75 C 89.290464 33.54381 89.236403 30.35446 87.75 27.71875 C 86.264167 25.08409 83.595549 23.42549 80.40625 22.625 C 78.8116 22.22475 77.054352 22.03194 75.1875 22 C 73.320648 21.9681 71.349522 22.10684 69.25 22.40625 C 67.938332 22.593307 66.578071 22.878429 65.1875 23.1875 C 64.77886 21.928228 64.339789 20.710801 63.875 19.5625 C 62.270431 15.59827 60.347989 12.29452 58.0625 9.90625 C 55.777011 7.51798 53.014812 6 50 6 z M 50 10 C 51.679608 10 53.405285 10.82514 55.1875 12.6875 C 56.969715 14.54986 58.684424 17.42623 60.15625 21.0625 C 60.553238 22.043293 60.924323 23.101809 61.28125 24.1875 C 57.673282 25.229607 53.873622 26.640651 50 28.40625 C 46.12161 26.627727 42.332407 25.204893 38.71875 24.15625 C 39.072997 23.080636 39.450138 22.034953 39.84375 21.0625 C 41.315576 17.42622 43.030285 14.54986 44.8125 12.6875 C 46.594715 10.82514 48.320392 10 50 10 z M 24.875 26 C 27.450019 25.957347 30.440614 26.306129 33.71875 27.03125 C 32.749446 30.789818 32.018786 34.92203 31.5625 39.3125 C 28.181451 41.83082 25.1531 44.454883 22.5 47.09375 C 21.671737 46.155795 20.886854 45.198111 20.1875 44.28125 C 17.794328 41.1438 16.188306 38.17632 15.46875 35.65625 C 14.749194 33.13618 14.88121 31.17262 15.71875 29.6875 C 16.973877 27.46191 20.025331 26.08036 24.875 26 z M 75.125 26 C 76.742106 26.0281 78.203105 26.19017 79.4375 26.5 C 81.906291 27.11965 83.443135 28.20136 84.28125 29.6875 C 85.118796 31.17264 85.250806 33.10493 84.53125 35.625 C 83.811694 38.14507 82.205672 41.1438 79.8125 44.28125 C 79.10966 45.202666 78.333017 46.152197 77.5 47.09375 C 74.853012 44.466953 71.808596 41.881746 68.4375 39.375 C 67.980512 34.950045 67.258845 30.784036 66.28125 27 C 67.495076 26.73215 68.681846 26.504993 69.8125 26.34375 C 71.732768 26.0699 73.507894 25.97191 75.125 26 z M 37.59375 28.03125 C 40.040847 28.744563 42.618654 29.669862 45.25 30.75 C 43.695056 31.563719 42.123048 32.390115 40.5625 33.3125 C 38.978909 34.248513 37.454462 35.233259 35.96875 36.21875 C 36.38973 33.313486 36.939067 30.57448 37.59375 28.03125 z M 62.375 28.03125 C 63.032811 30.585474 63.609291 33.330616 64.03125 36.25 C 62.545538 35.265798 61.021091 34.279758 59.4375 33.34375 C 57.866323 32.415082 56.282355 31.570374 54.71875 30.75 C 57.361279 29.657504 59.916035 28.751184 62.375 28.03125 z M 49.96875 32.84375 C 52.414674 34.016781 54.896312 35.316183 57.375 36.78125 C 59.944544 38.30002 62.36739 39.921907 64.65625 41.5625 C 64.887257 44.279544 65 47.110505 65 50 C 65 52.88948 64.887257 55.720464 64.65625 58.4375 C 62.36739 60.078098 59.944545 61.668728 57.375 63.1875 C 54.896314 64.652569 52.414672 65.98322 49.96875 67.15625 C 47.542148 65.988308 45.084944 64.672719 42.625 63.21875 C 40.063214 61.704537 37.657862 60.1073 35.375 58.46875 C 35.142078 55.741001 35 52.901802 35 50 C 35 47.110507 35.112743 44.279544 35.34375 41.5625 C 37.63261 39.921906 40.055456 38.300028 42.625 36.78125 C 45.08501 35.327227 47.542085 34.014696 49.96875 32.84375 z M 31.15625 44.75 C 31.0713 46.474699 31 48.218574 31 50 C 31 51.792242 31.070278 53.546459 31.15625 55.28125 C 29.001588 53.535228 27.024136 51.766154 25.25 50 C 27.024136 48.237391 29.001588 46.49185 31.15625 44.75 z M 68.84375 44.75 C 70.992069 46.486723 72.948647 48.242538 74.71875 50 C 72.950161 51.755528 70.98969 53.515196 68.84375 55.25 C 68.9287 53.525307 69 51.781418 69 50 C 69 48.218572 68.9287 46.4747 68.84375 44.75 z M 22.5 52.90625 C 25.150896 55.541952 28.185447 58.172168 31.5625 60.6875 C 32.018786 65.077961 32.749446 69.210177 33.71875 72.96875 C 30.440613 73.693878 27.450029 74.011378 24.875 73.96875 C 20.025164 73.88775 16.973842 72.50685 15.71875 70.28125 C 14.881212 68.79615 14.749194 66.86375 15.46875 64.34375 C 16.188306 61.82365 17.794328 58.825 20.1875 55.6875 C 20.886854 54.770647 21.671737 53.843063 22.5 52.90625 z M 77.5 52.90625 C 78.328263 53.843064 79.113146 54.770647 79.8125 55.6875 C 82.205671 58.8249 83.811694 61.82365 84.53125 64.34375 C 85.250806 66.86375 85.118795 68.79615 84.28125 70.28125 C 83.443135 71.76745 81.906291 72.84905 79.4375 73.46875 C 76.968709 74.08835 73.653035 74.1727 69.8125 73.625 C 68.681846 73.463757 67.495076 73.266695 66.28125 73 C 67.254277 69.23364 67.980036 65.089286 68.4375 60.6875 C 71.814553 58.172168 74.849104 55.541952 77.5 52.90625 z M 35.96875 63.78125 C 37.454462 64.766733 38.978909 65.72025 40.5625 66.65625 C 42.115672 67.574284 43.671098 68.439607 45.21875 69.25 C 42.599361 70.323926 40.030284 71.22725 37.59375 71.9375 C 36.942392 69.402461 36.388116 66.675369 35.96875 63.78125 z M 64.03125 63.78125 C 63.609878 66.689216 63.030492 69.423527 62.375 71.96875 C 59.925608 71.255298 57.381708 70.363803 54.75 69.28125 C 56.305646 68.465358 57.874392 67.580162 59.4375 66.65625 C 61.021091 65.72025 62.545538 64.766733 64.03125 63.78125 z M 50.0625 71.59375 C 53.916186 73.347142 57.691109 74.77554 61.28125 75.8125 C 60.924323 76.898195 60.553238 77.9567 60.15625 78.9375 C 58.684424 82.5738 56.969716 85.4501 55.1875 87.3125 C 53.405284 89.1748 51.679606 90 50 90 C 48.320392 90 46.594715 89.1748 44.8125 87.3125 C 43.030285 85.4501 41.315576 82.5738 39.84375 78.9375 C 39.453514 77.97338 39.070311 76.940555 38.71875 75.875 C 42.351951 74.825526 46.162225 73.382081 50.0625 71.59375 z " transform="translate(0,952.36218)"></path></g></svg>