<svg height='100px' width='100px'  fill="#000000" xmlns="http://www.w3.org/2000/svg" xmlns:xlink="http://www.w3.org/1999/xlink" version="1.1" x="0px" y="0px" viewBox="0 0 96 96" enable-background="new 0 0 96 96" xml:space="preserve"><path d="M87.533,40.822c-1.94,0-3.265,1.81-3.941,4.212h-2.416V32.743c0-6.738-5.482-12.22-12.221-12.22H51.44l-3.687-2.383  l6.021-3.892l-6.019-3.882l4.066-2.623l-1.627-2.521l-7.973,5.145l6.021,3.884l-6.018,3.89l3.687,2.383H27.037  c-6.738,0-12.221,5.481-12.221,12.22v12.291h-2.408c-0.677-2.402-2.001-4.212-3.941-4.212C5.534,40.822,4,44.948,4,49.023  s1.534,8.2,4.467,8.2c1.941,0,3.265-1.81,3.941-4.212h2.408v12.291c0,6.738,5.482,12.221,12.221,12.221h5.842  c-2.687,3.387-4.186,7.6-4.186,11.993v1.5h38.607v-1.5c0-4.397-1.495-8.61-4.175-11.993h5.829c6.738,0,12.221-5.482,12.221-12.221  V53.012h2.416c0.677,2.402,2,4.212,3.941,4.212c2.933,0,4.467-4.125,4.467-8.2S90.466,40.822,87.533,40.822z M8.467,54.21  C8.024,53.962,7,52.152,7,49.023c0-3.233,1.094-5.059,1.425-5.207c0.416,0.148,1.51,1.973,1.51,5.207  C9.935,52.153,8.91,53.963,8.467,54.21z M12.935,50.012v-0.988v-0.989h1.882v1.978H12.935z M64.232,88.017h-32.47  c0.369-4.007,2.209-7.746,5.188-10.493h22.105C62.028,80.266,63.864,84.004,64.232,88.017z M78.176,65.303  c0,5.084-4.137,9.221-9.221,9.221h-8.771H35.821h-8.784c-5.084,0-9.221-4.137-9.221-9.221V53.012v-7.978V32.743  c0-5.084,4.137-9.22,9.221-9.22h41.918c5.084,0,9.221,4.136,9.221,9.22V65.303z M83.065,50.012h-1.882v-1.978h1.882v0.989V50.012z   M87.533,54.21c-0.443-0.247-1.468-2.057-1.468-5.187c0-3.234,1.094-5.059,1.426-5.207C87.906,43.965,89,45.79,89,49.023  C89,52.152,87.976,53.962,87.533,54.21z"></path><path d="M46.936,38.46c0-4.903-5.277-8.744-12.015-8.744c-6.736,0-12.014,3.841-12.014,8.744c0,4.902,5.277,8.743,12.014,8.743  C41.658,47.203,46.936,43.362,46.936,38.46z M34.921,44.203c-4.886,0-9.014-2.63-9.014-5.743s4.128-5.744,9.014-5.744  c4.887,0,9.015,2.631,9.015,5.744S39.808,44.203,34.921,44.203z"></path><path d="M61.079,29.716c-6.737,0-12.015,3.841-12.015,8.744c0,4.902,5.277,8.743,12.015,8.743c6.736,0,12.014-3.841,12.014-8.743  C73.093,33.557,67.815,29.716,61.079,29.716z M61.079,44.203c-4.887,0-9.015-2.63-9.015-5.743s4.128-5.744,9.015-5.744  c4.886,0,9.014,2.631,9.014,5.744S65.965,44.203,61.079,44.203z"></path><path d="M48,58.947c-6.737,0-12.015,3.841-12.015,8.745v1.5h24.029v-1.5C60.015,62.788,54.737,58.947,48,58.947z M39.311,66.192  c1.065-2.414,4.613-4.245,8.689-4.245s7.624,1.831,8.689,4.245H39.311z"></path></svg>