<svg height='100px' width='100px'  fill="#000000" xmlns="http://www.w3.org/2000/svg" xmlns:xlink="http://www.w3.org/1999/xlink" version="1.1" x="0px" y="0px" viewBox="0 0 100 100" style="enable-background:new 0 0 100 100;" xml:space="preserve"><path d="M76.1850586,67.0273438H58.8758545c11.2244263-3.6011353,19.5045776-13.8303833,20.211792-26.06073  c0.0325317-0.3928833,0.0534668-0.7878418,0.0534668-1.1863403c0-0.0708008-0.0066528-0.1405029-0.0076904-0.2111206  c0.0010376-0.1011963,0.0076904-0.2011108,0.0076904-0.3025513c0-5.4838257-1.5241699-10.6174927-4.1679688-15.003418V10.9179688  c0-0.5527344-0.4477539-1-1-1s-1,0.4472656-1,1V21.366394c-5.3393555-6.840271-13.6531982-11.2511597-22.9829102-11.2511597  c-16.0737305,0-29.1508789,13.0771484-29.1508789,29.1513672c0,0.1014404,0.0066528,0.201355,0.0076904,0.3025513  c-0.0010376,0.0706177-0.0076904,0.1403198-0.0076904,0.2111206c0,0.3984985,0.0209351,0.793457,0.0534668,1.1863403  c0.7072144,12.2303467,8.9873657,22.4595947,20.211792,26.06073H24.065918c-7.6811523,0-13.9306641,6.2490234-13.9306641,13.9306641  v8c0,0.5527344,0.4477539,1,1,1h77.9799805c0.5522461,0,1-0.4472656,1-1v-8  C90.1152344,73.2763672,83.8662109,67.0273438,76.1850586,67.0273438z M22.8471069,39.5731812  c0.1657104-10.0178223,12.2747803-18.1347046,27.1431274-18.1347046s26.977417,8.1168823,27.1431274,18.1347046  c-0.0047607,0.4279785-0.0175781,0.8539429-0.0420532,1.2769775c-0.8232422,9.618042-12.6618042,17.2728882-27.1010742,17.2728882  s-26.277832-7.6548462-27.1010742-17.2728882C22.8646851,40.427124,22.8518677,40.0011597,22.8471069,39.5731812z   M49.9902344,12.1152344c11.6947632,0,21.6860962,7.4320679,25.4991455,17.8213501  c-4.9782715-6.2544556-14.5401001-10.4981079-25.4991455-10.4981079s-20.520874,4.2436523-25.4991455,10.4981079  C28.3041382,19.5473022,38.2954712,12.1152344,49.9902344,12.1152344z M25.3323364,50.6107178  c5.1680908,5.7094727,14.2860107,9.5123291,24.6578979,9.5123291s19.4898071-3.8028564,24.6578979-9.5123291  c-4.3051147,9.3198853-13.7354126,15.8062744-24.6578979,15.8062744S29.6374512,59.930603,25.3323364,50.6107178z   M51.1254883,69.0273438h18.1035156v18.9306641H51.1254883V69.0273438z M49.1254883,87.9580078H31.0214844V69.0273438h18.1040039  V87.9580078z M12.1352539,80.9580078c0-6.578125,5.3520508-11.9306641,11.9306641-11.9306641h4.9555664v18.9306641H12.1352539  V80.9580078z M88.1152344,87.9580078H71.2290039V69.0273438h4.9560547c6.578125,0,11.9301758,5.3525391,11.9301758,11.9306641  V87.9580078z"></path><path d="M57.1347656,30.2529297c0.059082,0.0039062,5.9472656,0.4707031,9.9858398,6.1308594  c0.1953125,0.2734375,0.5024414,0.4189453,0.8149414,0.4189453c0.2006836,0,0.4038086-0.0605469,0.5800781-0.1855469  c0.4492188-0.3212891,0.5537109-0.9453125,0.2329102-1.3955078c-4.5810547-6.4199219-11.1967773-6.9453125-11.4760742-6.9648438  c-0.5498047-0.0136719-1.0283203,0.3779297-1.0664062,0.9296875C56.1679688,29.7373047,56.5839844,30.2148438,57.1347656,30.2529297  z"></path><path d="M36.9853516,75.3808594h6.6894531c0.5522461,0,1-0.4472656,1-1s-0.4477539-1-1-1h-6.6894531c-0.5522461,0-1,0.4472656-1,1  S36.4331055,75.3808594,36.9853516,75.3808594z"></path><path d="M43.6748047,78.6132812h-6.6894531c-0.5522461,0-1,0.4472656-1,1s0.4477539,1,1,1h6.6894531c0.5522461,0,1-0.4472656,1-1  S44.2270508,78.6132812,43.6748047,78.6132812z"></path></svg>