<svg height='100px' width='100px'  fill="#000000" xmlns="http://www.w3.org/2000/svg" xmlns:xlink="http://www.w3.org/1999/xlink" version="1.1" x="0px" y="0px" viewBox="0 0 100 100" style="enable-background:new 0 0 100 100;" xml:space="preserve"><g><g><path d="M72.565,85.541c-1.442,0-2.609-1.168-2.609-2.609V20.324h-38.99v62.607c0,1.441-1.167,2.609-2.609,2.609    s-2.609-1.168-2.609-2.609V17.715c0-1.441,1.167-2.609,2.609-2.609h44.208c1.442,0,2.609,1.168,2.609,2.609v65.216    C75.174,84.372,74.007,85.541,72.565,85.541z"></path></g><g><path d="M42.72,53.908c-0.721,0-1.305-0.583-1.305-1.305V45.82c0-0.721,0.583-1.305,1.305-1.305c0.721,0,1.305,0.583,1.305,1.305    v6.784C44.025,53.325,43.441,53.908,42.72,53.908z"></path></g><g><path d="M58.691,53.908c-0.721,0-1.305-0.583-1.305-1.305V45.82c0-0.721,0.583-1.305,1.305-1.305c0.721,0,1.305,0.583,1.305,1.305    v6.784C59.996,53.325,59.412,53.908,58.691,53.908z"></path></g><g><path d="M42.72,38.809c-0.721,0-1.305-0.583-1.305-1.305V30.72c0-0.721,0.583-1.305,1.305-1.305c0.721,0,1.305,0.583,1.305,1.305    v6.784C44.025,38.225,43.441,38.809,42.72,38.809z"></path></g><g><path d="M58.691,38.809c-0.721,0-1.305-0.583-1.305-1.305V30.72c0-0.721,0.583-1.305,1.305-1.305c0.721,0,1.305,0.583,1.305,1.305    v6.784C59.996,38.225,59.412,38.809,58.691,38.809z"></path></g><g><path d="M42.72,68.134c-0.721,0-1.305-0.583-1.305-1.305v-6.784c0-0.721,0.583-1.305,1.305-1.305c0.721,0,1.305,0.583,1.305,1.305    v6.784C44.025,67.55,43.441,68.134,42.72,68.134z"></path></g><g><path d="M58.691,68.134c-0.721,0-1.305-0.583-1.305-1.305v-6.784c0-0.721,0.583-1.305,1.305-1.305    c0.721,0,1.305,0.583,1.305,1.305v6.784C59.996,67.55,59.412,68.134,58.691,68.134z"></path></g></g></svg>