<svg height='100px' width='100px'  fill="#000000" xmlns="http://www.w3.org/2000/svg" xmlns:xlink="http://www.w3.org/1999/xlink" version="1.1" x="0px" y="0px" viewBox="0 0 70 70" style="enable-background:new 0 0 70 70;" xml:space="preserve"><path d="M62.1606445,28.7260742c-2.8815918,0-5.2763062,2.0998535-5.7488403,4.8486328h-5.7011108L43.7496948,21.520752  l2.8778076-4.9567871c0.675293,0.2735596,1.4113159,0.4277344,2.1835327,0.4277344  c3.2197266,0,5.8393555-2.6201172,5.8393555-5.8398438s-2.6196289-5.8388672-5.8393555-5.8388672  s-5.8393555,2.6191406-5.8393555,5.8388672c0,1.7296143,0.7603149,3.2814331,1.9591675,4.3517456l-2.8864136,4.9714966H27.954895  l-2.9685669-5.1004028c1.1168823-1.0644531,1.8173828-2.5620117,1.8173828-4.2228394  c0-3.2197266-2.6196289-5.8388672-5.8393555-5.8388672S15.125,7.9321289,15.125,11.1518555s2.6196289,5.8398438,5.8393555,5.8398438  c0.8390503,0,1.635498-0.1813354,2.3572998-0.5014648l2.9282837,5.031189l-6.9741821,12.0767212h-5.68396  c-0.4629517-2.7601318-2.8627319-4.8720703-5.7524414-4.8720703C4.6196289,28.7260742,2,31.3452148,2,34.5649414  s2.6196289,5.8398438,5.8393555,5.8398438c2.8666382,0,5.2523193-2.0787964,5.7422485-4.8066406h5.6989136l6.9696045,12.0543823  l-3.312561,5.7062378c-0.6174927-0.2227173-1.2799072-0.3504639-1.9732056-0.3504639  c-3.2197266,0-5.8393555,2.6191406-5.8393555,5.8388672s2.6196289,5.8398438,5.8393555,5.8398438  s5.8393555-2.6201172,5.8393555-5.8398438c0-1.8104858-0.8284302-3.4310913-2.1259766-4.5028687l3.2778931-5.6465454h14.0879517  l3.2077026,5.5314331c-1.3833618,1.0686646-2.2796021,2.7386475-2.2796021,4.617981  c0,3.2197266,2.6196289,5.8398438,5.8393555,5.8398438s5.8393555-2.6201172,5.8393555-5.8398438  s-2.6196289-5.8388672-5.8393555-5.8388672c-0.6247559,0-1.2258301,0.1010132-1.7906494,0.2835083L43.75,47.6523438  l6.9830322-12.0776367h5.6817627c0.4804688,2.7393799,2.8710327,4.8300781,5.7458496,4.8300781  C65.3803711,40.4047852,68,37.784668,68,34.5649414S65.3803711,28.7260742,62.1606445,28.7260742z M48.8110352,7.3129883  c2.1171875,0,3.8393555,1.7216797,3.8393555,3.8388672s-1.722168,3.8398438-3.8393555,3.8398438  s-3.8393555-1.7226562-3.8393555-3.8398438S46.6938477,7.3129883,48.8110352,7.3129883z M17.125,11.1518555  c0-2.1171875,1.722168-3.8388672,3.8393555-3.8388672s3.8393555,1.7216797,3.8393555,3.8388672  s-1.722168,3.8398438-3.8393555,3.8398438S17.125,13.269043,17.125,11.1518555z M20.9643555,62.6870117  c-2.1171875,0-3.8393555-1.7226562-3.8393555-3.8398438s1.722168-3.8388672,3.8393555-3.8388672  s3.8393555,1.7216797,3.8393555,3.8388672S23.081543,62.6870117,20.9643555,62.6870117z M52.6503906,58.847168  c0,2.1171875-1.722168,3.8398438-3.8393555,3.8398438s-3.8393555-1.7226562-3.8393555-3.8398438  s1.722168-3.8388672,3.8393555-3.8388672S52.6503906,56.7299805,52.6503906,58.847168z M7.8393555,38.4047852  C5.722168,38.4047852,4,36.6821289,4,34.5649414s1.722168-3.8388672,3.8393555-3.8388672s3.8393555,1.7216797,3.8393555,3.8388672  S9.956543,38.4047852,7.8393555,38.4047852z M41.9912109,46.6977539H28.0087891l-6.9985352-12.1035156l6.9985352-12.1191406  h13.9824219l6.9985352,12.1191406L41.9912109,46.6977539z M62.1606445,38.4047852  c-2.1171875,0-3.8393555-1.7226562-3.8393555-3.8398438s1.722168-3.8388672,3.8393555-3.8388672S66,32.4477539,66,34.5649414  S64.277832,38.4047852,62.1606445,38.4047852z"></path></svg>