<svg height='100px' width='100px'  fill="#000000" xmlns="http://www.w3.org/2000/svg" xmlns:xlink="http://www.w3.org/1999/xlink" xml:space="preserve" version="1.1" style="shape-rendering:geometricPrecision;text-rendering:geometricPrecision;image-rendering:optimizeQuality;" viewBox="0 0 508 508" x="0px" y="0px" fill-rule="evenodd" clip-rule="evenodd"><defs><style type="text/css">
   
    .fil1 {fill:#000000}
    .fil0 {fill:#000000;fill-rule:nonzero}
   
  </style></defs><g><path class="fil0" d="M254 145c60,0 109,49 109,109 0,60 -49,109 -109,109 -60,0 -109,-49 -109,-109 0,-60 49,-109 109,-109zm0 30c-44,0 -79,35 -79,79 0,44 35,79 79,79 44,0 79,-35 79,-79 0,-44 -35,-79 -79,-79z"></path><path class="fil1" d="M314 75c8,2 17,6 24,10 7,3 14,2 19,-2l36 -29c6,-5 16,-5 21,1l39 39c6,5 6,15 1,21l-29 36c-4,5 -5,12 -2,19 4,7 8,16 10,24 3,7 8,11 15,12l46 5c8,1 14,8 14,16l0 54c0,8 -6,15 -14,16l-46 5c-7,1 -12,5 -15,12 -2,8 -6,17 -10,24 -3,7 -2,14 2,19l29 36c5,6 5,16 -1,21l-39 39c-5,6 -15,6 -21,1l-36 -29c-5,-4 -12,-5 -19,-2 -7,4 -16,8 -24,10 -7,3 -11,8 -12,15l-5 46c-1,8 -8,14 -16,14l-54 0c-8,0 -15,-6 -16,-14l-5 -46c-1,-7 -5,-12 -12,-15 -8,-2 -17,-6 -24,-10 -7,-3 -14,-2 -19,2l-36 29c-6,5 -16,5 -21,-1l-39 -39c-6,-5 -6,-15 -1,-21l29 -36c4,-5 5,-12 2,-19 -4,-7 -8,-16 -10,-24 -3,-7 -8,-11 -15,-12l-46 -5c-8,-1 -14,-8 -14,-16l0 -54c0,-8 6,-15 14,-16l46 -5c7,-1 12,-5 15,-12 2,-8 6,-17 10,-24 3,-7 2,-14 -2,-19l-29 -36c-5,-6 -5,-16 1,-21l39 -39c5,-6 15,-6 21,-1l36 29c5,4 12,5 19,2 7,-4 16,-8 24,-10 7,-3 11,-8 12,-15l5 -46c1,-8 8,-14 16,-14l54 0c8,0 15,6 16,14l5 46c1,7 5,12 12,15zm-45 -45l-30 0 -4 33c-2,18 -14,34 -32,40 -7,2 -14,5 -20,8 -17,8 -36,6 -51,-5l-26 -21 -21 21 21 26c11,15 13,34 5,51 -3,6 -6,13 -8,20 -6,18 -22,30 -40,32l-33 4 0 30 33 4c18,2 34,14 40,32 2,7 5,14 8,20 8,17 6,36 -5,51l-21 26 21 21 26 -21c15,-11 34,-13 51,-5 6,3 13,6 20,8 18,6 30,22 32,40l4 33 30 0 4 -33c2,-18 14,-34 32,-40 7,-2 14,-5 20,-8 17,-8 36,-6 51,5l26 21 21 -21 -21 -26c-11,-15 -13,-34 -5,-51 3,-6 6,-13 8,-20 6,-18 22,-30 40,-32l33 -4 0 -30 -33 -4c-18,-2 -34,-14 -40,-32 -2,-7 -5,-14 -8,-20 -8,-17 -6,-36 5,-51l21 -26 -21 -21 -26 21c-15,11 -34,13 -51,5 -6,-3 -13,-6 -20,-8 -18,-6 -30,-22 -32,-40l-4 -33z"></path></g></svg>