<svg height='100px' width='100px'  fill="#000000" xmlns="http://www.w3.org/2000/svg" xmlns:xlink="http://www.w3.org/1999/xlink" viewBox="0 0 64 64" version="1.1" x="0px" y="0px"><title>1</title><desc>Created with Sketch.</desc><g stroke="none" stroke-width="1" fill="none" fill-rule="evenodd"><g fill="#000000" fill-rule="nonzero"><path d="M2,7 L2,58 L62,58 L62,7 L2,7 Z M2,5 L62,5 C63.1045695,5 64,5.8954305 64,7 L64,58 C64,59.1045695 63.1045695,60 62,60 L2,60 C0.8954305,60 3.57315355e-16,59.1045695 2.22044605e-16,58 L0,7 C-1.3527075e-16,5.8954305 0.8954305,5 2,5 Z M4.5,12.5 C3.3954305,12.5 2.5,11.6045695 2.5,10.5 C2.5,9.3954305 3.3954305,8.5 4.5,8.5 C5.6045695,8.5 6.5,9.3954305 6.5,10.5 C6.5,11.6045695 5.6045695,12.5 4.5,12.5 Z M4.5,11.5 C5.05228475,11.5 5.5,11.0522847 5.5,10.5 C5.5,9.94771525 5.05228475,9.5 4.5,9.5 C3.94771525,9.5 3.5,9.94771525 3.5,10.5 C3.5,11.0522847 3.94771525,11.5 4.5,11.5 Z M9.5,12.5 C8.3954305,12.5 7.5,11.6045695 7.5,10.5 C7.5,9.3954305 8.3954305,8.5 9.5,8.5 C10.6045695,8.5 11.5,9.3954305 11.5,10.5 C11.5,11.6045695 10.6045695,12.5 9.5,12.5 Z M9.5,11.5 C10.0522847,11.5 10.5,11.0522847 10.5,10.5 C10.5,9.94771525 10.0522847,9.5 9.5,9.5 C8.94771525,9.5 8.5,9.94771525 8.5,10.5 C8.5,11.0522847 8.94771525,11.5 9.5,11.5 Z M14.5,12.5 C13.3954305,12.5 12.5,11.6045695 12.5,10.5 C12.5,9.3954305 13.3954305,8.5 14.5,8.5 C15.6045695,8.5 16.5,9.3954305 16.5,10.5 C16.5,11.6045695 15.6045695,12.5 14.5,12.5 Z M14.5,11.5 C15.0522847,11.5 15.5,11.0522847 15.5,10.5 C15.5,9.94771525 15.0522847,9.5 14.5,9.5 C13.9477153,9.5 13.5,9.94771525 13.5,10.5 C13.5,11.0522847 13.9477153,11.5 14.5,11.5 Z M2,14 L62,14 L62,16 L2,16 L2,14 Z"></path></g></g></svg>