<svg height='100px' width='100px'  xmlns="http://www.w3.org/2000/svg" viewBox="0 0 16 16" fill="none" x="0px" y="0px"><path fill-rule="evenodd" clip-rule="evenodd" d="M11.1713 7.70742C11.4034 7.23033 11.5 6.85436 11.5 6.58333C11.5 4.58694 9.91578 3 8 3C6.08422 3 4.5 4.58694 4.5 6.58333C4.5 6.85436 4.5966 7.23033 4.82874 7.70742C5.05603 8.17453 5.38229 8.6759 5.76433 9.17968C6.50608 10.1578 7.3968 11.0655 8 11.6421C8.6032 11.0655 9.49392 10.1578 10.2357 9.17968C10.6177 8.6759 10.944 8.17453 11.1713 7.70742ZM8.63475 12.4186C9.87499 11.2398 12.5 8.51665 12.5 6.58333C12.5 4.05203 10.4853 2 8 2C5.51472 2 3.5 4.05203 3.5 6.58333C3.5 8.51665 6.12501 11.2398 7.36525 12.4186C7.72475 12.7603 8.27525 12.7603 8.63475 12.4186ZM8 7.5C8.55228 7.5 9 7.05228 9 6.5C9 5.94772 8.55228 5.5 8 5.5C7.44772 5.5 7 5.94772 7 6.5C7 7.05228 7.44772 7.5 8 7.5ZM8 8.5C9.10457 8.5 10 7.60457 10 6.5C10 5.39543 9.10457 4.5 8 4.5C6.89543 4.5 6 5.39543 6 6.5C6 7.60457 6.89543 8.5 8 8.5ZM4 13C3.72386 13 3.5 13.2239 3.5 13.5C3.5 13.7761 3.72386 14 4 14H12C12.2761 14 12.5 13.7761 12.5 13.5C12.5 13.2239 12.2761 13 12 13H4Z" fill="black"></path></svg>