<svg height='100px' width='100px'  fill="#000000" xmlns="http://www.w3.org/2000/svg" version="1.1" viewBox="0 0 34 34" x="0px" y="0px"><title>analytics</title><path d="M4.585 1.458c-1.693 0-3.064 1.372-3.064 3.064v19.367c0 1.693 1.372 3.064 3.064 3.064h10.107v4.424h-5.143c-0.324 0-0.58 0.257-0.58 0.582s0.256 0.582 0.58 0.582h14.898c0.324 0 0.582-0.258 0.582-0.582s-0.258-0.582-0.582-0.582h-5.143v-4.424h10.109c1.693 0 3.064-1.372 3.064-3.064v-19.367c0-1.693-1.372-3.064-3.064-3.064zM4.583 2.62h24.83c1.046 0 1.902 0.856 1.902 1.902v15.682h-28.635v-15.682c0-1.046 0.856-1.902 1.902-1.902zM26.31 5.245c-1.807 0-2.988 1.873-2.203 3.5l0.107 0.221-2.178 2.234-0.229-0.115c-0.93-0.463-2.066-0.291-2.82 0.471l-0.176 0.178-3.17-1.527 0.043-0.258c0.247-1.503-0.909-2.842-2.41-2.842-1.734 0-2.92 1.742-2.266 3.357l0.084 0.205-2.176 2.342-0.23-0.104c-1.625-0.733-3.443 0.453-3.443 2.23 0 1.35 1.093 2.443 2.443 2.443 1.835 0 3.006-1.923 2.18-3.549l-0.109-0.217 2.098-2.26 0.24 0.133c0.893 0.495 2.012 0.389 2.801-0.313l0.174-0.154 3.248 1.563-0.025 0.244c-0.146 1.451 0.989 2.689 2.432 2.689 1.786 0 2.968-1.835 2.219-3.463l-0.1-0.219 2.193-2.25 0.227 0.107c1.625 0.774 3.492-0.402 3.492-2.205 0-1.35-1.093-2.443-2.443-2.443zM26.31 6.407c0.703 0 1.281 0.578 1.281 1.281s-0.579 1.279-1.281 1.279c-0.703 0-1.279-0.577-1.279-1.279s0.576-1.281 1.279-1.281zM13.274 8.271c0.703 0 1.281 0.578 1.281 1.281s-0.579 1.279-1.281 1.279c-0.703 0-1.281-0.576-1.281-1.279s0.578-1.281 1.281-1.281zM20.724 11.995c0.703 0 1.279 0.577 1.279 1.279s-0.576 1.281-1.279 1.281c-0.703 0-1.281-0.578-1.281-1.281s0.579-1.279 1.281-1.279zM7.687 13.856c0.703 0 1.281 0.578 1.281 1.281s-0.579 1.279-1.281 1.279c-0.703 0-1.279-0.577-1.279-1.279s0.576-1.281 1.279-1.281zM2.681 21.368h28.635v2.521c0 1.046-0.856 1.902-1.902 1.902h-24.83c-1.046 0-1.902-0.856-1.902-1.902v-2.172zM15.856 26.954h2.285v4.424h-2.285v-4.074z"></path></svg>