<svg height='100px' width='100px'  fill="#000000" xmlns="http://www.w3.org/2000/svg" xmlns:xlink="http://www.w3.org/1999/xlink" version="1.1" x="0px" y="0px" viewBox="0 0 56 56" style="enable-background:new 0 0 56 56;" xml:space="preserve"><style type="text/css">
	.st0{fill:none;}
</style><g><path d="M45.4257813,11.0949707l-17-8c-0.2695313-0.1269531-0.5820313-0.1269531-0.8515625,0l-17,8   c-0.3203125,0.1513672-0.5371094,0.4599609-0.5698242,0.8134766c-0.0327148,0.3525391,0.1235352,0.6962891,0.4111328,0.9033203   L18,18.2769775v1.7232666v5.0898438c0,3.2485352,1.5780029,6.1278076,4,7.9362183v3.973938h-4c-3.8598633,0-7,3.140625-7,7v8   c0,0.5527344,0.4477539,1,1,1h32c0.5522461,0,1-0.4472656,1-1v-8c0-3.859375-3.1401367-7-7-7h-4v-3.973938   c2.4219971-1.8084106,4-4.6876831,4-7.9362183v-5.0898438v-1.7232666l5-3.6029053v10.3261719c0,0.5527344,0.4477539,1,1,1   s1-0.4472656,1-1v-11.767334l0.5844727-0.4211426c0.2875977-0.2070313,0.4438477-0.5507813,0.4111328-0.9033203   C45.9628906,11.5549316,45.7460938,11.2463379,45.4257813,11.0949707z M43,44.0002441v7H13v-7c0-2.7568359,2.2431641-5,5-5   h4.3818359l4.7236328,9.4472656C27.2749023,48.786377,27.6210938,49.0002441,28,49.0002441   s0.7250977-0.2138672,0.8945313-0.5527344l4.7236328-9.4472656H38C40.7568359,39.0002441,43,41.2434082,43,44.0002441z    M24.6181641,39.0002441h6.7636719L28,45.763916L24.6181641,39.0002441z M32,37.0002441h-8v-2.8071899   c1.2006226,0.5177002,2.5218506,0.8071899,3.9101563,0.8071899h0.1796875c1.3883057,0,2.7095337-0.2894897,3.9101563-0.8071899   V37.0002441z M28.0898438,33.0002441h-0.1796875C23.5483398,33.0002441,20,29.451416,20,25.0900879v-4.4230347   c5.3117065-2.1956177,10.6882935-2.1956177,16,0v4.4230347C36,29.451416,32.4516602,33.0002441,28.0898438,33.0002441z    M36,18.5090332c-2.6577148-1.0019531-5.3286133-1.5029297-8-1.5029297s-5.3422852,0.5009766-8,1.5029297v-2.015625   c4.5136719-3.3105469,11.4863281-3.3105469,16,0V18.5090332z M37.9630737,15.8383179   c-0.0408936-0.239563-0.1456299-0.4644775-0.338562-0.6193237c-5.3964844-4.3164063-13.8525391-4.3164063-19.2490234,0   c-0.1929321,0.1548462-0.2976685,0.3797607-0.338562,0.6193237l-5.0745239-3.6564331L28,5.1057129l15,7.0584717v0.0447998   L37.9630737,15.8383179z"></path></g></svg>