<svg height='100px' width='100px'  fill="#000000" xmlns="http://www.w3.org/2000/svg" data-name="Layer 1" viewBox="0 0 100 100" x="0px" y="0px"><title>135all</title><path d="M50,10.24c-24.82,0-38.21,6.11-38.21,11.85V78.43a1,1,0,0,0,.14.48C13.37,84.34,26.61,89.76,50,89.76c24.53,0,37.89-6,38.2-11.65,0,0,0,0,0-.07V22.09C88.21,16.35,74.82,10.24,50,10.24Zm0,2c21.34,0,36.21,5.19,36.21,9.85S71.34,31.94,50,31.94s-36.21-5.19-36.21-9.85S28.66,12.24,50,12.24ZM13.79,44.54c4.58,4.33,17,8,36.21,8s31.63-3.68,36.21-8V59.3c0,4.66-14.87,9.85-36.21,9.85S13.79,64,13.79,59.3Zm36.21,6c-21.34,0-36.21-5.19-36.21-9.85V25.93c4.58,4.33,17,8,36.21,8s31.63-3.68,36.21-8V40.7C86.21,45.36,71.34,50.55,50,50.55Zm0,37.21c-21.34,0-36.21-5.19-36.21-9.85V63.15c4.58,4.33,17,8,36.21,8s31.63-3.68,36.21-8V77.91C86.21,82.57,71.34,87.76,50,87.76Z"></path></svg>