<svg height='100px' width='100px'  fill="#000000" xmlns:dc="http://purl.org/dc/elements/1.1/" xmlns:cc="http://creativecommons.org/ns#" xmlns:rdf="http://www.w3.org/1999/02/22-rdf-syntax-ns#" xmlns:svg="http://www.w3.org/2000/svg" xmlns="http://www.w3.org/2000/svg" xmlns:sodipodi="http://sodipodi.sourceforge.net/DTD/sodipodi-0.dtd" xmlns:inkscape="http://www.inkscape.org/namespaces/inkscape" viewBox="0 0 26.458333 26.458334" version="1.1" x="0px" y="0px"><g transform="translate(0,-270.54164)"><path style="color:#000000;font-style:normal;font-variant:normal;font-weight:normal;font-stretch:normal;font-size:medium;line-height:normal;font-family:sans-serif;font-variant-ligatures:normal;font-variant-position:normal;font-variant-caps:normal;font-variant-numeric:normal;font-variant-alternates:normal;font-feature-settings:normal;text-indent:0;text-align:start;text-decoration:none;text-decoration-line:none;text-decoration-style:solid;text-decoration-color:#000000;letter-spacing:normal;word-spacing:normal;text-transform:none;writing-mode:lr-tb;direction:ltr;text-orientation:mixed;dominant-baseline:auto;baseline-shift:baseline;text-anchor:start;white-space:normal;shape-padding:0;clip-rule:nonzero;display:inline;overflow:visible;visibility:visible;opacity:1;isolation:auto;mix-blend-mode:normal;color-interpolation:sRGB;color-interpolation-filters:linearRGB;solid-color:#000000;solid-opacity:1;vector-effect:none;fill:#000000;fill-opacity:1;fill-rule:nonzero;stroke:none;stroke-width:0.53253537;stroke-linecap:round;stroke-linejoin:round;stroke-miterlimit:4;stroke-dasharray:none;stroke-dashoffset:0;stroke-opacity:1;color-rendering:auto;image-rendering:auto;shape-rendering:auto;text-rendering:auto;enable-background:accumulate" d="m 13.229168,272.12914 c -2.586675,0 -4.9284678,0.44967 -6.6462466,1.18847 -0.8588895,0.36939 -1.5632176,0.80816 -2.0662339,1.31965 -0.5030163,0.51149 -0.8125217,1.11256 -0.81252,1.76416 -2e-7,0.0878 0.016611,14.63249 0.016611,14.63249 -0.011495,0.0339 0.00785,0.50718 0.034689,0.55797 0.1065798,0.47804 0.3767523,0.92097 0.7612184,1.31191 0.5030176,0.51149 1.2073447,0.95303 2.0662339,1.32243 1.7177782,0.7388 4.0595762,1.18625 6.6462472,1.18625 2.586671,0 4.928469,-0.44745 6.646247,-1.18625 0.858889,-0.3694 1.563215,-0.81094 2.066234,-1.32243 0.384466,-0.39094 0.654638,-0.83387 0.761218,-1.31191 0.02684,-0.0508 0.04547,-0.51952 0.03469,-0.55133 0,0 0.01661,-14.55137 0.01661,-14.63913 2e-6,-0.6516 -0.309504,-1.25267 -0.81252,-1.76416 -0.503017,-0.51149 -1.207344,-0.95026 -2.066234,-1.31966 -1.717779,-0.73879 -4.059572,-1.18846 -6.646246,-1.18846 z m 0,0.56683 c 2.535353,0 4.830052,0.44599 6.46889,1.15083 0.819419,0.35243 1.47381,0.77044 1.909397,1.21337 0.435587,0.44293 0.646402,0.89139 0.646401,1.34125 1e-6,0.44985 -0.210814,0.89999 -0.646401,1.34291 -0.435587,0.44293 -1.089978,0.86095 -1.909397,1.21337 -1.638838,0.70485 -3.933537,1.14862 -6.46889,1.14862 -2.535353,0 -4.830052,-0.44377 -6.4688898,-1.14862 -0.8194188,-0.35242 -1.4738103,-0.77044 -1.9093975,-1.21337 -0.4355869,-0.44292 -0.6464015,-0.89306 -0.6464002,-1.34291 -1.3e-6,-0.44986 0.2108133,-0.89832 0.6464002,-1.34125 0.4355872,-0.44293 1.0899787,-0.86094 1.9093975,-1.21337 1.6388378,-0.70484 3.9335368,-1.15083 6.4688898,-1.15083 z m -9.0095413,5.12309 c 0.089771,0.11904 0.1878639,0.23493 0.2970608,0.34596 0.5030163,0.51149 1.2073444,0.95248 2.0662339,1.32188 1.7177788,0.73879 4.0595716,1.18625 6.6462466,1.18625 2.586675,0 4.928468,-0.44746 6.646247,-1.18625 0.85889,-0.3694 1.563217,-0.81039 2.066234,-1.32188 0.109196,-0.11103 0.207289,-0.22692 0.297061,-0.34596 v 3.31409 c -0.05267,0.38392 -0.259068,0.76628 -0.631255,1.14474 -0.435589,0.44292 -1.089978,0.86095 -1.909397,1.21337 -1.638838,0.70485 -3.933542,1.15083 -6.46889,1.15083 -2.535348,0 -4.8300524,-0.44598 -6.4688898,-1.15083 -0.8194188,-0.35242 -1.4738088,-0.77045 -1.9093975,-1.21337 -0.3721857,-0.37846 -0.5785805,-0.76082 -0.631254,-1.14474 z m 0,4.53577 c 0.089771,0.11904 0.1878636,0.23493 0.2970608,0.34597 0.5030176,0.51148 1.2073446,0.95247 2.0662339,1.32187 1.7177781,0.73879 4.0595766,1.18625 6.6462466,1.18625 2.58667,0 4.928469,-0.44746 6.646247,-1.18625 0.858889,-0.3694 1.563215,-0.81039 2.066234,-1.32187 0.109197,-0.11104 0.207289,-0.22693 0.297061,-0.34597 v 3.31243 c -0.05267,0.38436 -0.259068,0.76794 -0.631255,1.1464 -0.435589,0.44292 -1.089978,0.86096 -1.909397,1.21337 -1.638838,0.70485 -3.933542,1.14862 -6.46889,1.14862 -2.535348,0 -4.8300524,-0.44377 -6.4688898,-1.14862 -0.8194188,-0.35241 -1.4738088,-0.77045 -1.9093975,-1.21337 -0.3721857,-0.37846 -0.5785805,-0.76204 -0.631254,-1.1464 z m 0,4.53356 c 0.089771,0.11904 0.1878636,0.23493 0.2970608,0.34596 0.5030176,0.51149 1.2073446,0.95302 2.0662339,1.32243 1.7177781,0.73879 4.0595766,1.18625 6.6462466,1.18625 2.58667,0 4.928469,-0.44746 6.646247,-1.18625 0.858889,-0.36941 1.563215,-0.81094 2.066234,-1.32243 0.109197,-0.11103 0.207289,-0.22692 0.297061,-0.34596 v 4.44831 c -0.05267,0.38392 -0.259068,0.76628 -0.631255,1.14473 -0.435589,0.44293 -1.089978,0.86096 -1.909397,1.21338 -1.638838,0.70485 -3.933542,1.15083 -6.46889,1.15083 -2.535348,0 -4.8300524,-0.44598 -6.4688898,-1.15083 -0.8194188,-0.35242 -1.4738088,-0.77045 -1.9093975,-1.21338 -0.3721857,-0.37845 -0.5785805,-0.76081 -0.631254,-1.14473 z"></path></g></svg>