<svg height='100px' width='100px'  fill="#000000" xmlns="http://www.w3.org/2000/svg" xmlns:xlink="http://www.w3.org/1999/xlink" version="1.1" x="0px" y="0px" viewBox="0 0 512 512" enable-background="new 0 0 512 512" xml:space="preserve"><path fill="#000000" d="M458.672,405.328c-14.734,0-28.062,5.969-37.719,15.625l-107.141-84.125  c3.969-8.344,6.188-17.656,6.188-27.5c0-31.703-23.062-58.023-53.328-63.102V105.594c24.344-4.938,42.672-26.461,42.672-52.258  C309.344,23.875,285.469,0,256,0c-29.453,0-53.328,23.875-53.328,53.336c0,25.797,18.328,47.32,42.672,52.258v140.633  C215.078,251.305,192,277.625,192,309.328c0,10.016,2.312,19.484,6.406,27.922L91.375,421.297  c-9.672-9.844-23.141-15.969-38.031-15.969C23.891,405.328,0,429.203,0,458.672C0,488.125,23.891,512,53.344,512  s53.328-23.875,53.328-53.328c0-7.391-1.5-14.422-4.203-20.812l107.297-84.281c11.656,12.172,28.062,19.75,46.234,19.75  c18.359,0,34.891-7.719,46.562-20.094l107.188,84.188c-2.828,6.5-4.406,13.688-4.406,21.25c0,29.453,23.875,53.328,53.328,53.328  S512,488.125,512,458.672C512,429.203,488.125,405.328,458.672,405.328z M53.344,490.672c-17.641,0-32-14.359-32-32  c0-17.656,14.359-32,32-32s32,14.344,32,32C85.344,476.312,70.984,490.672,53.344,490.672z M224,53.336c0-17.648,14.359-32,32-32  c17.656,0,32,14.352,32,32c0,17.641-14.344,32-32,32C238.359,85.336,224,70.977,224,53.336z M256,352  c-23.516,0-42.656-19.141-42.656-42.672c0-23.523,19.141-42.664,42.656-42.664c23.531,0,42.672,19.141,42.672,42.664  C298.672,332.859,279.531,352,256,352z M458.672,490.672c-17.641,0-32-14.359-32-32c0-17.656,14.359-32,32-32s32,14.344,32,32  C490.672,476.312,476.312,490.672,458.672,490.672z"></path></svg>