<svg height='100px' width='100px'  fill="#000000" xmlns:dc="http://purl.org/dc/elements/1.1/" xmlns:cc="http://creativecommons.org/ns#" xmlns:rdf="http://www.w3.org/1999/02/22-rdf-syntax-ns#" xmlns:svg="http://www.w3.org/2000/svg" xmlns="http://www.w3.org/2000/svg" xmlns:sodipodi="http://sodipodi.sourceforge.net/DTD/sodipodi-0.dtd" xmlns:inkscape="http://www.inkscape.org/namespaces/inkscape" viewBox="0 0 25.399999 25.399999" version="1.1" x="0px" y="0px"><g><path style="color:#000000;font-style:normal;font-variant:normal;font-weight:normal;font-stretch:normal;font-size:medium;line-height:normal;font-family:sans-serif;font-variant-ligatures:normal;font-variant-position:normal;font-variant-caps:normal;font-variant-numeric:normal;font-variant-alternates:normal;font-feature-settings:normal;text-indent:0;text-align:start;text-decoration:none;text-decoration-line:none;text-decoration-style:solid;text-decoration-color:#000000;letter-spacing:normal;word-spacing:normal;text-transform:none;writing-mode:lr-tb;direction:ltr;text-orientation:mixed;dominant-baseline:auto;baseline-shift:baseline;text-anchor:start;white-space:normal;shape-padding:0;clip-rule:nonzero;display:inline;overflow:visible;visibility:visible;opacity:1;isolation:auto;mix-blend-mode:normal;color-interpolation:sRGB;color-interpolation-filters:linearRGB;solid-color:#000000;solid-opacity:1;vector-effect:none;fill:#000000;fill-opacity:1;fill-rule:nonzero;stroke:none;stroke-width:4;stroke-linecap:butt;stroke-linejoin:round;stroke-miterlimit:4;stroke-dasharray:none;stroke-dashoffset:0;stroke-opacity:1;color-rendering:auto;image-rendering:auto;shape-rendering:auto;text-rendering:auto;enable-background:accumulate" d="m 20,6 c -0.530398,1.022e-4 -1.039039,0.2108651 -1.414062,0.5859375 L 6.5859375,18.585938 C 5.9309081,19.240924 5.8113052,20.259973 6.296875,21.048828 L 30.488281,60.359375 C 28.904772,63.222003 27.998044,66.507458 28,70.001953 c 0.0012,2.262705 0.397699,4.500653 1.150391,6.623047 0.850719,2.595461 4.74307,1.215995 3.769531,-1.335938 C 32.315675,73.585244 32.000974,71.795042 32,69.998047 31.995049,61.139155 39.139759,54 48,54 c 8.860245,0 16,7.139755 16,16 0,8.860245 -7.139284,16.005435 -15.998047,16 -1.796462,-0.0011 -3.585066,-0.31695 -5.289062,-0.921875 -2.51213,-0.89136 -3.851974,2.878171 -1.339844,3.769531 2.121982,0.753328 4.361531,1.150957 6.625,1.152344 C 59.021531,90.006803 68,81.022006 68,70 68,66.507443 67.094021,63.222804 65.511719,60.361328 l 24.191406,-39.3125 c 0.48557,-0.788855 0.365967,-1.807904 -0.289063,-2.46289 l -12,-12.0000005 C 77.039039,6.2108651 76.530398,6.0001022 76,6 Z m 0.828125,4 h 54.34375 l 7.996094,7.996094 H 12.832031 Z m -9.25,11.998047 h 11.263672 l 17.087891,29.71875 c -2.667007,1.182823 -5.021458,2.935494 -6.925782,5.097656 z m 61.578125,0 H 84.421875 L 62.996094,56.816406 C 61.077981,54.637573 58.704898,52.872981 56.013672,51.689453 Z M 27.457031,22 H 68.535156 L 52.119141,50.433594 C 50.788609,50.153399 49.412229,50 48,50 c -1.43598,0 -2.83412,0.159753 -4.185547,0.449219 z m 20.539063,35.992188 c -6.453309,0.0013 -12.00328,5.557291 -12.001953,12.009765 0.0013,6.450732 5.551221,12.002584 12.001953,12.003906 6.452474,0.0013 12.010396,-5.550593 12.011718,-12.003906 0.0013,-6.455055 -5.556663,-12.011092 -12.011718,-12.009765 z m 0,4 c 4.028186,-8.28e-4 8.010593,3.981579 8.009765,8.009765 -8.24e-4,4.027208 -3.98173,8.002777 -8.009765,8.001953 -4.027053,-8.24e-4 -8.001126,-3.9749 -8.001953,-8.001953 -8.28e-4,-4.028032 3.974753,-8.008942 8.001953,-8.009765 z M 35.300781,80.728516 c -0.540536,-0.0078 -1.0612,0.203584 -1.443359,0.585937 -0.780847,0.781014 -0.780847,2.047111 0,2.828125 0.781014,0.780847 2.047111,0.780847 2.828125,0 0.780847,-0.781014 0.780847,-2.047111 0,-2.828125 -0.367803,-0.367997 -0.864535,-0.578179 -1.384766,-0.585937 z" transform="scale(0.26458332)"></path></g></svg>