<svg height='100px' width='100px'  fill="#000000" xmlns:dc="http://purl.org/dc/elements/1.1/" xmlns:cc="http://creativecommons.org/ns#" xmlns:rdf="http://www.w3.org/1999/02/22-rdf-syntax-ns#" xmlns:svg="http://www.w3.org/2000/svg" xmlns="http://www.w3.org/2000/svg" xmlns:sodipodi="http://sodipodi.sourceforge.net/DTD/sodipodi-0.dtd" xmlns:inkscape="http://www.inkscape.org/namespaces/inkscape" version="1.1" x="0px" y="0px" viewBox="0 0 100 100"><g transform="translate(0,-952.36218)"><path style="font-size:medium;font-style:normal;font-variant:normal;font-weight:normal;font-stretch:normal;text-indent:0;text-align:start;text-decoration:none;line-height:normal;letter-spacing:normal;word-spacing:normal;text-transform:none;direction:ltr;block-progression:tb;writing-mode:lr-tb;text-anchor:start;baseline-shift:baseline;opacity:1;color:#000000;fill:#000000;fill-opacity:1;stroke:none;stroke-width:3.99999905000000000;marker:none;visibility:visible;display:inline;overflow:visible;enable-background:accumulate;font-family:Sans;-inkscape-font-specification:Sans" d="M 39.78125 6 A 2.0001995 2.0001995 0 0 0 38.59375 6.59375 C 24.394451 20.74163 11 38.98564 11 55 C 11 70.9354 24.009843 84 40 84 C 44.328294 84 48.435589 83.026302 52.125 81.3125 C 54.738083 88.675306 61.75095 93.96875 70 93.96875 C 80.469721 93.96875 88.96875 85.4697 88.96875 75 C 88.96875 64.5303 80.469721 56.03125 70 56.03125 C 69.651508 56.03125 69.312666 56.075127 68.96875 56.09375 C 68.982835 55.725128 69 55.367705 69 55 C 69 38.9856 55.605547 20.74163 41.40625 6.59375 A 2.0001995 2.0001995 0 0 0 39.78125 6 z M 40 10.96875 C 53.254406 24.55895 65 41.79994 65 55 C 65 55.581934 64.972257 56.157858 64.9375 56.71875 C 56.927709 58.944887 51.03125 66.28935 51.03125 75 C 51.03125 75.785547 51.094414 76.551746 51.1875 77.3125 C 47.81552 79.01571 44.023332 80 40 80 C 26.184035 80 15 68.763 15 55 C 15 41.79998 26.745595 24.55895 40 10.96875 z M 25.40625 37.6875 A 2.0001995 2.0001995 0 0 0 23.875 38.78125 C 21.280117 43.7065 19.660868 48.46725 19.4375 53.71875 A 2.0001995 2.0001995 0 0 0 19.4375 53.75 C 19.33525 59.7597 21.381419 65.39125 25.0625 69.28125 A 2.0001995 2.0001995 0 1 0 27.9375 66.53125 C 25.086611 63.51855 23.359305 58.9211 23.4375 53.875 C 23.437665 53.864 23.437319 53.85375 23.4375 53.84375 C 23.635508 49.31775 25.019094 45.21529 27.4375 40.625 A 2.0001995 2.0001995 0 0 0 25.40625 37.6875 z M 70 59.96875 C 78.307961 59.96875 85.03125 66.692 85.03125 75 C 85.03125 83.3079 78.307961 90.03125 70 90.03125 C 61.69204 90.03125 54.96875 83.3079 54.96875 75 C 54.96875 66.692 61.69204 59.96875 70 59.96875 z M 69.78125 65.96875 A 2.0001995 2.0001995 0 0 0 68 68 L 68 73 L 63 73 A 2.0001995 2.0001995 0 0 0 62.8125 73 A 2.0021961 2.0021961 0 1 0 63 77 L 68 77 L 68 82 A 2.0001995 2.0001995 0 1 0 72 82 L 72 77 L 77 77 A 2.0001995 2.0001995 0 1 0 77 73 L 72 73 L 72 68 A 2.0001995 2.0001995 0 0 0 69.78125 65.96875 z " transform="translate(0,952.36218)"></path></g></svg>