<svg height='100px' width='100px'  fill="#000000" xmlns="http://www.w3.org/2000/svg" viewBox="0 0 66 66" x="0px" y="0px"><title>Artboard 8</title><g><path d="M7,24H59a1,1,0,0,0,0-2H7a1,1,0,0,0,0,2Z"></path><path d="M7,32H59a1,1,0,0,0,0-2H7a1,1,0,0,0,0,2Z"></path><path d="M7,39H59a1,1,0,0,0,0-2H7a1,1,0,0,0,0,2Z"></path><path d="M32,44H7a1,1,0,0,0,0,2H32a1,1,0,0,0,0-2Z"></path><path d="M32,51H7a1,1,0,0,0,0,2H32a1,1,0,0,0,0-2Z"></path><path d="M55.77,42.36a1,1,0,1,0-1.54,1.28L58.7,49l-4.47,5.36a1,1,0,0,0,.13,1.41A1,1,0,0,0,55,56a1,1,0,0,0,.77-.36l5-6a1,1,0,0,0,0-1.28Z"></path><path d="M42.64,42.23a1,1,0,0,0-1.41.13l-5,6a1,1,0,0,0,0,1.28l5,6A1,1,0,0,0,42,56a1,1,0,0,0,.64-.23,1,1,0,0,0,.13-1.41L38.3,49l4.47-5.36A1,1,0,0,0,42.64,42.23Z"></path><path d="M51.34,41.06a1,1,0,0,0-1.28.6l-5,14a1,1,0,0,0,.6,1.28A1,1,0,0,0,46,57a1,1,0,0,0,.94-.66l5-14A1,1,0,0,0,51.34,41.06Z"></path><path d="M60,1H6A5,5,0,0,0,1,6V60a5,5,0,0,0,5,5H60a5,5,0,0,0,5-5V6A5,5,0,0,0,60,1ZM6,3H60a3,3,0,0,1,3,3v9H3V6A3,3,0,0,1,6,3ZM60,63H6a3,3,0,0,1-3-3V17H63V60A3,3,0,0,1,60,63Z"></path><path d="M37,12H60a1,1,0,0,0,1-1V7a1,1,0,0,0-1-1H37a1,1,0,0,0-1,1v4A1,1,0,0,0,37,12Zm1-4H59v2H38Z"></path><path d="M29,13a4,4,0,1,0-4-4A4,4,0,0,0,29,13Zm0-6a2,2,0,1,1-2,2A2,2,0,0,1,29,7Z"></path><path d="M19,13a4,4,0,1,0-4-4A4,4,0,0,0,19,13Zm0-6a2,2,0,1,1-2,2A2,2,0,0,1,19,7Z"></path><path d="M9,13A4,4,0,1,0,5,9,4,4,0,0,0,9,13ZM9,7A2,2,0,1,1,7,9,2,2,0,0,1,9,7Z"></path></g></svg>