<svg height='100px' width='100px'  fill="#000000" xmlns="http://www.w3.org/2000/svg" xmlns:xlink="http://www.w3.org/1999/xlink" viewBox="0 0 100 100" version="1.1" x="0px" y="0px"><title>7.1</title><desc>Created with Sketch.</desc><g stroke="none" stroke-width="1" fill="none" fill-rule="evenodd"><g fill-rule="nonzero" fill="#000000"><path d="M25,33.9991421 C25,33.4473312 25.4475257,33 25.998769,33 L74.001231,33 C74.5528359,33 75,33.4549243 75,33.9991421 L75,66.0008579 C75,66.5526688 74.5524743,67 74.001231,67 L25.998769,67 C25.4471641,67 25,66.5450757 25,66.0008579 L25,33.9991421 Z M26.5065849,66 L73.4934151,66 C73.7859955,66 74,65.7794436 74,65.5073734 L74,35.1303444 C74,34.8547362 73.8224625,34.7782683 73.603459,34.9516461 L50.7848781,53.016356 C50.3578922,53.3543865 49.6485981,53.3595247 49.2151219,53.016356 L26.396541,34.9516461 C26.1793833,34.7797296 26,34.8582743 26,35.1303444 L26,65.5073734 C26,65.7829816 26.2268058,66 26.5065849,66 Z M27.1983896,34.3110073 L49.6071487,52.0512749 C49.8266376,52.2250369 50.1758855,52.2230395 50.3928513,52.0512749 L72.8016104,34.3110073 C73.0210993,34.1372453 72.9682942,34 72.6893025,34 L27.3106975,34 C27.0332543,34 26.9814238,34.1392427 27.1983896,34.3110073 Z"></path></g></g></svg>