<svg height='100px' width='100px'  fill="#000000" xmlns="http://www.w3.org/2000/svg" data-name="Layer 1" viewBox="0 0 100 100" x="0px" y="0px"><title>A_9</title><path d="M93.19969,5H6.79934A1.79964,1.79964,0,0,0,4.99951,6.7998V71.72949A1.79964,1.79964,0,0,0,6.79934,73.5293H42.68449v8.84131H25.37473a1.79963,1.79963,0,0,0-1.79982,1.7998V93.2002A1.79963,1.79963,0,0,0,25.37473,95H74.62429a1.79963,1.79963,0,0,0,1.79982-1.7998V84.17041a1.79963,1.79963,0,0,0-1.79982-1.7998H57.31453V73.5293H93.19969a1.79964,1.79964,0,0,0,1.79982-1.79981V6.7998A1.79963,1.79963,0,0,0,93.19969,5Zm-37.685,80.97021H72.82447v5.43018H27.17456V85.97021H44.48432a1.79963,1.79963,0,0,0,1.79982-1.7998V73.5293h7.43074V84.17041A1.79964,1.79964,0,0,0,55.51471,85.97021ZM91.39986,69.92969H8.59916V8.59961h82.8007ZM24.03878,57.36084a6.80774,6.80774,0,0,0,5.91974-10.19006l9.32847-9.328a6.76773,6.76773,0,0,0,6.741.0008l5.39215,5.392a6.81893,6.81893,0,1,0,11.84071.00042l9.3292-9.32849a6.83882,6.83882,0,1,0-2.54666-2.544l-9.32652,9.32592a6.76791,6.76791,0,0,0-6.75227-.00024l-5.39007-5.39A6.81837,6.81837,0,1,0,36.74082,35.298l-9.32749,9.32715a6.81567,6.81567,0,1,0-3.37455,12.73572ZM75.95927,24.76807a3.219,3.219,0,1,1-3.21879,3.21875A3.22283,3.22283,0,0,1,75.95927,24.76807ZM57.3409,43.38672A3.219,3.219,0,1,1,54.12114,46.606,3.223,3.223,0,0,1,57.3409,43.38672ZM42.65812,28.70459a3.219,3.219,0,1,1-3.21878,3.21924A3.223,3.223,0,0,1,42.65812,28.70459ZM24.03878,47.32373A3.21875,3.21875,0,1,1,20.82,50.54248,3.22283,3.22283,0,0,1,24.03878,47.32373Z"></path></svg>