<svg height='100px' width='100px'  xmlns="http://www.w3.org/2000/svg" viewBox="0 0 16 16" fill="none" x="0px" y="0px"><path fill-rule="evenodd" clip-rule="evenodd" d="M8.79658 2.04326C8.97696 1.96293 9.18772 1.99627 9.33448 2.12836L14.3345 6.62836C14.4398 6.72318 14.5 6.85827 14.5 7.00001C14.5 7.14175 14.4398 7.27683 14.3345 7.37166L9.33448 11.8717C9.18772 12.0037 8.97696 12.0371 8.79658 11.9568C8.61621 11.8764 8.5 11.6975 8.5 11.5V9.44062C6.85317 9.52019 5.3911 9.98905 4.32365 10.6862C3.14483 11.456 2.5 12.4617 2.5 13.5C2.5 13.7762 2.27614 14 2 14C1.72386 14 1.5 13.7762 1.5 13.5C1.5 9.05564 4.53865 5.31096 8.5 5.0184V2.50001C8.5 2.30255 8.61621 2.12359 8.79658 2.04326ZM3.0933 10.3613C3.3054 10.1785 3.53419 10.0074 3.77686 9.84889C5.13604 8.96127 6.98411 8.42859 9 8.42859C9.27614 8.42859 9.5 8.65245 9.5 8.92859V10.3773L13.2526 7.00001L9.5 3.62269V5.50001C9.5 5.77615 9.27614 6.00001 9 6.00001C6.41629 6.00001 4.13188 7.76494 3.0933 10.3613Z" fill="black"></path></svg>