<svg height='100px' width='100px'  fill="#000000" xmlns="http://www.w3.org/2000/svg" xmlns:xlink="http://www.w3.org/1999/xlink" version="1.1" x="0px" y="0px" viewBox="0 0 100 100" style="enable-background:new 0 0 100 100;" xml:space="preserve"><g><g><g><g><g><g><path d="M20.02,95.65c-4.31,0-8.25-1.58-11.17-4.5C5.71,88.01,4.12,83.69,4.38,79c0.25-4.61,2.26-9.02,5.66-12.42l46.65-46.65        c0.78-0.78,2.05-0.78,2.83,0s0.78,2.05,0,2.83L12.86,69.41c-2.7,2.7-4.3,6.19-4.49,9.81c-0.19,3.54,0.98,6.78,3.31,9.1        c2.33,2.33,5.56,3.51,9.1,3.31c3.63-0.2,7.11-1.79,9.81-4.5l46.65-46.65c0.78-0.78,2.05-0.78,2.83,0s0.78,2.05,0,2.83        L33.42,89.96c-3.4,3.4-7.81,5.41-12.42,5.66C20.67,95.64,20.35,95.65,20.02,95.65z"></path></g></g></g></g></g><g><g><g><g><g><path d="M82.57,45.38C82.57,45.38,82.57,45.38,82.57,45.38c-1.63,0-3.14-0.63-4.28-1.77l-21.9-21.9        c-1.14-1.14-1.77-2.66-1.77-4.28c0-1.62,0.63-3.14,1.77-4.28l0.54-0.54c2.36-2.36,6.2-2.36,8.56,0l21.9,21.9        c1.14,1.14,1.77,2.66,1.77,4.28c0,1.62-0.63,3.14-1.77,4.28l-0.54,0.54C85.71,44.75,84.19,45.38,82.57,45.38z M61.22,14.83        c-0.53,0-1.06,0.2-1.46,0.6l-0.55,0.54c-0.38,0.38-0.59,0.9-0.59,1.45c0,0.55,0.21,1.07,0.6,1.45l9.59,9.59l0,0l12.32,12.32        c0.38,0.38,0.9,0.6,1.45,0.6c0,0,0,0,0,0c0.55,0,1.07-0.21,1.46-0.6l0.54-0.54c0.38-0.38,0.6-0.9,0.59-1.45        c0-0.55-0.21-1.07-0.6-1.46l-21.9-21.9C62.27,15.03,61.75,14.83,61.22,14.83z"></path></g></g></g></g></g><g><g><g><g><g><path d="M65.98,55.16L65.98,55.16l-40.7,0c-0.55,0-1-0.45-1-1c0-0.55,0.45-1,1-1l0,0l40.7,0c0.55,0,1,0.45,1,1        C66.98,54.72,66.53,55.16,65.98,55.16z"></path></g></g></g></g></g><g><g><g><g><g><path d="M82.94,34.73c-0.51,0-1.02-0.2-1.41-0.59c-0.78-0.78-0.78-2.05,0-2.83l9.29-9.29L77.98,9.18l-9.15,9.15        c-0.78,0.78-2.05,0.78-2.83,0s-0.78-2.05,0-2.83L76.57,4.94c0.78-0.78,2.05-0.78,2.83,0L95.06,20.6        c0.38,0.38,0.59,0.88,0.59,1.41s-0.21,1.04-0.59,1.41L84.35,34.14C83.96,34.53,83.45,34.73,82.94,34.73z"></path></g></g></g></g></g><g><g><g><g><g><g><g><path d="M37.28,71.07c-0.54,0-1.08-0.21-1.49-0.62c-0.82-0.83-0.82-2.17,0-2.99c0.83-0.83,2.17-0.82,2.99,0          c0.4,0.4,0.62,0.93,0.62,1.49s-0.22,1.1-0.62,1.5C38.36,70.87,37.82,71.07,37.28,71.07z M37.26,68.85          c-0.02,0-0.04,0.01-0.06,0.03c-0.04,0.04-0.04,0.12,0,0.16c0.04,0.04,0.11,0.04,0.16,0c0,0,0,0,0,0          c0.02-0.02,0.04-0.05,0.04-0.08C37.35,68.88,37.3,68.85,37.26,68.85z"></path></g></g></g></g></g></g></g><g><g><g><g><g><g><g><path d="M24.62,75.41L24.62,75.41c-0.56,0-1.09-0.22-1.49-0.62c-0.4-0.4-0.62-0.93-0.62-1.49c0-0.56,0.22-1.1,0.62-1.5          c0.83-0.83,2.17-0.82,2.99,0c0.82,0.83,0.82,2.17,0,2.99C25.72,75.19,25.19,75.41,24.62,75.41z M24.62,73.18          c-0.03,0-0.06,0.01-0.08,0.04c0,0,0,0.16,0,0.16c0,0,0.16,0,0.16,0c0.05-0.05,0.05-0.12,0-0.16          C24.68,73.19,24.65,73.18,24.62,73.18z"></path></g></g></g></g></g></g></g></g></svg>